<svg width="77" height="27" viewBox="0 0 77 27" fill="none" xmlns="http://www.w3.org/2000/svg">
<g clip-path="url(#clip0_230_76)">
<rect width="77" height="27" fill="#FF0000"/>
<rect y="4.80064" width="76" height="22" rx="11" transform="rotate(-3.62157 0 4.80064)" fill="white"/>
<path d="M19.0718 19.7959L16.3791 16.1497C17.5877 15.487 18.2047 14.3277 18.1127 12.8746C17.9739 10.682 16.3137 9.35425 13.6281 9.52423L9.37263 9.79357L10.0419 20.3674L12.4031 20.218L12.1921 16.8836L14.0733 16.7646L16.3343 19.9691L19.0718 19.7959ZM11.8661 11.7329L13.6565 11.6196C14.902 11.5408 15.6882 12.0251 15.7514 13.0241C15.8147 14.0231 15.0958 14.6027 13.8503 14.6815L12.0599 14.7948L11.8661 11.7329ZM20.1652 19.7267L28.1442 19.2217L28.0145 17.1718L22.3967 17.5273L22.253 15.2569L27.2999 14.9374L27.1702 12.8875L22.1233 13.207L21.9869 11.0533L27.4879 10.7051L27.3582 8.65522L19.4959 9.15284L20.1652 19.7267ZM36.6775 8.06537L34.3029 16.0313L30.93 8.42915L28.2574 8.5983L33.1042 18.9077L35.6472 18.7468L39.1555 7.90853L36.6775 8.06537ZM40.224 7.84091L40.8932 18.4147L43.2545 18.2653L42.5853 7.69145L40.224 7.84091ZM45.125 18.1469L53.104 17.6419L52.9743 15.592L47.3565 15.9476L47.2128 13.6771L52.2597 13.3577L52.13 11.3078L47.0831 11.6272L46.9468 9.47351L52.4478 9.12534L52.318 7.07544L44.4557 7.57307L45.125 18.1469ZM65.5166 6.24007L64.1233 13.2451L61.8838 6.47L59.4317 6.6252L58.0531 13.6553L55.799 6.85512L53.2691 7.01525L56.9872 17.3961L59.3744 17.245L60.849 10.4954L63.1629 17.0052L65.5501 16.8542L67.9297 6.08734L65.5166 6.24007Z" fill="#783DBD"/>
</g>
<defs>
<clipPath id="clip0_230_76">
<rect width="77" height="27" fill="white"/>
</clipPath>
</defs>
</svg>
