<svg width="48" height="25" viewBox="0 0 48 25" fill="none" xmlns="http://www.w3.org/2000/svg">
<g clip-path="url(#clip0_230_75)">
<rect width="48" height="25" fill="#FF0000"/>
<rect x="1.68799" width="47" height="22" rx="11" transform="rotate(4.4004 1.68799 0)" fill="white"/>
<path d="M9.76109 16.8391L13.857 17.1542C17.3566 17.4236 19.6868 15.4385 19.9272 12.3147C20.1676 9.19095 18.1695 6.85978 14.6699 6.59047L10.574 6.27528L9.76109 16.8391ZM12.2807 14.9338L12.7724 8.54365L14.5482 8.6803C16.5702 8.8359 17.7248 10.0982 17.5682 12.1332C17.4116 14.1682 16.0785 15.226 14.0565 15.0704L12.2807 14.9338ZM27.6257 18.2138L30.2569 18.4163L26.974 7.53731L24.5242 7.34879L19.6154 17.5974L22.0522 17.7849L22.9486 15.7938L27.0445 16.109L27.6257 18.2138ZM23.8321 13.8017L25.4374 10.2223L26.4762 14.0052L23.8321 13.8017ZM39.5681 8.50646L37.0665 8.31395L34.1549 13.1097L31.9984 7.92395L29.3024 7.71649L32.6982 15.2663L32.4428 18.5845L34.8018 18.766L35.0572 15.4478L39.5681 8.50646Z" fill="#19D3C5"/>
</g>
<defs>
<clipPath id="clip0_230_75">
<rect width="48" height="25" fill="white"/>
</clipPath>
</defs>
</svg>
