<svg width="114" height="30" viewBox="0 0 114 30" fill="none" xmlns="http://www.w3.org/2000/svg">
<g clip-path="url(#clip0_230_72)">
<rect y="8" width="112" height="22" rx="11" transform="rotate(-3.95925 0 8)" fill="white"/>
<path d="M19.5506 22.8555L16.8364 19.2253C18.0411 18.5555 18.6512 17.3926 18.5507 15.9401C18.399 13.7483 16.731 12.4303 14.0464 12.6161L9.79262 12.9106L10.5242 23.4803L12.8845 23.3169L12.6538 19.9839L14.5343 19.8537L16.8141 23.0449L19.5506 22.8555ZM12.2975 14.8352L14.0872 14.7113C15.3322 14.6252 16.1212 15.1048 16.1903 16.1034C16.2595 17.1021 15.5441 17.6858 14.299 17.772L12.5093 17.8959L12.2975 14.8352ZM20.6435 22.7799L28.6194 22.2279L28.4776 20.1788L22.8621 20.5674L22.705 18.2979L27.7499 17.9487L27.6081 15.8996L22.5631 16.2488L22.4141 14.0959L27.913 13.7153L27.7712 11.6662L19.912 12.2102L20.6435 22.7799ZM35.2592 22.0289C38.1902 21.8261 40.1788 19.6816 40.3559 17.5323L37.9696 17.6975C37.8544 18.6697 36.6785 19.7545 35.1611 19.8595C33.2417 19.9924 31.7164 18.6645 31.5809 16.7062C31.4444 14.7349 32.7732 13.2226 34.6926 13.0897C36.21 12.9847 37.342 13.7143 37.6585 14.7088L40.0448 14.5436C39.4624 12.3426 37.3959 10.7264 34.4908 10.9275C31.2356 11.1528 28.9988 13.6662 29.2205 16.8696C29.4422 20.0729 32.004 22.2542 35.2592 22.0289ZM51.0105 20.6781L48.2963 17.0479C49.501 16.3781 50.1111 15.2152 50.0106 13.7627C49.8589 11.5709 48.1909 10.2529 45.5063 10.4387L41.2525 10.7332L41.9841 21.3029L44.3444 21.1395L44.1137 17.8065L45.9942 17.6763L48.274 20.8675L51.0105 20.6781ZM43.7574 12.6578L45.5471 12.5339C46.7921 12.4478 47.5811 12.9274 47.6502 13.926C47.7194 14.9246 47.004 15.5084 45.7589 15.5946L43.9692 15.7185L43.7574 12.6578ZM51.5357 15.9376C51.7431 18.9334 53.8101 20.745 56.7151 20.5439C59.6202 20.3429 61.4179 18.2638 61.2106 15.2679L60.803 9.38002L58.4427 9.54339L58.8502 15.4313C58.9669 17.1173 58.1112 18.3102 56.5679 18.417C55.0246 18.5238 54.0127 17.4602 53.8961 15.7742L53.4885 9.88627L51.1282 10.0496L51.5357 15.9376ZM62.5424 9.25964L63.274 19.8294L65.6343 19.666L64.9028 9.09627L62.5424 9.25964ZM75.4099 8.36905L66.1759 9.00815L66.3205 11.0962L69.7572 10.8583L70.3443 19.34L72.7046 19.1766L72.1176 10.6949L75.5544 10.4571L75.4099 8.36905ZM76.6766 8.28138L77.4081 18.8511L79.7685 18.6877L79.0369 8.11802L76.6766 8.28138ZM81.6382 18.5583L83.9986 18.395L83.5498 11.9105L89.268 17.8999L91.2393 17.7635L90.5077 7.19379L88.1474 7.35715L88.5962 13.8416L82.878 7.85217L80.9067 7.98861L81.6382 18.5583ZM97.5499 6.56304C94.2947 6.78834 92.0579 9.30178 92.2796 12.5051C92.5013 15.7085 95.0631 17.8898 98.3183 17.6645C101.522 17.4428 103.758 14.9293 103.537 11.726L103.494 11.1035L97.7484 11.5011L97.8866 13.4983L101.116 13.2748C100.941 14.3294 99.87 15.42 98.2229 15.534C96.3035 15.6668 94.7773 14.326 94.64 12.3418C94.5035 10.3705 95.8323 8.85811 97.7517 8.72526C99.0356 8.6364 100.076 9.16386 100.57 9.91148L103.164 9.73196C102.417 7.78989 100.312 6.37185 97.5499 6.56304Z" fill="#783DBD"/>
</g>
<defs>
<clipPath id="clip0_230_72">
<rect width="114" height="30" fill="white"/>
</clipPath>
</defs>
</svg>
