<svg width="554" height="297" viewBox="0 0 554 297" fill="none" xmlns="http://www.w3.org/2000/svg">
<g clip-path="url(#clip0_56_1100)">
<path d="M193.96 17.52H181.82C179.76 13.88 175.08 11.09 169.08 11.09C160.1 11.09 153.42 17.7 153.42 26.93C153.42 36.16 160.09 42.95 169.08 42.95C176.79 42.95 182.13 38.22 183.28 33.36H168.17V24.01H195.05V26.92C195.05 41.91 183.82 52.8899 168.84 52.8899C153.86 52.8899 142.38 41.91 142.38 26.92C142.38 11.93 153.6 0.949951 168.84 0.949951C181.77 0.949951 191.11 8.22995 193.96 17.52Z" fill="white" stroke="#231815" stroke-width="1.42" stroke-miterlimit="10"/>
<path d="M240.07 17.16H228.66C227.99 12.85 224.78 10.24 219.5 10.24C214.22 10.24 211.49 12.3 211.49 15.28C211.49 18.98 215.31 20.26 224.96 22.26C236.37 24.63 240.25 30.27 240.25 37.67C240.25 47.14 231.33 52.9 220.28 52.9C208.08 52.9 199.16 46.29 198.68 35.73H210.03C210.64 40.46 214.76 43.62 221.07 43.62C225.56 43.62 228.9 41.37 228.9 38.16C228.9 34.22 225.56 32.64 216.76 31C206.02 29 200.19 24.57 200.19 15.28C200.19 5.99002 209.05 1.02002 220.22 1.02002C231.39 1.02002 239.52 7.76002 240.06 17.16H240.07Z" fill="white" stroke="#231815" stroke-width="1.42" stroke-miterlimit="10"/>
<path d="M277.08 30.44H257.24V40.88H268.47C273.38 40.88 278.72 39.85 281.88 38.39V47.61C278.72 49.19 273.2 50.1 268.04 50.1H247.04V21.34H266.88V11.15H246.92V1.91996H277.08V30.44ZM294.86 52.53H284.61V0.709961H294.86V52.53Z" fill="white" stroke="#231815" stroke-width="1.42" stroke-miterlimit="10"/>
<path d="M316.82 41.37C320.89 41.37 325.74 40.82 328.9 39.67V48.29C325.8 49.56 320.22 50.11 315.91 50.11H303.41V1.91996H326.35V10.66H313.06V21.4H324.23V30.14H313.06V41.37H316.82ZM331.44 0.949961H340.91V51.62H331.44V30.26H326.83V20.61H331.44V0.949961ZM354.08 0.709961V52.53H344.49V0.709961H354.08Z" fill="white" stroke="#231815" stroke-width="1.42" stroke-miterlimit="10"/>
<path d="M393.94 13.33C393.94 20.86 387.45 25.89 377.25 25.89C367.05 25.89 360.56 20.85 360.56 13.33C360.56 5.80996 367.05 0.769961 377.25 0.769961C387.45 0.769961 393.94 5.86996 393.94 13.33ZM410.38 43.37H374.82V45.43H410.93V52.53H364.69V37.06H400.25V35H364.57V27.9H410.38V43.37ZM370.7 13.33C370.7 16.06 373.31 17.82 377.25 17.82C381.19 17.82 383.8 16.06 383.8 13.33C383.8 10.6 381.19 8.83996 377.25 8.83996C373.31 8.83996 370.7 10.6 370.7 13.33ZM410.38 26.08H400.13V0.709961H410.38V26.08Z" fill="white" stroke="#231815" stroke-width="1.42" stroke-miterlimit="10"/>
<path d="M112.77 244.93H131.76C144.63 244.93 152.15 252.09 152.15 263.01C152.15 273.93 144.63 281.21 131.76 281.21H123.81V294.38H112.77V244.92V244.93ZM131.28 271.44C137.41 271.44 141.11 268.53 141.11 263.01C141.11 257.49 137.41 254.7 131.28 254.7H123.82V271.45H131.28V271.44Z" fill="white" stroke="#231815" stroke-width="1.42" stroke-miterlimit="10"/>
<path d="M186.92 294.38L177.33 278.79H168.53V294.38H157.49V244.92H177.39C189.95 244.92 197.29 251.6 197.29 261.85C197.29 268.65 194.07 273.87 188.25 276.6L199.72 294.38H186.92ZM168.53 269.02H176.9C182.73 269.02 186.25 266.53 186.25 261.86C186.25 257.19 182.73 254.7 176.9 254.7H168.53V269.02Z" fill="white" stroke="#231815" stroke-width="1.42" stroke-miterlimit="10"/>
<path d="M201.47 269.62C201.47 254.63 212.82 243.65 228.17 243.65C243.52 243.65 254.87 254.63 254.87 269.62C254.87 284.61 243.52 295.59 228.17 295.59C212.82 295.59 201.47 284.61 201.47 269.62ZM243.83 269.62C243.83 260.28 237.16 253.6 228.17 253.6C219.18 253.6 212.51 260.28 212.51 269.62C212.51 278.96 219.18 285.64 228.17 285.64C237.16 285.64 243.83 278.9 243.83 269.62Z" fill="white" stroke="#231815" stroke-width="1.42" stroke-miterlimit="10"/>
<path d="M268.22 277.94C268.22 281.58 271.13 285.65 276.59 285.65C282.05 285.65 285.33 281.83 285.33 276.12V244.93H296.37V276.12C296.37 287.95 288.48 295.6 276.59 295.6C264.7 295.6 257.29 287.77 257.17 277.94H268.21H268.22Z" fill="white" stroke="#231815" stroke-width="1.42" stroke-miterlimit="10"/>
<path d="M303.77 244.93H340.54V254.52H314.81V264.59H338.42V274.18H314.81V284.8H341.09V294.39H303.77V244.93Z" fill="white" stroke="#231815" stroke-width="1.42" stroke-miterlimit="10"/>
<path d="M344.97 269.62C344.97 254.63 356.2 243.65 371.43 243.65C385.02 243.65 394.12 251.84 396.13 262.28H384.96C383.81 257.55 378.77 253.78 371.67 253.78C362.69 253.78 356.01 260.39 356.01 269.62C356.01 278.85 362.68 285.46 371.67 285.46C378.77 285.46 384.6 280.79 385.45 276.3H396.62C395.1 286.25 385.15 295.6 371.44 295.6C356.21 295.6 344.98 284.62 344.98 269.63L344.97 269.62Z" fill="white" stroke="#231815" stroke-width="1.42" stroke-miterlimit="10"/>
<path d="M440.54 254.7H424.46V294.39H413.42V254.7H397.34V244.93H440.55V254.7H440.54Z" fill="white" stroke="#231815" stroke-width="1.42" stroke-miterlimit="10"/>
<path d="M303.61 164.03V213.49H292.57V164.03H303.61Z" fill="white" stroke="#231815" stroke-width="1.42" stroke-miterlimit="10"/>
<path d="M311.74 164.03H320.54L337.59 191.7L354.64 164.03H363.44V213.49H352.4V186.37L340.93 205.36H334.26L322.79 186.37V213.49H311.75V164.03H311.74Z" fill="white" stroke="#231815" stroke-width="1.42" stroke-miterlimit="10"/>
<path d="M371.57 164.03H390.56C403.43 164.03 410.95 171.19 410.95 182.11C410.95 193.03 403.43 200.31 390.56 200.31H382.61V213.48H371.57V164.02V164.03ZM390.07 190.54C396.2 190.54 399.9 187.63 399.9 182.11C399.9 176.59 396.2 173.8 390.07 173.8H382.61V190.55H390.07V190.54Z" fill="white" stroke="#231815" stroke-width="1.42" stroke-miterlimit="10"/>
<path d="M441.47 203.89H422.29L418.83 213.48H407.42L426.6 164.02H438.07L457.25 213.48H444.93L441.47 203.89ZM438.07 194.31L431.88 177.08L425.69 194.31H438.07Z" fill="white" stroke="#231815" stroke-width="1.42" stroke-miterlimit="10"/>
<path d="M457 188.72C457 173.73 468.23 162.75 483.46 162.75C497.05 162.75 506.15 170.94 508.16 181.38H496.99C495.84 176.65 490.8 172.88 483.7 172.88C474.72 172.88 468.04 179.49 468.04 188.72C468.04 197.95 474.71 204.56 483.7 204.56C490.8 204.56 496.63 199.89 497.48 195.4H508.65C507.13 205.35 497.18 214.7 483.47 214.7C468.24 214.7 457.01 203.72 457.01 188.73L457 188.72Z" fill="white" stroke="#231815" stroke-width="1.42" stroke-miterlimit="10"/>
<path d="M552.56 173.8H536.48V213.49H525.44V173.8H509.36V164.03H552.57V173.8H552.56Z" fill="white" stroke="#231815" stroke-width="1.42" stroke-miterlimit="10"/>
<path d="M42.13 178.96H30.72C30.05 174.65 26.84 172.04 21.56 172.04C16.28 172.04 13.55 174.1 13.55 177.08C13.55 180.78 17.37 182.06 27.02 184.06C38.43 186.43 42.31 192.07 42.31 199.47C42.31 208.94 33.39 214.7 22.34 214.7C10.14 214.7 1.21999 208.09 0.73999 197.53H12.09C12.7 202.26 16.82 205.42 23.13 205.42C27.62 205.42 30.96 203.17 30.96 199.96C30.96 196.02 27.62 194.44 18.82 192.8C8.07999 190.8 2.24999 186.37 2.24999 177.08C2.24999 167.79 11.11 162.82 22.28 162.82C33.45 162.82 41.58 169.56 42.12 178.96H42.13Z" fill="white" stroke="#231815" stroke-width="1.42" stroke-miterlimit="10"/>
<path d="M46.01 188.73C46.01 173.74 57.36 162.76 72.71 162.76C88.06 162.76 99.41 173.74 99.41 188.73C99.41 203.72 88.06 214.7 72.71 214.7C57.36 214.7 46.01 203.72 46.01 188.73ZM88.36 188.73C88.36 179.38 81.69 172.71 72.7 172.71C63.71 172.71 57.04 179.38 57.04 188.73C57.04 198.08 63.71 204.75 72.7 204.75C81.69 204.75 88.36 198.01 88.36 188.73Z" fill="white" stroke="#231815" stroke-width="1.42" stroke-miterlimit="10"/>
<path d="M103.16 188.73C103.16 173.74 114.39 162.76 129.62 162.76C143.21 162.76 152.31 170.95 154.32 181.39H143.15C142 176.66 136.96 172.89 129.86 172.89C120.88 172.89 114.2 179.5 114.2 188.73C114.2 197.96 120.87 204.57 129.86 204.57C136.96 204.57 142.79 199.9 143.64 195.41H154.81C153.29 205.36 143.34 214.71 129.63 214.71C114.4 214.71 103.17 203.73 103.17 188.74L103.16 188.73Z" fill="white" stroke="#231815" stroke-width="1.42" stroke-miterlimit="10"/>
<path d="M171.6 164.03V213.49H160.56V164.03H171.6Z" fill="white" stroke="#231815" stroke-width="1.42" stroke-miterlimit="10"/>
<path d="M210.01 203.9H190.83L187.37 213.49H175.96L195.14 164.03H206.61L225.79 213.49H213.47L210.01 203.9ZM206.61 194.31L200.42 177.08L194.23 194.31H206.61Z" fill="white" stroke="#231815" stroke-width="1.42" stroke-miterlimit="10"/>
<path d="M241.2 164.03V203.72H265.9V213.49H230.16V164.03H241.2Z" fill="white" stroke="#231815" stroke-width="1.42" stroke-miterlimit="10"/>
<path d="M57.28 81.21H94.05V90.8H68.32V100.87H91.93V110.46H68.32V121.08H94.6V130.67H57.28V81.21Z" fill="white" stroke="#231815" stroke-width="1.42" stroke-miterlimit="10"/>
<path d="M98.47 105.9C98.47 90.9099 109.7 79.9299 124.93 79.9299C138.52 79.9299 147.62 88.1199 149.63 98.5599H138.46C137.31 93.8299 132.27 90.0599 125.17 90.0599C116.19 90.0599 109.51 96.6699 109.51 105.9C109.51 115.13 116.18 121.74 125.17 121.74C132.27 121.74 138.1 117.07 138.95 112.58H150.12C148.6 122.53 138.65 131.88 124.94 131.88C109.71 131.88 98.48 120.9 98.48 105.91L98.47 105.9Z" fill="white" stroke="#231815" stroke-width="1.42" stroke-miterlimit="10"/>
<path d="M153.69 105.9C153.69 90.9099 165.04 79.9299 180.39 79.9299C195.74 79.9299 207.09 90.9099 207.09 105.9C207.09 120.89 195.74 131.87 180.39 131.87C165.04 131.87 153.69 120.89 153.69 105.9ZM196.04 105.9C196.04 96.5499 189.37 89.8799 180.38 89.8799C171.39 89.8799 164.72 96.5499 164.72 105.9C164.72 115.25 171.39 121.92 180.38 121.92C189.37 121.92 196.04 115.18 196.04 105.9Z" fill="white" stroke="#231815" stroke-width="1.42" stroke-miterlimit="10"/>
<path d="M271.29 81.21V120.9H295.99V130.67H260.25V81.21H271.29Z" fill="white" stroke="#231815" stroke-width="1.42" stroke-miterlimit="10"/>
<path d="M297.74 105.9C297.74 90.9099 309.09 79.9299 324.44 79.9299C339.79 79.9299 351.14 90.9099 351.14 105.9C351.14 120.89 339.79 131.87 324.44 131.87C309.09 131.87 297.74 120.89 297.74 105.9ZM340.1 105.9C340.1 96.5499 333.43 89.8799 324.44 89.8799C315.45 89.8799 308.78 96.5499 308.78 105.9C308.78 115.25 315.45 121.92 324.44 121.92C333.43 121.92 340.1 115.18 340.1 105.9Z" fill="white" stroke="#231815" stroke-width="1.42" stroke-miterlimit="10"/>
<path d="M354.9 105.9C354.9 90.9099 366.13 79.9299 381.36 79.9299C394.95 79.9299 404.05 88.1199 406.06 98.5599H394.89C393.74 93.8299 388.7 90.0599 381.6 90.0599C372.62 90.0599 365.94 96.6699 365.94 105.9C365.94 115.13 372.61 121.74 381.6 121.74C388.7 121.74 394.53 117.07 395.38 112.58H406.55C405.03 122.53 395.08 131.88 381.37 131.88C366.14 131.88 354.91 120.9 354.91 105.91L354.9 105.9Z" fill="white" stroke="#231815" stroke-width="1.42" stroke-miterlimit="10"/>
<path d="M440.15 121.08H420.97L417.51 130.67H406.1L425.28 81.21H436.75L455.93 130.67H443.61L440.15 121.08ZM436.75 111.49L430.56 94.26L424.37 111.49H436.75Z" fill="white" stroke="#231815" stroke-width="1.42" stroke-miterlimit="10"/>
<path d="M471.33 81.21V120.9H496.03V130.67H460.29V81.21H471.33Z" fill="white" stroke="#231815" stroke-width="1.42" stroke-miterlimit="10"/>
<path d="M233 121.92C241.831 121.92 248.99 114.761 248.99 105.93C248.99 97.0989 241.831 89.9399 233 89.9399C224.169 89.9399 217.01 97.0989 217.01 105.93C217.01 114.761 224.169 121.92 233 121.92Z" fill="#F8F1DE"/>
<mask id="mask0_56_1100" style="mask-type:luminance" maskUnits="userSpaceOnUse" x="217" y="89" width="32" height="33">
<path d="M233 121.92C241.831 121.92 248.99 114.761 248.99 105.93C248.99 97.0989 241.831 89.9399 233 89.9399C224.169 89.9399 217.01 97.0989 217.01 105.93C217.01 114.761 224.169 121.92 233 121.92Z" fill="white"/>
</mask>
<g mask="url(#mask0_56_1100)">
<path d="M245.57 95.1899L230.26 102.74L235.73 109.13L245.57 95.1899Z" fill="#EE7800" stroke="#231815" stroke-width="1.09" stroke-linecap="round" stroke-linejoin="round"/>
<path d="M220.42 116.68L235.73 109.13L230.26 102.74L220.42 116.68Z" fill="#0084C2" stroke="#231815" stroke-width="1.09" stroke-linecap="round" stroke-linejoin="round"/>
</g>
<path d="M233 121.92C241.831 121.92 248.99 114.761 248.99 105.93C248.99 97.0989 241.831 89.9399 233 89.9399C224.169 89.9399 217.01 97.0989 217.01 105.93C217.01 114.761 224.169 121.92 233 121.92Z" stroke="#231815" stroke-width="1.64" stroke-miterlimit="10"/>
<path d="M233 110.67C235.618 110.67 237.74 108.548 237.74 105.93C237.74 103.312 235.618 101.19 233 101.19C230.382 101.19 228.26 103.312 228.26 105.93C228.26 108.548 230.382 110.67 233 110.67Z" fill="#231815"/>
<path d="M233 89.95V96.14" stroke="#231815" stroke-width="1.64" stroke-miterlimit="10"/>
<path d="M217.01 105.93H223.21" stroke="#231815" stroke-width="1.64" stroke-miterlimit="10"/>
<path d="M242.79 105.93H248.99" stroke="#231815" stroke-width="1.64" stroke-miterlimit="10"/>
<path d="M233 115.73V121.92" stroke="#231815" stroke-width="1.64" stroke-miterlimit="10"/>
</g>
<defs>
<clipPath id="clip0_56_1100">
<rect width="553.27" height="296.31" fill="white"/>
</clipPath>
</defs>
</svg>
