<svg width="367" height="597" viewBox="0 0 367 597" fill="none" xmlns="http://www.w3.org/2000/svg">
<g clip-path="url(#clip0_69_1998)">
<circle cx="20" cy="26.5" r="18.8" fill="#D0B15E" stroke="#D0B15E" stroke-width="2.4"/>
<path d="M21.89 18.45H16.04V21.294H18.632V33.12H21.89V18.45Z" fill="white"/>
<path d="M67.34 18.32H74.26V21.48H56.98V18.32H63.9V15.56H57.92V5.4H73.32V15.56H67.34V18.32ZM61.28 8.56V12.42H69.96V8.56H61.28ZM89.1583 5H92.5383V13.84H89.1583V5ZM82.2383 11.32C80.8983 12.78 78.8383 13.86 76.3983 13.92V10.98C78.5983 10.86 80.0583 9.42 80.4583 7.98H76.6383V5.2H87.6783V7.98H83.8983C83.8583 8.28 83.7783 8.58 83.6983 8.9L88.2583 11.24L86.7383 13.74L82.2383 11.32ZM89.2183 15.56V14.44H92.5383V22.08H77.2583V14.44H80.5783V15.56H89.2183ZM80.5783 19.4H89.2183V18.18H80.5783V19.4Z" fill="#4C4036"/>
<path d="M61.46 50.26V47.964H56.336V45.864L60.746 38.85H63.868V45.864H65.366V47.964H63.868V50.26H61.46ZM58.772 45.864H61.46V41.468L58.772 45.864ZM70.2867 42.798C68.1447 42.798 66.6747 42.028 66.6747 40.586C66.6747 39.144 68.1447 38.374 70.2867 38.374C72.4287 38.374 73.8987 39.144 73.8987 40.586C73.8987 42.028 72.4287 42.798 70.2867 42.798ZM75.4667 44.968V41.72H74.3747V39.62H75.4667V38.5H77.8327V44.968H75.4667ZM70.2867 39.984C69.4467 39.984 68.9287 40.194 68.9287 40.586C68.9287 40.978 69.4467 41.188 70.2867 41.188C71.1267 41.188 71.6447 40.978 71.6447 40.586C71.6447 40.194 71.1267 39.984 70.2867 39.984ZM69.4467 48.972H77.9727V50.456H67.1507V47.292H75.5227V46.872H67.1227V45.388H69.1107V44.828H66.1847V43.134H71.6867C72.7927 43.134 74.0387 42.994 74.7807 42.714V44.394C74.0387 44.716 72.8347 44.828 71.6447 44.828H71.4347V45.388H77.8327V48.552H69.4467V48.972ZM91.7093 47.152C91.7093 49.224 89.7913 50.54 87.3693 50.54C84.9473 50.54 83.0293 49.224 83.0293 47.152C83.0293 45.57 84.3313 44.562 85.3393 44.352C84.4573 44.086 83.4213 43.106 83.4213 41.804C83.4213 40.012 85.0453 38.542 87.3693 38.542C89.7073 38.542 91.2893 40.04 91.2893 41.804C91.2893 43.106 90.2673 44.086 89.3993 44.352C90.4213 44.562 91.7093 45.57 91.7093 47.152ZM88.9093 41.902C88.9093 41.174 88.2793 40.614 87.3693 40.614C86.4873 40.614 85.8293 41.118 85.8293 41.846C85.8293 42.644 86.5153 43.204 87.3693 43.204C88.2513 43.204 88.9093 42.672 88.9093 41.902ZM89.2593 46.998C89.2593 46.144 88.4613 45.514 87.3693 45.514C86.2773 45.514 85.4793 46.144 85.4793 46.998C85.4793 47.824 86.2493 48.44 87.3693 48.44C88.4893 48.44 89.2593 47.824 89.2593 46.998ZM104.235 38.5V44.352H101.869V38.5H104.235ZM96.5909 38.514C98.9429 38.514 100.441 39.69 100.441 41.412C100.441 43.148 98.9429 44.31 96.5909 44.31C94.2389 44.31 92.7409 43.148 92.7409 41.412C92.7409 39.69 94.2389 38.514 96.5909 38.514ZM96.5909 40.376C95.6809 40.376 95.0789 40.782 95.0789 41.412C95.0789 42.042 95.6809 42.448 96.5909 42.448C97.5009 42.448 98.1029 42.042 98.1029 41.412C98.1029 40.782 97.5009 40.376 96.5909 40.376ZM104.235 44.772V48.342H96.0309V48.818H104.361V50.456H93.6929V46.886H101.897V46.41H93.6649V44.772H104.235ZM108.336 50.806C106.74 49.098 105.704 47.054 105.704 44.464C105.704 41.874 106.74 39.83 108.336 38.122H110.842C109.246 39.788 108.14 41.944 108.14 44.464C108.14 46.984 109.246 49.14 110.842 50.806H108.336ZM119.58 39.536V41.552H111.516V39.536H114.316V38.416H116.752V39.536H119.58ZM124.214 42.756V45.052H122.842V50.456H120.476V38.5H122.842V42.756H124.214ZM116.71 46.802V47.81C117.816 47.81 119.048 47.67 119.79 47.334V49.42C119.048 49.756 117.844 49.896 116.654 49.896H111.586V47.81H114.358V46.788C112.916 46.522 111.95 45.71 111.95 44.408C111.95 42.784 113.476 41.916 115.562 41.916C117.648 41.916 119.174 42.784 119.174 44.408C119.174 45.724 118.18 46.536 116.71 46.802ZM114.162 44.408C114.162 44.828 114.722 45.038 115.562 45.038C116.402 45.038 116.962 44.828 116.962 44.408C116.962 43.988 116.402 43.778 115.562 43.778C114.722 43.778 114.162 43.988 114.162 44.408ZM126.929 50.806H124.423C126.019 49.14 127.125 46.984 127.125 44.464C127.125 41.944 126.019 39.788 124.423 38.122H126.929C128.525 39.83 129.561 41.874 129.561 44.464C129.561 47.054 128.525 49.098 126.929 50.806ZM134.299 43.624C134.803 43.19 135.447 42.98 136.175 42.98C137.421 42.98 138.345 43.904 139.465 43.904C140.179 43.904 140.641 43.652 141.117 43.134V45.332C140.613 45.836 139.969 46.088 139.241 46.088C138.009 46.088 137.071 45.164 135.951 45.164C135.237 45.164 134.775 45.374 134.299 45.822V43.624ZM150.094 50.526C147.616 50.526 146.104 49.126 145.922 46.928H148.428C148.526 47.838 149.044 48.37 150.094 48.37C151.13 48.37 151.76 47.6 151.76 46.55C151.76 45.486 151.144 44.744 150.052 44.744C149.254 44.744 148.75 45.094 148.442 45.514H146.132L146.468 38.85H153.678V41.02H148.778L148.652 43.162C149.142 42.868 149.758 42.686 150.486 42.686C152.726 42.686 154.238 44.128 154.238 46.55C154.238 48.958 152.446 50.526 150.094 50.526ZM159.473 42.798C157.331 42.798 155.861 42.028 155.861 40.586C155.861 39.144 157.331 38.374 159.473 38.374C161.615 38.374 163.085 39.144 163.085 40.586C163.085 42.028 161.615 42.798 159.473 42.798ZM164.653 44.968V41.72H163.561V39.62H164.653V38.5H167.019V44.968H164.653ZM159.473 39.984C158.633 39.984 158.115 40.194 158.115 40.586C158.115 40.978 158.633 41.188 159.473 41.188C160.313 41.188 160.831 40.978 160.831 40.586C160.831 40.194 160.313 39.984 159.473 39.984ZM158.633 48.972H167.159V50.456H156.337V47.292H164.709V46.872H156.309V45.388H158.297V44.828H155.371V43.134H160.873C161.979 43.134 163.225 42.994 163.967 42.714V44.394C163.225 44.716 162.021 44.828 160.831 44.828H160.621V45.388H167.019V48.552H158.633V48.972ZM180.14 38.85V40.362L175.898 50.26H173.238L177.172 41.062H172.3V38.85H180.14ZM192.67 38.5V44.352H190.304V38.5H192.67ZM185.026 38.514C187.378 38.514 188.876 39.69 188.876 41.412C188.876 43.148 187.378 44.31 185.026 44.31C182.674 44.31 181.176 43.148 181.176 41.412C181.176 39.69 182.674 38.514 185.026 38.514ZM185.026 40.376C184.116 40.376 183.514 40.782 183.514 41.412C183.514 42.042 184.116 42.448 185.026 42.448C185.936 42.448 186.538 42.042 186.538 41.412C186.538 40.782 185.936 40.376 185.026 40.376ZM192.67 44.772V48.342H184.466V48.818H192.796V50.456H182.128V46.886H190.332V46.41H182.1V44.772H192.67ZM196.77 50.806C195.174 49.098 194.138 47.054 194.138 44.464C194.138 41.874 195.174 39.83 196.77 38.122H199.276C197.68 39.788 196.574 41.944 196.574 44.464C196.574 46.984 197.68 49.14 199.276 50.806H196.77ZM205.999 42.364C204.599 43.974 202.527 44.982 200.301 44.968V42.742C202.639 42.742 204.907 40.95 205.285 38.318L207.693 38.668C207.595 39.34 207.399 39.97 207.133 40.572L212.075 42.994L210.969 44.982L205.999 42.364ZM212.117 45.864V48.048H207.287V50.736H204.851V48.048H200.021V45.864H212.117ZM215.364 50.806H212.858C214.454 49.14 215.56 46.984 215.56 44.464C215.56 41.944 214.454 39.788 212.858 38.122H215.364C216.96 39.83 217.996 41.874 217.996 44.464C217.996 47.054 216.96 49.098 215.364 50.806ZM227.004 38.85V50.26H224.47V41.062H222.454V38.85H227.004ZM236.718 38.85V40.362L232.476 50.26H229.816L233.75 41.062H228.878V38.85H236.718ZM239.056 40.376C239.854 40.376 240.442 40.978 240.442 41.776C240.442 42.574 239.854 43.176 239.056 43.176C238.244 43.176 237.656 42.574 237.656 41.776C237.656 40.978 238.244 40.376 239.056 40.376ZM239.056 45.934C239.854 45.934 240.442 46.536 240.442 47.334C240.442 48.132 239.854 48.734 239.056 48.734C238.244 48.734 237.656 48.132 237.656 47.334C237.656 46.536 238.244 45.934 239.056 45.934ZM245.888 38.542C248.38 38.542 250.256 40.544 250.256 44.548C250.256 48.538 248.38 50.54 245.888 50.54C243.396 50.54 241.52 48.538 241.52 44.548C241.52 40.544 243.396 38.542 245.888 38.542ZM245.888 40.768C244.768 40.768 243.928 41.944 243.928 44.548C243.928 47.138 244.768 48.314 245.888 48.314C247.008 48.314 247.848 47.138 247.848 44.548C247.848 41.944 247.008 40.768 245.888 40.768ZM255.605 38.542C258.097 38.542 259.973 40.544 259.973 44.548C259.973 48.538 258.097 50.54 255.605 50.54C253.113 50.54 251.237 48.538 251.237 44.548C251.237 40.544 253.113 38.542 255.605 38.542ZM255.605 40.768C254.485 40.768 253.645 41.944 253.645 44.548C253.645 47.138 254.485 48.314 255.605 48.314C256.725 48.314 257.565 47.138 257.565 44.548C257.565 41.944 256.725 40.768 255.605 40.768ZM273.709 42.868V45.164H272.379V50.456H270.069V38.5H272.379V42.868H273.709ZM264.917 38.78V41.65C264.917 46.718 263.853 49.42 261.249 49.476V47.292C262.243 47.012 262.649 45.346 262.649 41.86V40.908H261.249V38.78H264.917ZM265.337 40.908V38.78H268.949V41.762C268.949 46.788 267.703 49.798 264.861 49.896V47.712C266.079 47.46 266.681 45.556 266.681 41.972V40.908H265.337ZM283.605 38.5H285.971V50.456H283.605V38.5ZM280.035 40.95C280.007 42.028 279.909 43.022 279.741 43.932L283.213 48.44L281.337 49.84L278.929 46.564C277.963 48.692 276.437 49.882 274.617 49.896V47.516C276.367 47.32 277.571 44.786 277.655 40.95H274.953V38.78H282.597V40.95H280.035Z" fill="#AFAFAF"/>
<circle cx="20" cy="111.5" r="18.8" fill="#D0B15E" stroke="#D0B15E" stroke-width="2.4"/>
<path d="M19.796 103.054C16.7 103.054 14.522 105.214 14.522 108.094H17.744C17.744 106.978 18.464 105.898 19.796 105.898C21.218 105.898 21.812 106.618 21.812 107.698C21.812 108.526 21.398 109.48 19.634 111.298L14.828 116.248V118.12H25.322V115.348H19.616L21.722 113.17C24.296 110.506 25.034 109.192 25.034 107.662C25.034 104.998 23.09 103.054 19.796 103.054Z" fill="white"/>
<path d="M70.2 90H73.58V107.08H70.2V98.68H66.6V95.52H70.2V90ZM64.76 90.46C64.76 92.72 64.6 94.78 64.28 96.62L69.24 104.46L66.34 106.26L63.12 100.86C61.74 104.32 59.58 106.26 56.98 106.28V102.76C59.6 102.46 61.32 97.48 61.32 90.34L64.76 90.46ZM88.9983 93.92V92.94H76.9983V90.2H92.2983V96.46H80.3383V97.44H92.4983V100.18H77.0383V93.92H88.9983ZM93.2983 101.24V104.24H89.6783V107.48H86.3183V104.24H82.9983V107.48H79.6383V104.24H76.0183V101.24H93.2983ZM113.602 90H116.982V99.24H113.602V90ZM106.722 96.02C105.262 97.8 103.142 99 100.682 99.12V96.1C103.382 95.78 105.262 93.4 105.322 90.08L108.722 90.28C108.722 91.4 108.522 92.48 108.142 93.5L112.882 96.44L111.162 98.88L106.722 96.02ZM101.702 107.08V99.84H116.982V107.08H101.702ZM105.082 102.62V104.3H113.602V102.62H105.082ZM137.54 96.24V99.52H135.54V107.08H132.16V90H135.54V96.24H137.54ZM127.52 90.46C127.52 93.04 127.28 95.36 126.86 97.36L131.8 104.32L129.04 106.26L125.64 101.28C124.24 104.48 122.1 106.26 119.5 106.28V102.8C122.24 102.48 124.06 97.48 124.08 90.34L127.52 90.46ZM160.464 90V99.18H157.084V90H160.464ZM155.104 90.2V98.2H144.504V90.2H155.104ZM151.764 95.46V92.94H147.844V95.46H151.764ZM161.044 104.56L160.184 107.28L152.624 105.3C150.704 106.58 147.864 107.08 145.024 107.08V104.32C147.524 104.32 149.924 103.84 151.024 102.7H145.204V99.98H151.104V98.82H154.544V99.98H160.464V102.7H154.724L154.544 103.12L161.044 104.56ZM181.668 102.66V98.54H179.848V95.56H181.668V94.22H179.848V91.24H181.668V90H184.988V102.66H181.668ZM179.048 90.2V99.92H168.868V90.2H179.048ZM175.728 97.06V93.06H172.188V97.06H175.728ZM173.148 104.06H185.228V107.08H169.708V101.1H173.148V104.06ZM200.646 90H204.026V99H200.646V95.38H198.366V92.98H195.146C195.106 93.32 195.026 93.66 194.926 94L199.466 96.46L197.906 98.94L193.506 96.44C192.186 97.96 190.146 99.06 187.726 99.12V96.18C189.906 96.06 191.346 94.5 191.706 92.98H187.966V90.2H198.846V92.54H200.646V90ZM200.706 100.7V99.6H204.026V107.08H188.746V99.6H192.066V100.7H200.706ZM192.066 104.44H200.706V103.28H192.066V104.44Z" fill="#4C4036"/>
<path d="M60.634 135.526C58.156 135.526 56.644 134.126 56.462 131.928H58.968C59.066 132.838 59.584 133.37 60.634 133.37C61.67 133.37 62.3 132.6 62.3 131.55C62.3 130.486 61.684 129.744 60.592 129.744C59.794 129.744 59.29 130.094 58.982 130.514H56.672L57.008 123.85H64.218V126.02H59.318L59.192 128.162C59.682 127.868 60.298 127.686 61.026 127.686C63.266 127.686 64.778 129.128 64.778 131.55C64.778 133.958 62.986 135.526 60.634 135.526ZM70.0132 127.798C67.8712 127.798 66.4012 127.028 66.4012 125.586C66.4012 124.144 67.8712 123.374 70.0132 123.374C72.1552 123.374 73.6252 124.144 73.6252 125.586C73.6252 127.028 72.1552 127.798 70.0132 127.798ZM75.1932 129.968V126.72H74.1012V124.62H75.1932V123.5H77.5592V129.968H75.1932ZM70.0132 124.984C69.1732 124.984 68.6552 125.194 68.6552 125.586C68.6552 125.978 69.1732 126.188 70.0132 126.188C70.8532 126.188 71.3712 125.978 71.3712 125.586C71.3712 125.194 70.8532 124.984 70.0132 124.984ZM69.1732 133.972H77.6992V135.456H66.8772V132.292H75.2492V131.872H66.8492V130.388H68.8372V129.828H65.9112V128.134H71.4132C72.5192 128.134 73.7652 127.994 74.5072 127.714V129.394C73.7652 129.716 72.5612 129.828 71.3712 129.828H71.1612V130.388H77.5592V133.552H69.1732V133.972ZM91.4359 132.152C91.4359 134.224 89.5179 135.54 87.0959 135.54C84.6739 135.54 82.7559 134.224 82.7559 132.152C82.7559 130.57 84.0579 129.562 85.0659 129.352C84.1839 129.086 83.1479 128.106 83.1479 126.804C83.1479 125.012 84.7719 123.542 87.0959 123.542C89.4339 123.542 91.0159 125.04 91.0159 126.804C91.0159 128.106 89.9939 129.086 89.1259 129.352C90.1479 129.562 91.4359 130.57 91.4359 132.152ZM88.6359 126.902C88.6359 126.174 88.0059 125.614 87.0959 125.614C86.2139 125.614 85.5559 126.118 85.5559 126.846C85.5559 127.644 86.2419 128.204 87.0959 128.204C87.9779 128.204 88.6359 127.672 88.6359 126.902ZM88.9859 131.998C88.9859 131.144 88.1879 130.514 87.0959 130.514C86.0039 130.514 85.2059 131.144 85.2059 131.998C85.2059 132.824 85.9759 133.44 87.0959 133.44C88.2159 133.44 88.9859 132.824 88.9859 131.998ZM103.961 123.5V129.352H101.595V123.5H103.961ZM96.3175 123.514C98.6695 123.514 100.167 124.69 100.167 126.412C100.167 128.148 98.6695 129.31 96.3175 129.31C93.9655 129.31 92.4675 128.148 92.4675 126.412C92.4675 124.69 93.9655 123.514 96.3175 123.514ZM96.3175 125.376C95.4075 125.376 94.8055 125.782 94.8055 126.412C94.8055 127.042 95.4075 127.448 96.3175 127.448C97.2275 127.448 97.8295 127.042 97.8295 126.412C97.8295 125.782 97.2275 125.376 96.3175 125.376ZM103.961 129.772V133.342H95.7575V133.818H104.087V135.456H93.4195V131.886H101.623V131.41H93.3915V129.772H103.961ZM108.062 135.806C106.466 134.098 105.43 132.054 105.43 129.464C105.43 126.874 106.466 124.83 108.062 123.122H110.568C108.972 124.788 107.866 126.944 107.866 129.464C107.866 131.984 108.972 134.14 110.568 135.806H108.062ZM118.537 129.072H123.409V130.962H111.313V129.072H116.185V128.358H112.041V123.5H122.681V128.358H118.537V129.072ZM114.379 125.32V126.538H120.343V125.32H114.379ZM111.957 133.454V131.578H122.709V135.596H120.315V133.454H111.957ZM126.656 135.806H124.15C125.746 134.14 126.852 131.984 126.852 129.464C126.852 126.944 125.746 124.788 124.15 123.122H126.656C128.252 124.83 129.288 126.874 129.288 129.464C129.288 132.054 128.252 134.098 126.656 135.806ZM134.026 128.624C134.53 128.19 135.174 127.98 135.902 127.98C137.148 127.98 138.072 128.904 139.192 128.904C139.906 128.904 140.368 128.652 140.844 128.134V130.332C140.34 130.836 139.696 131.088 138.968 131.088C137.736 131.088 136.798 130.164 135.678 130.164C134.964 130.164 134.502 130.374 134.026 130.822V128.624ZM149.821 135.526C147.343 135.526 145.831 134.126 145.649 131.928H148.155C148.253 132.838 148.771 133.37 149.821 133.37C150.857 133.37 151.487 132.6 151.487 131.55C151.487 130.486 150.871 129.744 149.779 129.744C148.981 129.744 148.477 130.094 148.169 130.514H145.859L146.195 123.85H153.405V126.02H148.505L148.379 128.162C148.869 127.868 149.485 127.686 150.213 127.686C152.453 127.686 153.965 129.128 153.965 131.55C153.965 133.958 152.173 135.526 149.821 135.526ZM159.2 127.798C157.058 127.798 155.588 127.028 155.588 125.586C155.588 124.144 157.058 123.374 159.2 123.374C161.342 123.374 162.812 124.144 162.812 125.586C162.812 127.028 161.342 127.798 159.2 127.798ZM164.38 129.968V126.72H163.288V124.62H164.38V123.5H166.746V129.968H164.38ZM159.2 124.984C158.36 124.984 157.842 125.194 157.842 125.586C157.842 125.978 158.36 126.188 159.2 126.188C160.04 126.188 160.558 125.978 160.558 125.586C160.558 125.194 160.04 124.984 159.2 124.984ZM158.36 133.972H166.886V135.456H156.064V132.292H164.436V131.872H156.036V130.388H158.024V129.828H155.098V128.134H160.6C161.706 128.134 162.952 127.994 163.694 127.714V129.394C162.952 129.716 161.748 129.828 160.558 129.828H160.348V130.388H166.746V133.552H158.36V133.972ZM176.03 123.542C178.592 123.542 180.104 125.054 180.104 127.126C180.104 128.316 179.53 129.338 177.528 131.41L175.89 133.104H180.328V135.26H172.166V133.804L175.904 129.954C177.276 128.54 177.598 127.798 177.598 127.154C177.598 126.314 177.136 125.754 176.03 125.754C174.994 125.754 174.434 126.594 174.434 127.462H171.928C171.928 125.222 173.622 123.542 176.03 123.542ZM185.648 123.542C188.14 123.542 190.016 125.544 190.016 129.548C190.016 133.538 188.14 135.54 185.648 135.54C183.156 135.54 181.28 133.538 181.28 129.548C181.28 125.544 183.156 123.542 185.648 123.542ZM185.648 125.768C184.528 125.768 183.688 126.944 183.688 129.548C183.688 132.138 184.528 133.314 185.648 133.314C186.768 133.314 187.608 132.138 187.608 129.548C187.608 126.944 186.768 125.768 185.648 125.768ZM202.688 123.5V129.352H200.322V123.5H202.688ZM195.044 123.514C197.396 123.514 198.894 124.69 198.894 126.412C198.894 128.148 197.396 129.31 195.044 129.31C192.692 129.31 191.194 128.148 191.194 126.412C191.194 124.69 192.692 123.514 195.044 123.514ZM195.044 125.376C194.134 125.376 193.532 125.782 193.532 126.412C193.532 127.042 194.134 127.448 195.044 127.448C195.954 127.448 196.556 127.042 196.556 126.412C196.556 125.782 195.954 125.376 195.044 125.376ZM202.688 129.772V133.342H194.484V133.818H202.814V135.456H192.146V131.886H200.35V131.41H192.118V129.772H202.688ZM206.789 135.806C205.193 134.098 204.157 132.054 204.157 129.464C204.157 126.874 205.193 124.83 206.789 123.122H209.295C207.699 124.788 206.593 126.944 206.593 129.464C206.593 131.984 207.699 134.14 209.295 135.806H206.789ZM218.033 124.536V126.552H209.969V124.536H212.769V123.416H215.205V124.536H218.033ZM222.667 127.756V130.052H221.295V135.456H218.929V123.5H221.295V127.756H222.667ZM215.163 131.802V132.81C216.269 132.81 217.501 132.67 218.243 132.334V134.42C217.501 134.756 216.297 134.896 215.107 134.896H210.039V132.81H212.811V131.788C211.369 131.522 210.403 130.71 210.403 129.408C210.403 127.784 211.929 126.916 214.015 126.916C216.101 126.916 217.627 127.784 217.627 129.408C217.627 130.724 216.633 131.536 215.163 131.802ZM212.615 129.408C212.615 129.828 213.175 130.038 214.015 130.038C214.855 130.038 215.415 129.828 215.415 129.408C215.415 128.988 214.855 128.778 214.015 128.778C213.175 128.778 212.615 128.988 212.615 129.408ZM225.382 135.806H222.876C224.472 134.14 225.578 131.984 225.578 129.464C225.578 126.944 224.472 124.788 222.876 123.122H225.382C226.978 124.83 228.014 126.874 228.014 129.464C228.014 132.054 226.978 134.098 225.382 135.806Z" fill="#AFAFAF"/>
<circle cx="20" cy="196.5" r="18.8" fill="#D0B15E" stroke="#D0B15E" stroke-width="2.4"/>
<path d="M19.868 188.054C16.862 188.054 14.756 190.07 14.756 192.86H17.978C17.978 191.816 18.572 190.79 19.85 190.79C21.074 190.79 21.794 191.456 21.794 192.536C21.794 193.652 21.002 194.372 19.67 194.372H18.212V197.036H19.67C21.2 197.036 22.226 197.684 22.226 198.908C22.226 199.988 21.326 200.726 19.976 200.726C18.608 200.726 17.87 200.024 17.744 198.854H14.522C14.756 201.68 16.754 203.48 19.976 203.48C23.018 203.48 25.412 201.716 25.412 198.89C25.412 197 23.9 195.83 22.55 195.614C23.774 195.398 25.016 194.156 25.016 192.464C25.016 189.836 22.91 188.054 19.868 188.054Z" fill="white"/>
<path d="M63.08 183.2C61.78 184.86 59.76 185.96 57.28 186V182.98C59.26 182.86 60.68 181.42 61.14 179.54H57.64V176.5H61.2V174.78H64.64V176.5H68.2V179.54H64.62C64.58 179.9 64.5 180.24 64.4 180.58L69.04 183.52L67.22 185.98L63.08 183.2ZM70.16 175H73.54V192.08H70.16V175ZM64.54 188.18H64.76C66.34 188.18 68.12 187.98 69.18 187.5V190.6C68.12 191.08 66.4 191.28 64.7 191.28H56.98V188.18H61.18V185.64H64.54V188.18ZM91.9983 181.72L84.1583 179.96C82.2783 181 79.5983 181.6 76.7983 181.64V179.02C79.1583 178.98 81.6783 178.48 82.7583 177.58H76.9983V175H92.3183V177.58H86.4983C86.4583 177.68 86.4183 177.78 86.3583 177.88L92.7583 179.2L91.9983 181.72ZM86.3383 182.36H93.2983V184.96H76.0183V182.36H82.9783V180.9H86.3383V182.36ZM84.6583 185.56C89.2783 185.56 92.4983 186.48 92.4983 188.94C92.4983 191.4 89.2783 192.32 84.6583 192.32C80.0383 192.32 76.8183 191.4 76.8183 188.94C76.8183 186.48 80.0383 185.56 84.6583 185.56ZM84.6583 189.8C87.1583 189.8 88.8983 189.56 88.8983 188.94C88.8983 188.34 87.1583 188.08 84.6583 188.08C82.1583 188.08 80.4183 188.34 80.4183 188.94C80.4183 189.56 82.1583 189.8 84.6583 189.8ZM113.682 187.66V180.32H110.602V177.22H113.682V175H117.062V187.66H113.682ZM106.342 181.98C104.922 184 102.862 185.38 100.422 185.52V182.38C103.082 182.06 104.882 178.9 104.942 175.08L108.342 175.28C108.342 176.66 108.122 178.02 107.682 179.26L112.462 183.04L110.382 185.34L106.342 181.98ZM105.222 189.06H117.302V192.08H101.782V186.1H105.222V189.06ZM135.54 177.4H137.54V180.48H135.54V183.56H132.16V175H135.54V177.4ZM130.3 175.2V183.2H119.88V175.2H123.16V176.6H127.02V175.2H130.3ZM123.16 180.58H127.02V179.16H123.16V180.58ZM123.8 189.16V189.82H135.72V192.08H120.48V187.08H132.22V186.42H120.44V184.16H135.54V189.16H123.8Z" fill="#4C4036"/>
<path d="M60.634 220.526C58.156 220.526 56.644 219.126 56.462 216.928H58.968C59.066 217.838 59.584 218.37 60.634 218.37C61.67 218.37 62.3 217.6 62.3 216.55C62.3 215.486 61.684 214.744 60.592 214.744C59.794 214.744 59.29 215.094 58.982 215.514H56.672L57.008 208.85H64.218V211.02H59.318L59.192 213.162C59.682 212.868 60.298 212.686 61.026 212.686C63.266 212.686 64.778 214.128 64.778 216.55C64.778 218.958 62.986 220.526 60.634 220.526ZM70.0132 212.798C67.8712 212.798 66.4012 212.028 66.4012 210.586C66.4012 209.144 67.8712 208.374 70.0132 208.374C72.1552 208.374 73.6252 209.144 73.6252 210.586C73.6252 212.028 72.1552 212.798 70.0132 212.798ZM75.1932 214.968V211.72H74.1012V209.62H75.1932V208.5H77.5592V214.968H75.1932ZM70.0132 209.984C69.1732 209.984 68.6552 210.194 68.6552 210.586C68.6552 210.978 69.1732 211.188 70.0132 211.188C70.8532 211.188 71.3712 210.978 71.3712 210.586C71.3712 210.194 70.8532 209.984 70.0132 209.984ZM69.1732 218.972H77.6992V220.456H66.8772V217.292H75.2492V216.872H66.8492V215.388H68.8372V214.828H65.9112V213.134H71.4132C72.5192 213.134 73.7652 212.994 74.5072 212.714V214.394C73.7652 214.716 72.5612 214.828 71.3712 214.828H71.1612V215.388H77.5592V218.552H69.1732V218.972ZM86.8439 208.542C89.4059 208.542 90.9179 210.054 90.9179 212.126C90.9179 213.316 90.3439 214.338 88.3419 216.41L86.7039 218.104H91.1419V220.26H82.9799V218.804L86.7179 214.954C88.0899 213.54 88.4119 212.798 88.4119 212.154C88.4119 211.314 87.9499 210.754 86.8439 210.754C85.8079 210.754 85.2479 211.594 85.2479 212.462H82.7419C82.7419 210.222 84.4359 208.542 86.8439 208.542ZM96.0977 208.542C98.4637 208.542 100.102 209.928 100.102 211.972C100.102 213.288 99.1357 214.254 98.1837 214.422C99.2337 214.59 100.41 215.5 100.41 216.97C100.41 219.168 98.5477 220.54 96.1817 220.54C93.6757 220.54 92.1217 219.14 91.9397 216.942H94.4457C94.5437 217.852 95.1177 218.398 96.1817 218.398C97.2317 218.398 97.9317 217.824 97.9317 216.984C97.9317 216.032 97.1337 215.528 95.9437 215.528H94.8097V213.456H95.9437C96.9797 213.456 97.5957 212.896 97.5957 212.028C97.5957 211.188 97.0357 210.67 96.0837 210.67C95.0897 210.67 94.6277 211.468 94.6277 212.28H92.1217C92.1217 210.11 93.7597 208.542 96.0977 208.542ZM113.064 208.5V214.352H110.698V208.5H113.064ZM105.42 208.514C107.772 208.514 109.27 209.69 109.27 211.412C109.27 213.148 107.772 214.31 105.42 214.31C103.068 214.31 101.57 213.148 101.57 211.412C101.57 209.69 103.068 208.514 105.42 208.514ZM105.42 210.376C104.51 210.376 103.908 210.782 103.908 211.412C103.908 212.042 104.51 212.448 105.42 212.448C106.33 212.448 106.932 212.042 106.932 211.412C106.932 210.782 106.33 210.376 105.42 210.376ZM113.064 214.772V218.342H104.86V218.818H113.19V220.456H102.522V216.886H110.726V216.41H102.494V214.772H113.064ZM117.164 220.806C115.568 219.098 114.532 217.054 114.532 214.464C114.532 211.874 115.568 209.83 117.164 208.122H119.67C118.074 209.788 116.968 211.944 116.968 214.464C116.968 216.984 118.074 219.14 119.67 220.806H117.164ZM131.755 208.5V212.476H129.361V210.446H121.115V208.5H131.755ZM132.511 212.924V214.856H120.415V212.924H132.511ZM131.811 215.57V220.456H121.115V215.57H131.811ZM123.453 218.608H129.473V217.418H123.453V218.608ZM135.758 220.806H133.252C134.848 219.14 135.954 216.984 135.954 214.464C135.954 211.944 134.848 209.788 133.252 208.122H135.758C137.354 209.83 138.39 211.874 138.39 214.464C138.39 217.054 137.354 219.098 135.758 220.806Z" fill="#AFAFAF"/>
<circle cx="20" cy="281.5" r="18.8" fill="#D0B15E" stroke="#D0B15E" stroke-width="2.4"/>
<path d="M20.02 288.12H23.116V285.168H25.042V282.468H23.116V273.45H19.102L13.432 282.468V285.168H20.02V288.12ZM16.564 282.468L20.02 276.816V282.468H16.564Z" fill="white"/>
<path d="M73.5 260V268.36H70.12V260H73.5ZM63.18 265.62C61.72 267.22 59.62 268.3 57.2 268.42V265.48C59.9 265.16 61.8 263.06 61.86 260.08L65.24 260.28C65.24 261.32 65.04 262.32 64.66 263.24L69.36 265.72L67.8 268.16L63.18 265.62ZM61.58 274.74H73.68V277.08H58.24V271.98H70.16V271.3H58.2V268.96H73.5V274.06H61.58V274.74ZM86.9583 263.64H89.2383V260H92.6183V272.66H89.2383V266.58H86.9583V263.64ZM82.1183 267.36C80.7983 269.14 78.7583 270.42 76.3183 270.48V267.42C78.6183 267.24 80.0583 265.26 80.3583 263.08H76.5583V260.2H87.4383V263.08H83.7583C83.7183 263.62 83.6183 264.16 83.4583 264.68L88.1783 267.94L86.2783 270.34L82.1183 267.36ZM80.7783 274.06H92.8583V277.08H77.3383V271.1H80.7783V274.06ZM107.977 271.66V263.5H95.9366V260.4H111.437V271.66H107.977ZM106.257 273.38H112.337V276.48H95.0566V273.38H97.6766V267.44H101.077V273.38H102.857V267.44H106.257V273.38ZM122.735 267.2C118.235 267.2 114.895 266.06 114.895 263.46C114.895 260.86 118.235 259.72 122.735 259.72C127.235 259.72 130.575 260.86 130.575 263.46C130.575 266.06 127.235 267.2 122.735 267.2ZM122.735 262.3C120.175 262.3 118.495 262.72 118.495 263.46C118.495 264.22 120.175 264.62 122.735 264.62C125.295 264.62 126.975 264.22 126.975 263.46C126.975 262.72 125.295 262.3 122.735 262.3ZM131.375 270.48H127.615V271.76H130.375V277.28H126.955V274.42H115.015V271.76H117.855V270.48H114.095V267.8H131.375V270.48ZM124.295 271.76V270.48H121.175V271.76H124.295Z" fill="#4C4036"/>
<path d="M60.634 305.526C58.156 305.526 56.644 304.126 56.462 301.928H58.968C59.066 302.838 59.584 303.37 60.634 303.37C61.67 303.37 62.3 302.6 62.3 301.55C62.3 300.486 61.684 299.744 60.592 299.744C59.794 299.744 59.29 300.094 58.982 300.514H56.672L57.008 293.85H64.218V296.02H59.318L59.192 298.162C59.682 297.868 60.298 297.686 61.026 297.686C63.266 297.686 64.778 299.128 64.778 301.55C64.778 303.958 62.986 305.526 60.634 305.526ZM70.0132 297.798C67.8712 297.798 66.4012 297.028 66.4012 295.586C66.4012 294.144 67.8712 293.374 70.0132 293.374C72.1552 293.374 73.6252 294.144 73.6252 295.586C73.6252 297.028 72.1552 297.798 70.0132 297.798ZM75.1932 299.968V296.72H74.1012V294.62H75.1932V293.5H77.5592V299.968H75.1932ZM70.0132 294.984C69.1732 294.984 68.6552 295.194 68.6552 295.586C68.6552 295.978 69.1732 296.188 70.0132 296.188C70.8532 296.188 71.3712 295.978 71.3712 295.586C71.3712 295.194 70.8532 294.984 70.0132 294.984ZM69.1732 303.972H77.6992V305.456H66.8772V302.292H75.2492V301.872H66.8492V300.388H68.8372V299.828H65.9112V298.134H71.4132C72.5192 298.134 73.7652 297.994 74.5072 297.714V299.394C73.7652 299.716 72.5612 299.828 71.3712 299.828H71.1612V300.388H77.5592V303.552H69.1732V303.972ZM86.8439 293.542C89.4059 293.542 90.9179 295.054 90.9179 297.126C90.9179 298.316 90.3439 299.338 88.3419 301.41L86.7039 303.104H91.1419V305.26H82.9799V303.804L86.7179 299.954C88.0899 298.54 88.4119 297.798 88.4119 297.154C88.4119 296.314 87.9499 295.754 86.8439 295.754C85.8079 295.754 85.2479 296.594 85.2479 297.462H82.7419C82.7419 295.222 84.4359 293.542 86.8439 293.542ZM93.5917 305.26L96.1817 301.396C96.1117 301.424 95.9857 301.452 95.8597 301.452C93.6337 301.452 91.7997 299.898 91.7997 297.588C91.7997 295.152 93.7457 293.584 96.1257 293.584C98.5057 293.584 100.452 295.138 100.452 297.574C100.452 298.68 100.088 299.534 99.4157 300.598L96.4757 305.26H93.5917ZM96.1257 299.38C97.2597 299.38 97.9737 298.582 97.9737 297.56C97.9737 296.538 97.2597 295.74 96.1257 295.74C94.9917 295.74 94.2777 296.538 94.2777 297.56C94.2777 298.582 94.9917 299.38 96.1257 299.38ZM113.009 293.5V299.352H110.643V293.5H113.009ZM105.365 293.514C107.717 293.514 109.215 294.69 109.215 296.412C109.215 298.148 107.717 299.31 105.365 299.31C103.013 299.31 101.515 298.148 101.515 296.412C101.515 294.69 103.013 293.514 105.365 293.514ZM105.365 295.376C104.455 295.376 103.853 295.782 103.853 296.412C103.853 297.042 104.455 297.448 105.365 297.448C106.275 297.448 106.877 297.042 106.877 296.412C106.877 295.782 106.275 295.376 105.365 295.376ZM113.009 299.772V303.342H104.805V303.818H113.135V305.456H102.467V301.886H110.671V301.41H102.439V299.772H113.009ZM117.11 305.806C115.514 304.098 114.478 302.054 114.478 299.464C114.478 296.874 115.514 294.83 117.11 293.122H119.616C118.02 294.788 116.914 296.944 116.914 299.464C116.914 301.984 118.02 304.14 119.616 305.806H117.11ZM127.584 299.072H132.456V300.962H120.36V299.072H125.232V298.358H121.088V293.5H131.728V298.358H127.584V299.072ZM123.426 295.32V296.538H129.39V295.32H123.426ZM121.004 303.454V301.578H131.756V305.596H129.362V303.454H121.004ZM135.703 305.806H133.197C134.793 304.14 135.899 301.984 135.899 299.464C135.899 296.944 134.793 294.788 133.197 293.122H135.703C137.299 294.83 138.335 296.874 138.335 299.464C138.335 302.054 137.299 304.098 135.703 305.806ZM143.073 298.624C143.577 298.19 144.221 297.98 144.949 297.98C146.195 297.98 147.119 298.904 148.239 298.904C148.953 298.904 149.415 298.652 149.891 298.134V300.332C149.387 300.836 148.743 301.088 148.015 301.088C146.783 301.088 145.845 300.164 144.725 300.164C144.011 300.164 143.549 300.374 143.073 300.822V298.624ZM162.578 293.85V295.362L158.336 305.26H155.676L159.61 296.062H154.738V293.85H162.578ZM167.646 297.798C165.504 297.798 164.034 297.028 164.034 295.586C164.034 294.144 165.504 293.374 167.646 293.374C169.788 293.374 171.258 294.144 171.258 295.586C171.258 297.028 169.788 297.798 167.646 297.798ZM172.826 299.968V296.72H171.734V294.62H172.826V293.5H175.192V299.968H172.826ZM167.646 294.984C166.806 294.984 166.288 295.194 166.288 295.586C166.288 295.978 166.806 296.188 167.646 296.188C168.486 296.188 169.004 295.978 169.004 295.586C169.004 295.194 168.486 294.984 167.646 294.984ZM166.806 303.972H175.332V305.456H164.51V302.292H172.882V301.872H164.482V300.388H166.47V299.828H163.544V298.134H169.046C170.152 298.134 171.398 297.994 172.14 297.714V299.394C171.398 299.716 170.194 299.828 169.004 299.828H168.794V300.388H175.192V303.552H166.806V303.972ZM184.938 293.85V305.26H182.404V296.062H180.388V293.85H184.938ZM194.653 293.85V295.362L190.411 305.26H187.751L191.685 296.062H186.813V293.85H194.653ZM207.182 293.5V299.352H204.816V293.5H207.182ZM199.538 293.514C201.89 293.514 203.388 294.69 203.388 296.412C203.388 298.148 201.89 299.31 199.538 299.31C197.186 299.31 195.688 298.148 195.688 296.412C195.688 294.69 197.186 293.514 199.538 293.514ZM199.538 295.376C198.628 295.376 198.026 295.782 198.026 296.412C198.026 297.042 198.628 297.448 199.538 297.448C200.448 297.448 201.05 297.042 201.05 296.412C201.05 295.782 200.448 295.376 199.538 295.376ZM207.182 299.772V303.342H198.978V303.818H207.308V305.456H196.64V301.886H204.844V301.41H196.612V299.772H207.182ZM211.283 305.806C209.687 304.098 208.651 302.054 208.651 299.464C208.651 296.874 209.687 294.83 211.283 293.122H213.789C212.193 294.788 211.087 296.944 211.087 299.464C211.087 301.984 212.193 304.14 213.789 305.806H211.283ZM221.758 299.072H226.63V300.962H214.534V299.072H219.406V298.358H215.262V293.5H225.902V298.358H221.758V299.072ZM217.6 295.32V296.538H223.564V295.32H217.6ZM215.178 303.454V301.578H225.93V305.596H223.536V303.454H215.178ZM229.877 305.806H227.371C228.967 304.14 230.073 301.984 230.073 299.464C230.073 296.944 228.967 294.788 227.371 293.122H229.877C231.473 294.83 232.509 296.874 232.509 299.464C232.509 302.054 231.473 304.098 229.877 305.806Z" fill="#AFAFAF"/>
<circle cx="20" cy="366.5" r="18.8" fill="#D0B15E" stroke="#D0B15E" stroke-width="2.4"/>
<path d="M19.958 373.462C22.982 373.462 25.286 371.446 25.286 368.35C25.286 365.236 23.342 363.382 20.462 363.382C19.526 363.382 18.734 363.616 18.104 363.994L18.266 361.24H24.566V358.45H15.296L14.864 367.018H17.834C18.23 366.478 18.878 366.028 19.904 366.028C21.308 366.028 22.1 366.982 22.1 368.35C22.1 369.7 21.29 370.69 19.958 370.69C18.608 370.69 17.942 370.006 17.816 368.836H14.594C14.828 371.662 16.772 373.462 19.958 373.462Z" fill="white"/>
<path d="M70.82 345H73.98V362.08H70.82V354.48H69.4V361.78H66.28V345.08H69.4V351.28H70.82V345ZM60.58 358.3H61.5C62.84 358.3 64.44 358.1 65.48 357.72V360.68C64.46 361.1 62.64 361.28 61.2 361.28H57.28V345.36H60.58V358.3ZM92.2983 345.2V354.22H77.0183V345.2H80.3183V346.74H88.9983V345.2H92.2983ZM80.3183 351.24H88.9983V349.68H80.3183V351.24ZM93.2983 355.56V358.66H86.3983V362.48H82.9183V358.66H76.0183V355.56H93.2983ZM111.457 349.32V351.86H95.9366V349.32H98.5566V347.54H96.1166V345H111.277V347.54H108.837V349.32H111.457ZM101.917 347.54V349.32H105.477V347.54H101.917ZM112.337 355.2H105.377V356.1H111.337V362.08H96.0566V356.1H102.017V355.2H95.0566V352.64H112.337V355.2ZM107.997 359.6V358.58H99.3966V359.6H107.997ZM127.375 354.76V352.94H125.835V350.24H127.375V349.08H125.835V346.38H127.375V345H130.695V354.76H127.375ZM125.355 353.96C124.475 354.24 122.835 354.4 121.215 354.4H114.215V351.74H115.615V347.88H114.335V345.2H125.095V347.88H123.775V351.64C124.395 351.58 124.935 351.48 125.355 351.36V353.96ZM118.815 347.88V351.74H120.575V347.88H118.815ZM123.055 355.04C127.415 355.04 130.855 355.96 130.855 358.66C130.855 361.36 127.415 362.28 123.055 362.28C118.695 362.28 115.255 361.36 115.255 358.66C115.255 355.96 118.695 355.04 123.055 355.04ZM123.055 359.66C125.355 359.66 127.215 359.4 127.215 358.66C127.215 357.94 125.355 357.68 123.055 357.68C120.755 357.68 118.895 357.94 118.895 358.66C118.895 359.4 120.755 359.66 123.055 359.66ZM144.873 346.48V349.36H133.193V346.48H137.273V344.88H140.753V346.48H144.873ZM146.313 345H149.693V362.08H146.313V345ZM140.713 358.3H140.913C142.493 358.3 144.273 358.1 145.333 357.62V360.6C144.273 361.08 142.553 361.28 140.853 361.28H133.133V358.3H137.333V356.86C135.233 356.46 133.833 355.3 133.833 353.44C133.833 351.12 136.033 349.88 139.053 349.88C142.073 349.88 144.273 351.12 144.273 353.44C144.273 355.32 142.853 356.48 140.713 356.86V358.3ZM136.993 353.44C136.993 354.04 137.833 354.34 139.053 354.34C140.273 354.34 141.113 354.04 141.113 353.44C141.113 352.84 140.273 352.54 139.053 352.54C137.833 352.54 136.993 352.84 136.993 353.44Z" fill="#4C4036"/>
<path d="M64.344 378.85V380.362L60.102 390.26H57.442L61.376 381.062H56.504V378.85H64.344ZM69.4117 382.798C67.2697 382.798 65.7997 382.028 65.7997 380.586C65.7997 379.144 67.2697 378.374 69.4117 378.374C71.5537 378.374 73.0237 379.144 73.0237 380.586C73.0237 382.028 71.5537 382.798 69.4117 382.798ZM74.5917 384.968V381.72H73.4997V379.62H74.5917V378.5H76.9577V384.968H74.5917ZM69.4117 379.984C68.5717 379.984 68.0537 380.194 68.0537 380.586C68.0537 380.978 68.5717 381.188 69.4117 381.188C70.2517 381.188 70.7697 380.978 70.7697 380.586C70.7697 380.194 70.2517 379.984 69.4117 379.984ZM68.5717 388.972H77.0977V390.456H66.2757V387.292H74.6477V386.872H66.2477V385.388H68.2357V384.828H65.3097V383.134H70.8117C71.9177 383.134 73.1637 382.994 73.9057 382.714V384.394C73.1637 384.716 71.9597 384.828 70.7697 384.828H70.5597V385.388H76.9577V388.552H68.5717V388.972ZM86.7043 378.85V390.26H84.1703V381.062H82.1543V378.85H86.7043ZM96.4188 378.85V380.362L92.1768 390.26H89.5168L93.4508 381.062H88.5788V378.85H96.4188ZM108.948 378.5V384.352H106.582V378.5H108.948ZM101.304 378.514C103.656 378.514 105.154 379.69 105.154 381.412C105.154 383.148 103.656 384.31 101.304 384.31C98.9524 384.31 97.4544 383.148 97.4544 381.412C97.4544 379.69 98.9524 378.514 101.304 378.514ZM101.304 380.376C100.394 380.376 99.7924 380.782 99.7924 381.412C99.7924 382.042 100.394 382.448 101.304 382.448C102.214 382.448 102.816 382.042 102.816 381.412C102.816 380.782 102.214 380.376 101.304 380.376ZM108.948 384.772V388.342H100.744V388.818H109.074V390.456H98.4064V386.886H106.61V386.41H98.3784V384.772H108.948ZM113.049 390.806C111.453 389.098 110.417 387.054 110.417 384.464C110.417 381.874 111.453 379.83 113.049 378.122H115.555C113.959 379.788 112.853 381.944 112.853 384.464C112.853 386.984 113.959 389.14 115.555 390.806H113.049ZM123.524 384.072H128.396V385.962H116.3V384.072H121.172V383.358H117.028V378.5H127.668V383.358H123.524V384.072ZM119.366 380.32V381.538H125.33V380.32H119.366ZM116.944 388.454V386.578H127.696V390.596H125.302V388.454H116.944ZM131.643 390.806H129.137C130.733 389.14 131.839 386.984 131.839 384.464C131.839 381.944 130.733 379.788 129.137 378.122H131.643C133.239 379.83 134.275 381.874 134.275 384.464C134.275 387.054 133.239 389.098 131.643 390.806Z" fill="#AFAFAF"/>
<circle cx="20" cy="451.5" r="18.8" fill="#D0B15E" stroke="#D0B15E" stroke-width="2.4"/>
<path d="M20.138 458.462C23.216 458.462 25.7 456.32 25.7 453.314C25.7 450.344 23.342 448.346 20.48 448.346C20.318 448.346 20.156 448.382 20.066 448.418L23.396 443.45H19.688L15.908 449.444C15.044 450.812 14.576 451.91 14.576 453.332C14.576 456.464 17.078 458.462 20.138 458.462ZM20.138 455.69C18.68 455.69 17.762 454.664 17.762 453.35C17.762 452.036 18.68 451.01 20.138 451.01C21.596 451.01 22.514 452.036 22.514 453.35C22.514 454.664 21.596 455.69 20.138 455.69Z" fill="white"/>
<path d="M70.12 430H73.5V438.84H70.12V430ZM63.2 436.32C61.86 437.78 59.8 438.86 57.36 438.92V435.98C59.56 435.86 61.02 434.42 61.42 432.98H57.6V430.2H68.64V432.98H64.86C64.82 433.28 64.74 433.58 64.66 433.9L69.22 436.24L67.7 438.74L63.2 436.32ZM70.18 440.56V439.44H73.5V447.08H58.22V439.44H61.54V440.56H70.18ZM61.54 444.4H70.18V443.18H61.54V444.4ZM92.0183 436.72L84.1983 435.04C82.3183 436.06 79.6383 436.6 76.7983 436.64V434.02C79.1783 433.98 81.7383 433.46 82.7983 432.58H76.9983V430H92.3183V432.58H86.5783C86.5383 432.72 86.4783 432.84 86.4183 432.98L92.7383 434.2L92.0183 436.72ZM93.2983 439.84H86.3383V440.64C90.0183 440.84 92.4583 441.8 92.4583 443.94C92.4583 446.4 89.2583 447.28 84.6583 447.28C80.0583 447.28 76.8583 446.4 76.8583 443.94C76.8583 441.8 79.2983 440.84 82.9783 440.64V439.84H76.0183V437.24H93.2983V439.84ZM88.8583 443.94C88.8583 443.34 87.1383 443.12 84.6583 443.12C82.1783 443.12 80.4583 443.34 80.4583 443.94C80.4583 444.56 82.1783 444.76 84.6583 444.76C87.1383 444.76 88.8583 444.56 88.8583 443.94ZM107.977 441.66V433.5H95.9366V430.4H111.437V441.66H107.977ZM106.257 443.38H112.337V446.48H95.0566V443.38H97.6766V437.44H101.077V443.38H102.857V437.44H106.257V443.38ZM122.735 437.2C118.235 437.2 114.895 436.06 114.895 433.46C114.895 430.86 118.235 429.72 122.735 429.72C127.235 429.72 130.575 430.86 130.575 433.46C130.575 436.06 127.235 437.2 122.735 437.2ZM122.735 432.3C120.175 432.3 118.495 432.72 118.495 433.46C118.495 434.22 120.175 434.62 122.735 434.62C125.295 434.62 126.975 434.22 126.975 433.46C126.975 432.72 125.295 432.3 122.735 432.3ZM131.375 440.48H127.615V441.76H130.375V447.28H126.955V444.42H115.015V441.76H117.855V440.48H114.095V437.8H131.375V440.48ZM124.295 441.76V440.48H121.175V441.76H124.295Z" fill="#4C4036"/>
<path d="M64.344 463.85V465.362L60.102 475.26H57.442L61.376 466.062H56.504V463.85H64.344ZM69.4117 467.798C67.2697 467.798 65.7997 467.028 65.7997 465.586C65.7997 464.144 67.2697 463.374 69.4117 463.374C71.5537 463.374 73.0237 464.144 73.0237 465.586C73.0237 467.028 71.5537 467.798 69.4117 467.798ZM74.5917 469.968V466.72H73.4997V464.62H74.5917V463.5H76.9577V469.968H74.5917ZM69.4117 464.984C68.5717 464.984 68.0537 465.194 68.0537 465.586C68.0537 465.978 68.5717 466.188 69.4117 466.188C70.2517 466.188 70.7697 465.978 70.7697 465.586C70.7697 465.194 70.2517 464.984 69.4117 464.984ZM68.5717 473.972H77.0977V475.456H66.2757V472.292H74.6477V471.872H66.2477V470.388H68.2357V469.828H65.3097V468.134H70.8117C71.9177 468.134 73.1637 467.994 73.9057 467.714V469.394C73.1637 469.716 71.9597 469.828 70.7697 469.828H70.5597V470.388H76.9577V473.552H68.5717V473.972ZM86.2423 463.542C88.8043 463.542 90.3163 465.054 90.3163 467.126C90.3163 468.316 89.7423 469.338 87.7403 471.41L86.1023 473.104H90.5403V475.26H82.3783V473.804L86.1163 469.954C87.4883 468.54 87.8103 467.798 87.8103 467.154C87.8103 466.314 87.3483 465.754 86.2423 465.754C85.2063 465.754 84.6463 466.594 84.6463 467.462H82.1403C82.1403 465.222 83.8343 463.542 86.2423 463.542ZM96.2281 475.26V472.964H91.1041V470.864L95.5141 463.85H98.6361V470.864H100.134V472.964H98.6361V475.26H96.2281ZM93.5401 470.864H96.2281V466.468L93.5401 470.864ZM112.517 463.5V469.352H110.151V463.5H112.517ZM104.873 463.514C107.225 463.514 108.723 464.69 108.723 466.412C108.723 468.148 107.225 469.31 104.873 469.31C102.521 469.31 101.023 468.148 101.023 466.412C101.023 464.69 102.521 463.514 104.873 463.514ZM104.873 465.376C103.963 465.376 103.361 465.782 103.361 466.412C103.361 467.042 103.963 467.448 104.873 467.448C105.783 467.448 106.385 467.042 106.385 466.412C106.385 465.782 105.783 465.376 104.873 465.376ZM112.517 469.772V473.342H104.313V473.818H112.643V475.456H101.975V471.886H110.179V471.41H101.947V469.772H112.517ZM116.618 475.806C115.022 474.098 113.986 472.054 113.986 469.464C113.986 466.874 115.022 464.83 116.618 463.122H119.124C117.528 464.788 116.422 466.944 116.422 469.464C116.422 471.984 117.528 474.14 119.124 475.806H116.618ZM127.092 469.072H131.964V470.962H119.868V469.072H124.74V468.358H120.596V463.5H131.236V468.358H127.092V469.072ZM122.934 465.32V466.538H128.898V465.32H122.934ZM120.512 473.454V471.578H131.264V475.596H128.87V473.454H120.512ZM135.211 475.806H132.705C134.301 474.14 135.407 471.984 135.407 469.464C135.407 466.944 134.301 464.788 132.705 463.122H135.211C136.807 464.83 137.843 466.874 137.843 469.464C137.843 472.054 136.807 474.098 135.211 475.806ZM142.581 468.624C143.085 468.19 143.729 467.98 144.457 467.98C145.703 467.98 146.627 468.904 147.747 468.904C148.461 468.904 148.923 468.652 149.399 468.134V470.332C148.895 470.836 148.251 471.088 147.523 471.088C146.291 471.088 145.353 470.164 144.233 470.164C143.519 470.164 143.057 470.374 142.581 470.822V468.624ZM162.842 472.152C162.842 474.224 160.924 475.54 158.502 475.54C156.08 475.54 154.162 474.224 154.162 472.152C154.162 470.57 155.464 469.562 156.472 469.352C155.59 469.086 154.554 468.106 154.554 466.804C154.554 465.012 156.178 463.542 158.502 463.542C160.84 463.542 162.422 465.04 162.422 466.804C162.422 468.106 161.4 469.086 160.532 469.352C161.554 469.562 162.842 470.57 162.842 472.152ZM160.042 466.902C160.042 466.174 159.412 465.614 158.502 465.614C157.62 465.614 156.962 466.118 156.962 466.846C156.962 467.644 157.648 468.204 158.502 468.204C159.384 468.204 160.042 467.672 160.042 466.902ZM160.392 471.998C160.392 471.144 159.594 470.514 158.502 470.514C157.41 470.514 156.612 471.144 156.612 471.998C156.612 472.824 157.382 473.44 158.502 473.44C159.622 473.44 160.392 472.824 160.392 471.998ZM167.906 467.798C165.764 467.798 164.294 467.028 164.294 465.586C164.294 464.144 165.764 463.374 167.906 463.374C170.048 463.374 171.518 464.144 171.518 465.586C171.518 467.028 170.048 467.798 167.906 467.798ZM173.086 469.968V466.72H171.994V464.62H173.086V463.5H175.452V469.968H173.086ZM167.906 464.984C167.066 464.984 166.548 465.194 166.548 465.586C166.548 465.978 167.066 466.188 167.906 466.188C168.746 466.188 169.264 465.978 169.264 465.586C169.264 465.194 168.746 464.984 167.906 464.984ZM167.066 473.972H175.592V475.456H164.77V472.292H173.142V471.872H164.742V470.388H166.73V469.828H163.804V468.134H169.306C170.412 468.134 171.658 467.994 172.4 467.714V469.394C171.658 469.716 170.454 469.828 169.264 469.828H169.054V470.388H175.452V473.552H167.066V473.972ZM184.736 463.542C187.298 463.542 188.81 465.054 188.81 467.126C188.81 468.316 188.236 469.338 186.234 471.41L184.596 473.104H189.034V475.26H180.872V473.804L184.61 469.954C185.982 468.54 186.304 467.798 186.304 467.154C186.304 466.314 185.842 465.754 184.736 465.754C183.7 465.754 183.14 466.594 183.14 467.462H180.634C180.634 465.222 182.328 463.542 184.736 463.542ZM198.526 472.152C198.526 474.224 196.608 475.54 194.186 475.54C191.764 475.54 189.846 474.224 189.846 472.152C189.846 470.57 191.148 469.562 192.156 469.352C191.274 469.086 190.238 468.106 190.238 466.804C190.238 465.012 191.862 463.542 194.186 463.542C196.524 463.542 198.106 465.04 198.106 466.804C198.106 468.106 197.084 469.086 196.216 469.352C197.238 469.562 198.526 470.57 198.526 472.152ZM195.726 466.902C195.726 466.174 195.096 465.614 194.186 465.614C193.304 465.614 192.646 466.118 192.646 466.846C192.646 467.644 193.332 468.204 194.186 468.204C195.068 468.204 195.726 467.672 195.726 466.902ZM196.076 471.998C196.076 471.144 195.278 470.514 194.186 470.514C193.094 470.514 192.296 471.144 192.296 471.998C192.296 472.824 193.066 473.44 194.186 473.44C195.306 473.44 196.076 472.824 196.076 471.998ZM211.052 463.5V469.352H208.686V463.5H211.052ZM203.408 463.514C205.76 463.514 207.258 464.69 207.258 466.412C207.258 468.148 205.76 469.31 203.408 469.31C201.056 469.31 199.558 468.148 199.558 466.412C199.558 464.69 201.056 463.514 203.408 463.514ZM203.408 465.376C202.498 465.376 201.896 465.782 201.896 466.412C201.896 467.042 202.498 467.448 203.408 467.448C204.318 467.448 204.92 467.042 204.92 466.412C204.92 465.782 204.318 465.376 203.408 465.376ZM211.052 469.772V473.342H202.848V473.818H211.178V475.456H200.51V471.886H208.714V471.41H200.482V469.772H211.052ZM215.152 475.806C213.556 474.098 212.52 472.054 212.52 469.464C212.52 466.874 213.556 464.83 215.152 463.122H217.658C216.062 464.788 214.956 466.944 214.956 469.464C214.956 471.984 216.062 474.14 217.658 475.806H215.152ZM225.627 469.072H230.499V470.962H218.403V469.072H223.275V468.358H219.131V463.5H229.771V468.358H225.627V469.072ZM221.469 465.32V466.538H227.433V465.32H221.469ZM219.047 473.454V471.578H229.799V475.596H227.405V473.454H219.047ZM233.746 475.806H231.24C232.836 474.14 233.942 471.984 233.942 469.464C233.942 466.944 232.836 464.788 231.24 463.122H233.746C235.342 464.83 236.378 466.874 236.378 469.464C236.378 472.054 235.342 474.098 233.746 475.806Z" fill="#AFAFAF"/>
<circle cx="20" cy="536.5" r="18.8" fill="#D0B15E" stroke="#D0B15E" stroke-width="2.4"/>
<path d="M25.728 528.45H15.648V531.294H21.912L16.854 543.12H20.274L25.728 530.394V528.45Z" fill="white"/>
<path d="M70.2 524.56V519.78H67.12V516.76H70.2V515H73.58V524.56H70.2ZM62.92 521.24C61.5 523.1 59.42 524.34 56.94 524.48V521.44C59.6 521.12 61.4 518.52 61.46 515.08L64.86 515.28C64.86 516.48 64.66 517.62 64.28 518.68L68.88 521.78L67.02 524.1L62.92 521.24ZM65.94 524.8C70.3 524.8 73.74 525.76 73.74 528.54C73.74 531.32 70.3 532.28 65.94 532.28C61.58 532.28 58.14 531.32 58.14 528.54C58.14 525.76 61.58 524.8 65.94 524.8ZM65.94 529.62C68.24 529.62 70.1 529.32 70.1 528.54C70.1 527.78 68.24 527.46 65.94 527.46C63.64 527.46 61.78 527.78 61.78 528.54C61.78 529.32 63.64 529.62 65.94 529.62ZM94.0583 521.08V524.36H92.0983V532.08H88.7183V515H92.0983V521.08H94.0583ZM83.2383 526.18V518.64H76.5383V515.5H86.6383V526.18H83.2383ZM81.5983 528.12H83.3183C84.8983 528.12 86.6783 527.92 87.7383 527.44V530.6C86.6783 531.08 84.9583 531.28 83.2583 531.28H76.0183V528.12H78.1983V521.94H81.5983V528.12ZM107.857 520.74V517.74H96.0566V515H111.257V520.74H107.857ZM104.097 521.54H112.337V524.24H95.0566V521.54H100.697V519H104.097V521.54ZM103.697 525.12C108.297 525.12 111.497 526.12 111.497 528.7C111.497 531.28 108.297 532.28 103.697 532.28C99.0966 532.28 95.8966 531.28 95.8966 528.7C95.8966 526.12 99.0966 525.12 103.697 525.12ZM103.697 529.72C106.177 529.72 107.897 529.4 107.897 528.7C107.897 528.02 106.177 527.68 103.697 527.68C101.217 527.68 99.4966 528.02 99.4966 528.7C99.4966 529.4 101.217 529.72 103.697 529.72ZM122.735 524.38C117.975 524.38 114.875 522.56 114.875 519.66C114.875 516.76 117.975 514.94 122.735 514.94C127.495 514.94 130.595 516.76 130.595 519.66C130.595 522.56 127.495 524.38 122.735 524.38ZM122.735 517.92C120.295 517.92 118.435 518.52 118.435 519.66C118.435 520.78 120.295 521.4 122.735 521.4C125.175 521.4 127.035 520.78 127.035 519.66C127.035 518.52 125.175 517.92 122.735 517.92ZM131.375 525.4V528.48H127.755V532.48H124.395V528.48H121.075V532.48H117.715V528.48H114.095V525.4H131.375ZM144.873 516.48V519.36H133.193V516.48H137.273V514.88H140.753V516.48H144.873ZM146.313 515H149.693V532.08H146.313V515ZM140.713 528.3H140.913C142.493 528.3 144.273 528.1 145.333 527.62V530.6C144.273 531.08 142.553 531.28 140.853 531.28H133.133V528.3H137.333V526.86C135.233 526.46 133.833 525.3 133.833 523.44C133.833 521.12 136.033 519.88 139.053 519.88C142.073 519.88 144.273 521.12 144.273 523.44C144.273 525.32 142.853 526.48 140.713 526.86V528.3ZM136.993 523.44C136.993 524.04 137.833 524.34 139.053 524.34C140.273 524.34 141.113 524.04 141.113 523.44C141.113 522.84 140.273 522.54 139.053 522.54C137.833 522.54 136.993 522.84 136.993 523.44Z" fill="#4C4036"/>
<path d="M58.058 560.26L60.648 556.396C60.578 556.424 60.452 556.452 60.326 556.452C58.1 556.452 56.266 554.898 56.266 552.588C56.266 550.152 58.212 548.584 60.592 548.584C62.972 548.584 64.918 550.138 64.918 552.574C64.918 553.68 64.554 554.534 63.882 555.598L60.942 560.26H58.058ZM60.592 554.38C61.726 554.38 62.44 553.582 62.44 552.56C62.44 551.538 61.726 550.74 60.592 550.74C59.458 550.74 58.744 551.538 58.744 552.56C58.744 553.582 59.458 554.38 60.592 554.38ZM70.0132 552.798C67.8712 552.798 66.4012 552.028 66.4012 550.586C66.4012 549.144 67.8712 548.374 70.0132 548.374C72.1552 548.374 73.6252 549.144 73.6252 550.586C73.6252 552.028 72.1552 552.798 70.0132 552.798ZM75.1932 554.968V551.72H74.1012V549.62H75.1932V548.5H77.5592V554.968H75.1932ZM70.0132 549.984C69.1732 549.984 68.6552 550.194 68.6552 550.586C68.6552 550.978 69.1732 551.188 70.0132 551.188C70.8532 551.188 71.3712 550.978 71.3712 550.586C71.3712 550.194 70.8532 549.984 70.0132 549.984ZM69.1732 558.972H77.6992V560.456H66.8772V557.292H75.2492V556.872H66.8492V555.388H68.8372V554.828H65.9112V553.134H71.4132C72.5192 553.134 73.7652 552.994 74.5072 552.714V554.394C73.7652 554.716 72.5612 554.828 71.3712 554.828H71.1612V555.388H77.5592V558.552H69.1732V558.972ZM87.3059 548.85V560.26H84.7719V551.062H82.7559V548.85H87.3059ZM93.8104 548.85V560.26H91.2764V551.062H89.2604V548.85H93.8104ZM107.595 548.5V554.352H105.229V548.5H107.595ZM99.9509 548.514C102.303 548.514 103.801 549.69 103.801 551.412C103.801 553.148 102.303 554.31 99.9509 554.31C97.5989 554.31 96.1009 553.148 96.1009 551.412C96.1009 549.69 97.5989 548.514 99.9509 548.514ZM99.9509 550.376C99.0409 550.376 98.4389 550.782 98.4389 551.412C98.4389 552.042 99.0409 552.448 99.9509 552.448C100.861 552.448 101.463 552.042 101.463 551.412C101.463 550.782 100.861 550.376 99.9509 550.376ZM107.595 554.772V558.342H99.3909V558.818H107.721V560.456H97.0529V556.886H105.257V556.41H97.0249V554.772H107.595ZM111.696 560.806C110.1 559.098 109.064 557.054 109.064 554.464C109.064 551.874 110.1 549.83 111.696 548.122H114.202C112.606 549.788 111.5 551.944 111.5 554.464C111.5 556.984 112.606 559.14 114.202 560.806H111.696ZM122.17 554.072H127.042V555.962H114.946V554.072H119.818V553.358H115.674V548.5H126.314V553.358H122.17V554.072ZM118.012 550.32V551.538H123.976V550.32H118.012ZM115.59 558.454V556.578H126.342V560.596H123.948V558.454H115.59ZM130.289 560.806H127.783C129.379 559.14 130.485 556.984 130.485 554.464C130.485 551.944 129.379 549.788 127.783 548.122H130.289C131.885 549.83 132.921 551.874 132.921 554.464C132.921 557.054 131.885 559.098 130.289 560.806Z" fill="#AFAFAF"/>
<g clip-path="url(#clip1_69_1998)">
<path d="M285.803 533.742L297.139 544.583L266.177 576.939C263.616 579.616 259.358 579.711 256.68 577.149L255.048 575.589C252.37 573.027 252.275 568.771 254.837 566.094L285.799 533.738L285.803 533.742Z" fill="#AFAFB0"/>
<path d="M307.089 562.815C329.136 562.815 347.008 544.948 347.008 522.907C347.008 500.867 329.136 483 307.089 483C285.043 483 267.171 500.867 267.171 522.907C267.171 544.948 285.043 562.815 307.089 562.815Z" fill="#84672B"/>
<path d="M285.251 545.73C272.659 533.688 272.215 513.657 284.26 501.069C296.305 488.481 316.342 488.037 328.934 500.078C341.526 512.12 341.97 532.151 329.925 544.739C317.88 557.328 297.843 557.772 285.251 545.73Z" fill="#F2ECDF"/>
<path opacity="0.8" d="M285.251 545.73C272.659 533.688 272.215 513.657 284.26 501.069C296.305 488.481 316.342 488.037 328.934 500.078C341.526 512.12 341.97 532.151 329.925 544.739C317.88 557.328 297.843 557.772 285.251 545.73Z" fill="white"/>
<path d="M284.395 536.171C283.829 536.133 283.269 535.882 282.864 535.419C282.04 534.486 282.124 533.065 283.057 532.241L295.256 521.422C296.183 520.598 297.599 520.682 298.429 521.602L303.878 527.674L322.384 510.995C323.31 510.158 324.732 510.236 325.562 511.162C326.392 512.088 326.321 513.51 325.395 514.339L305.21 532.531C304.766 532.929 304.181 533.135 303.582 533.11C302.978 533.09 302.424 532.807 302.025 532.363L296.563 526.272L286.042 535.605C285.573 536.024 284.974 536.21 284.395 536.165V536.171Z" fill="#EE7800"/>
<path d="M326.991 507.797L315.171 510.769C314.547 510.923 314.328 511.702 314.772 512.165L323.252 520.913C323.703 521.376 324.481 521.177 324.661 520.559L328.001 508.839C328.175 508.222 327.615 507.643 326.991 507.797Z" fill="#EE7800"/>
</g>
</g>
<defs>
<clipPath id="clip0_69_1998">
<rect width="367" height="597" fill="white"/>
</clipPath>
<clipPath id="clip1_69_1998">
<rect width="98.008" height="100" fill="white" transform="translate(249 483)"/>
</clipPath>
</defs>
</svg>
