<svg width="1163" height="693" viewBox="0 0 1163 693" fill="none" xmlns="http://www.w3.org/2000/svg">
<path d="M457.5 131H1062C1117.23 131 1162 175.772 1162 231V272C1162 327.228 1117.23 372 1062 372H101.5C46.2716 372 1.5 416.772 1.5 472V511C1.5 566.228 46.2715 611 101.5 611H840" stroke="#ECE9D9" stroke-width="2"/>
<circle cx="456" cy="131" r="22.8" fill="#D0B15E" stroke="#D0B15E" stroke-width="2.4"/>
<circle cx="820" cy="131" r="22.8" fill="#D0B15E" stroke="#D0B15E" stroke-width="2.4"/>
<circle cx="820" cy="371" r="22.8" fill="#D0B15E" stroke="#D0B15E" stroke-width="2.4"/>
<circle cx="455" cy="371" r="22.8" fill="#D0B15E" stroke="#D0B15E" stroke-width="2.4"/>
<circle cx="92" cy="371" r="22.8" fill="#D0B15E" stroke="#D0B15E" stroke-width="2.4"/>
<circle cx="92" cy="611" r="22.8" fill="#D0B15E" stroke="#D0B15E" stroke-width="2.4"/>
<circle cx="455" cy="611" r="22.8" fill="#D0B15E" stroke="#D0B15E" stroke-width="2.4"/>
<path d="M469.742 23.816H478.738V27.924H456.274V23.816H465.27V20.228H457.496V7.02H477.516V20.228H469.742V23.816ZM461.864 11.128V16.146H473.148V11.128H461.864ZM498.106 6.5H502.5V17.992H498.106V6.5ZM489.11 14.716C487.368 16.614 484.69 18.018 481.518 18.096V14.274C484.378 14.118 486.276 12.246 486.796 10.374H481.83V6.76H496.182V10.374H491.268C491.216 10.764 491.112 11.154 491.008 11.57L496.936 14.612L494.96 17.862L489.11 14.716ZM498.184 20.228V18.772H502.5V28.704H482.636V18.772H486.952V20.228H498.184ZM486.952 25.22H498.184V23.634H486.952V25.22Z" fill="#4C4036"/>
<path d="M829.204 257.16C827.514 259.318 824.888 260.748 821.664 260.8V256.874C824.238 256.718 826.084 254.846 826.682 252.402H822.132V248.45H826.76V246.214H831.232V248.45H835.86V252.402H831.206C831.154 252.87 831.05 253.312 830.92 253.754L836.952 257.576L834.586 260.774L829.204 257.16ZM838.408 246.5H842.802V268.704H838.408V246.5ZM831.102 263.634H831.388C833.442 263.634 835.756 263.374 837.134 262.75V266.78C835.756 267.404 833.52 267.664 831.31 267.664H821.274V263.634H826.734V260.332H831.102V263.634ZM866.798 255.236L856.606 252.948C854.162 254.3 850.678 255.08 847.038 255.132V251.726C850.106 251.674 853.382 251.024 854.786 249.854H847.298V246.5H867.214V249.854H859.648C859.596 249.984 859.544 250.114 859.466 250.244L867.786 251.96L866.798 255.236ZM859.44 256.068H868.488V259.448H846.024V256.068H855.072V254.17H859.44V256.068ZM857.256 260.228C863.262 260.228 867.448 261.424 867.448 264.622C867.448 267.82 863.262 269.016 857.256 269.016C851.25 269.016 847.064 267.82 847.064 264.622C847.064 261.424 851.25 260.228 857.256 260.228ZM857.256 265.74C860.506 265.74 862.768 265.428 862.768 264.622C862.768 263.842 860.506 263.504 857.256 263.504C854.006 263.504 851.744 263.842 851.744 264.622C851.744 265.428 854.006 265.74 857.256 265.74ZM894.987 262.958V253.416H890.983V249.386H894.987V246.5H899.381V262.958H894.987ZM885.445 255.574C883.599 258.2 880.921 259.994 877.749 260.176V256.094C881.207 255.678 883.547 251.57 883.625 246.604L888.045 246.864C888.045 248.658 887.759 250.426 887.187 252.038L893.401 256.952L890.697 259.942L885.445 255.574ZM883.989 264.778H899.693V268.704H879.517V260.93H883.989V264.778ZM923.402 249.62H926.002V253.624H923.402V257.628H919.008V246.5H923.402V249.62ZM916.59 246.76V257.16H903.044V246.76H907.308V248.58H912.326V246.76H916.59ZM907.308 253.754H912.326V251.908H907.308V253.754ZM908.14 264.908V265.766H923.636V268.704H903.824V262.204H919.086V261.346H903.772V258.408H923.402V264.908H908.14Z" fill="#4C4036"/>
<path d="M838.46 6.5H842.854V28.704H838.46V17.784H833.78V13.676H838.46V6.5ZM831.388 7.098C831.388 10.036 831.18 12.714 830.764 15.106L837.212 25.298L833.442 27.638L829.256 20.618C827.462 25.116 824.654 27.638 821.274 27.664V23.088C824.68 22.698 826.916 16.224 826.916 6.942L831.388 7.098ZM862.898 11.596V10.322H847.298V6.76H867.188V14.898H851.64V16.172H867.448V19.734H847.35V11.596H862.898ZM868.488 21.112V25.012H863.782V29.224H859.414V25.012H855.098V29.224H850.73V25.012H846.024V21.112H868.488ZM894.883 6.5H899.277V18.512H894.883V6.5ZM885.939 14.326C884.041 16.64 881.285 18.2 878.087 18.356V14.43C881.597 14.014 884.041 10.92 884.119 6.604L888.539 6.864C888.539 8.32 888.279 9.724 887.785 11.05L893.947 14.872L891.711 18.044L885.939 14.326ZM879.413 28.704V19.292H899.277V28.704H879.413ZM883.807 22.906V25.09H894.883V22.906H883.807ZM926.002 14.612V18.876H923.402V28.704H919.008V6.5H923.402V14.612H926.002ZM912.976 7.098C912.976 10.452 912.664 13.468 912.118 16.068L918.54 25.116L914.952 27.638L910.532 21.164C908.712 25.324 905.93 27.638 902.55 27.664V23.14C906.112 22.724 908.478 16.224 908.504 6.942L912.976 7.098ZM955.803 6.5V18.434H951.409V6.5H955.803ZM948.835 6.76V17.16H935.055V6.76H948.835ZM944.493 13.598V10.322H939.397V13.598H944.493ZM956.557 25.428L955.439 28.964L945.611 26.39C943.115 28.054 939.423 28.704 935.731 28.704V25.116C938.981 25.116 942.101 24.492 943.531 23.01H935.965V19.474H943.635V17.966H948.107V19.474H955.803V23.01H948.341L948.107 23.556L956.557 25.428ZM983.368 22.958V17.602H981.002V13.728H983.368V11.986H981.002V8.112H983.368V6.5H987.684V22.958H983.368ZM979.962 6.76V19.396H966.728V6.76H979.962ZM975.646 15.678V10.478H971.044V15.678H975.646ZM972.292 24.778H987.996V28.704H967.82V20.93H972.292V24.778ZM1008.04 6.5H1012.43V18.2H1008.04V13.494H1005.08V10.374H1000.89C1000.84 10.816 1000.73 11.258 1000.6 11.7L1006.51 14.898L1004.48 18.122L998.758 14.872C997.042 16.848 994.39 18.278 991.244 18.356V14.534C994.078 14.378 995.95 12.35 996.418 10.374H991.556V6.76H1005.7V9.802H1008.04V6.5ZM1008.12 20.41V18.98H1012.43V28.704H992.57V18.98H996.886V20.41H1008.12ZM996.886 25.272H1008.12V23.764H996.886V25.272Z" fill="#4C4036"/>
<path d="M477.75 246.5V257.368H473.356V246.5H477.75ZM464.334 253.806C462.436 255.886 459.706 257.29 456.56 257.446V253.624C460.07 253.208 462.54 250.478 462.618 246.604L467.012 246.864C467.012 248.216 466.752 249.516 466.258 250.712L472.368 253.936L470.34 257.108L464.334 253.806ZM462.254 265.662H477.984V268.704H457.912V262.074H473.408V261.19H457.86V258.148H477.75V264.778H462.254V265.662ZM495.246 251.232H498.21V246.5H502.604V262.958H498.21V255.054H495.246V251.232ZM488.954 256.068C487.238 258.382 484.586 260.046 481.414 260.124V256.146C484.404 255.912 486.276 253.338 486.666 250.504H481.726V246.76H495.87V250.504H491.086C491.034 251.206 490.904 251.908 490.696 252.584L496.832 256.822L494.362 259.942L488.954 256.068ZM487.212 264.778H502.916V268.704H482.74V260.93H487.212V264.778ZM522.57 261.658V251.05H506.918V247.02H527.068V261.658H522.57ZM520.334 263.894H528.238V267.924H505.774V263.894H509.18V256.172H513.6V263.894H515.914V256.172H520.334V263.894ZM541.755 255.86C535.905 255.86 531.563 254.378 531.563 250.998C531.563 247.618 535.905 246.136 541.755 246.136C547.605 246.136 551.947 247.618 551.947 250.998C551.947 254.378 547.605 255.86 541.755 255.86ZM541.755 249.49C538.427 249.49 536.243 250.036 536.243 250.998C536.243 251.986 538.427 252.506 541.755 252.506C545.083 252.506 547.267 251.986 547.267 250.998C547.267 250.036 545.083 249.49 541.755 249.49ZM552.987 260.124H548.099V261.788H551.687V268.964H547.241V265.246H531.719V261.788H535.411V260.124H530.523V256.64H552.987V260.124ZM543.783 261.788V260.124H539.727V261.788H543.783Z" fill="#4C4036"/>
<path d="M110.356 486.5H114.75V497.992H110.356V486.5ZM101.36 494.716C99.618 496.614 96.94 498.018 93.768 498.096V494.274C96.628 494.118 98.526 492.246 99.046 490.374H94.08V486.76H108.432V490.374H103.518C103.466 490.764 103.362 491.154 103.258 491.57L109.186 494.612L107.21 497.862L101.36 494.716ZM110.434 500.228V498.772H114.75V508.704H94.886V498.772H99.202V500.228H110.434ZM99.202 505.22H110.434V503.634H99.202V505.22ZM138.824 495.236L128.658 493.052C126.214 494.378 122.73 495.08 119.038 495.132V491.726C122.132 491.674 125.46 490.998 126.838 489.854H119.298V486.5H139.214V489.854H131.752C131.7 490.036 131.622 490.192 131.544 490.374L139.76 491.96L138.824 495.236ZM140.488 499.292H131.44V500.332C136.224 500.592 139.396 501.84 139.396 504.622C139.396 507.82 135.236 508.964 129.256 508.964C123.276 508.964 119.116 507.82 119.116 504.622C119.116 501.84 122.288 500.592 127.072 500.332V499.292H118.024V495.912H140.488V499.292ZM134.716 504.622C134.716 503.842 132.48 503.556 129.256 503.556C126.032 503.556 123.796 503.842 123.796 504.622C123.796 505.428 126.032 505.688 129.256 505.688C132.48 505.688 134.716 505.428 134.716 504.622ZM159.57 501.658V491.05H143.918V487.02H164.068V501.658H159.57ZM157.334 503.894H165.238V507.924H142.774V503.894H146.18V496.172H150.6V503.894H152.914V496.172H157.334V503.894ZM178.755 495.86C172.905 495.86 168.563 494.378 168.563 490.998C168.563 487.618 172.905 486.136 178.755 486.136C184.605 486.136 188.947 487.618 188.947 490.998C188.947 494.378 184.605 495.86 178.755 495.86ZM178.755 489.49C175.427 489.49 173.243 490.036 173.243 490.998C173.243 491.986 175.427 492.506 178.755 492.506C182.083 492.506 184.267 491.986 184.267 490.998C184.267 490.036 182.083 489.49 178.755 489.49ZM189.987 500.124H185.099V501.788H188.687V508.964H184.241V505.246H168.719V501.788H172.411V500.124H167.523V496.64H189.987V500.124ZM180.783 501.788V500.124H176.727V501.788H180.783Z" fill="#4C4036"/>
<path d="M111.266 246.5H115.374V268.704H111.266V258.824H109.42V268.314H105.364V246.604H109.42V254.664H111.266V246.5ZM97.954 263.79H99.15C100.892 263.79 102.972 263.53 104.324 263.036V266.884C102.998 267.43 100.632 267.664 98.76 267.664H93.664V246.968H97.954V263.79ZM139.188 246.76V258.486H119.324V246.76H123.614V248.762H134.898V246.76H139.188ZM123.614 254.612H134.898V252.584H123.614V254.612ZM140.488 260.228V264.258H131.518V269.224H126.994V264.258H118.024V260.228H140.488ZM164.094 252.116V255.418H143.918V252.116H147.324V249.802H144.152V246.5H163.86V249.802H160.688V252.116H164.094ZM151.692 249.802V252.116H156.32V249.802H151.692ZM165.238 259.76H156.19V260.93H163.938V268.704H144.074V260.93H151.822V259.76H142.774V256.432H165.238V259.76ZM159.596 265.48V264.154H148.416V265.48H159.596ZM184.787 259.188V256.822H182.785V253.312H184.787V251.804H182.785V248.294H184.787V246.5H189.103V259.188H184.787ZM182.161 258.148C181.017 258.512 178.885 258.72 176.779 258.72H167.679V255.262H169.499V250.244H167.835V246.76H181.823V250.244H180.107V255.132C180.913 255.054 181.615 254.924 182.161 254.768V258.148ZM173.659 250.244V255.262H175.947V250.244H173.659ZM179.171 259.552C184.839 259.552 189.311 260.748 189.311 264.258C189.311 267.768 184.839 268.964 179.171 268.964C173.503 268.964 169.031 267.768 169.031 264.258C169.031 260.748 173.503 259.552 179.171 259.552ZM179.171 265.558C182.161 265.558 184.579 265.22 184.579 264.258C184.579 263.322 182.161 262.984 179.171 262.984C176.181 262.984 173.763 263.322 173.763 264.258C173.763 265.22 176.181 265.558 179.171 265.558ZM207.535 248.424V252.168H192.351V248.424H197.655V246.344H202.179V248.424H207.535ZM209.407 246.5H213.801V268.704H209.407V246.5ZM202.127 263.79H202.387C204.441 263.79 206.755 263.53 208.133 262.906V266.78C206.755 267.404 204.519 267.664 202.309 267.664H192.273V263.79H197.733V261.918C195.003 261.398 193.183 259.89 193.183 257.472C193.183 254.456 196.043 252.844 199.969 252.844C203.895 252.844 206.755 254.456 206.755 257.472C206.755 259.916 204.909 261.424 202.127 261.918V263.79ZM197.291 257.472C197.291 258.252 198.383 258.642 199.969 258.642C201.555 258.642 202.647 258.252 202.647 257.472C202.647 256.692 201.555 256.302 199.969 256.302C198.383 256.302 197.291 256.692 197.291 257.472Z" fill="#4C4036"/>
<path d="M825.296 307.744C822.464 307.744 820.736 306.144 820.528 303.632H823.392C823.504 304.672 824.096 305.28 825.296 305.28C826.48 305.28 827.2 304.4 827.2 303.2C827.2 301.984 826.496 301.136 825.248 301.136C824.336 301.136 823.76 301.536 823.408 302.016H820.768L821.152 294.4H829.392V296.88H823.792L823.648 299.328C824.208 298.992 824.912 298.784 825.744 298.784C828.304 298.784 830.032 300.432 830.032 303.2C830.032 305.952 827.984 307.744 825.296 307.744ZM836.015 298.912C833.567 298.912 831.887 298.032 831.887 296.384C831.887 294.736 833.567 293.856 836.015 293.856C838.463 293.856 840.143 294.736 840.143 296.384C840.143 298.032 838.463 298.912 836.015 298.912ZM841.935 301.392V297.68H840.687V295.28H841.935V294H844.639V301.392H841.935ZM836.015 295.696C835.055 295.696 834.463 295.936 834.463 296.384C834.463 296.832 835.055 297.072 836.015 297.072C836.975 297.072 837.567 296.832 837.567 296.384C837.567 295.936 836.975 295.696 836.015 295.696ZM835.055 305.968H844.799V307.664H832.431V304.048H841.999V303.568H832.399V301.872H834.671V301.232H831.327V299.296H837.615C838.879 299.296 840.303 299.136 841.151 298.816V300.736C840.303 301.104 838.927 301.232 837.567 301.232H837.327V301.872H844.639V305.488H835.055V305.968ZM855.778 294.4V307.44H852.882V296.928H850.578V294.4H855.778ZM859.884 307.44L862.844 303.024C862.764 303.056 862.62 303.088 862.476 303.088C859.932 303.088 857.836 301.312 857.836 298.672C857.836 295.888 860.06 294.096 862.78 294.096C865.5 294.096 867.724 295.872 867.724 298.656C867.724 299.92 867.308 300.896 866.54 302.112L863.18 307.44H859.884ZM862.78 300.72C864.076 300.72 864.892 299.808 864.892 298.64C864.892 297.472 864.076 296.56 862.78 296.56C861.484 296.56 860.668 297.472 860.668 298.64C860.668 299.808 861.484 300.72 862.78 300.72ZM882.075 294V300.688H879.371V294H882.075ZM873.339 294.016C876.027 294.016 877.739 295.36 877.739 297.328C877.739 299.312 876.027 300.64 873.339 300.64C870.651 300.64 868.939 299.312 868.939 297.328C868.939 295.36 870.651 294.016 873.339 294.016ZM873.339 296.144C872.299 296.144 871.611 296.608 871.611 297.328C871.611 298.048 872.299 298.512 873.339 298.512C874.379 298.512 875.067 298.048 875.067 297.328C875.067 296.608 874.379 296.144 873.339 296.144ZM882.075 301.168V305.248H872.699V305.792H882.219V307.664H870.027V303.584H879.403V303.04H869.995V301.168H882.075ZM886.762 308.064C884.938 306.112 883.754 303.776 883.754 300.816C883.754 297.856 884.938 295.52 886.762 293.568H889.626C887.802 295.472 886.538 297.936 886.538 300.816C886.538 303.696 887.802 306.16 889.626 308.064H886.762ZM895.164 298.912C892.716 298.912 891.036 298.032 891.036 296.384C891.036 294.736 892.716 293.856 895.164 293.856C897.612 293.856 899.292 294.736 899.292 296.384C899.292 298.032 897.612 298.912 895.164 298.912ZM901.084 301.392V297.68H899.836V295.28H901.084V294H903.788V301.392H901.084ZM895.164 295.696C894.204 295.696 893.612 295.936 893.612 296.384C893.612 296.832 894.204 297.072 895.164 297.072C896.124 297.072 896.716 296.832 896.716 296.384C896.716 295.936 896.124 295.696 895.164 295.696ZM894.204 305.968H903.948V307.664H891.58V304.048H901.148V303.568H891.548V301.872H893.82V301.232H890.476V299.296H896.764C898.028 299.296 899.452 299.136 900.3 298.816V300.736C899.452 301.104 898.076 301.232 896.716 301.232H896.476V301.872H903.788V305.488H894.204V305.968ZM908.011 308.064H905.147C906.971 306.16 908.235 303.696 908.235 300.816C908.235 297.936 906.971 295.472 905.147 293.568H908.011C909.835 295.52 911.019 297.856 911.019 300.816C911.019 303.776 909.835 306.112 908.011 308.064Z" fill="#AFAFAF"/>
<path d="M461.24 67.44V64.816H455.384V62.416L460.424 54.4H463.992V62.416H465.704V64.816H463.992V67.44H461.24ZM458.168 62.416H461.24V57.392L458.168 62.416ZM471.328 58.912C468.88 58.912 467.2 58.032 467.2 56.384C467.2 54.736 468.88 53.856 471.328 53.856C473.776 53.856 475.456 54.736 475.456 56.384C475.456 58.032 473.776 58.912 471.328 58.912ZM477.248 61.392V57.68H476V55.28H477.248V54H479.952V61.392H477.248ZM471.328 55.696C470.368 55.696 469.776 55.936 469.776 56.384C469.776 56.832 470.368 57.072 471.328 57.072C472.288 57.072 472.88 56.832 472.88 56.384C472.88 55.936 472.288 55.696 471.328 55.696ZM470.368 65.968H480.112V67.664H467.744V64.048H477.312V63.568H467.712V61.872H469.984V61.232H466.64V59.296H472.928C474.192 59.296 475.616 59.136 476.464 58.816V60.736C475.616 61.104 474.24 61.232 472.88 61.232H472.64V61.872H479.952V65.488H470.368V65.968ZM495.811 63.888C495.811 66.256 493.619 67.76 490.851 67.76C488.083 67.76 485.891 66.256 485.891 63.888C485.891 62.08 487.379 60.928 488.531 60.688C487.523 60.384 486.339 59.264 486.339 57.776C486.339 55.728 488.195 54.048 490.851 54.048C493.523 54.048 495.331 55.76 495.331 57.776C495.331 59.264 494.163 60.384 493.171 60.688C494.339 60.928 495.811 62.08 495.811 63.888ZM492.611 57.888C492.611 57.056 491.891 56.416 490.851 56.416C489.843 56.416 489.091 56.992 489.091 57.824C489.091 58.736 489.875 59.376 490.851 59.376C491.859 59.376 492.611 58.768 492.611 57.888ZM493.011 63.712C493.011 62.736 492.099 62.016 490.851 62.016C489.603 62.016 488.691 62.736 488.691 63.712C488.691 64.656 489.571 65.36 490.851 65.36C492.131 65.36 493.011 64.656 493.011 63.712ZM510.126 54V60.688H507.422V54H510.126ZM501.39 54.016C504.078 54.016 505.79 55.36 505.79 57.328C505.79 59.312 504.078 60.64 501.39 60.64C498.702 60.64 496.99 59.312 496.99 57.328C496.99 55.36 498.702 54.016 501.39 54.016ZM501.39 56.144C500.35 56.144 499.662 56.608 499.662 57.328C499.662 58.048 500.35 58.512 501.39 58.512C502.43 58.512 503.118 58.048 503.118 57.328C503.118 56.608 502.43 56.144 501.39 56.144ZM510.126 61.168V65.248H500.75V65.792H510.27V67.664H498.078V63.584H507.454V63.04H498.046V61.168H510.126ZM514.812 68.064C512.988 66.112 511.804 63.776 511.804 60.816C511.804 57.856 512.988 55.52 514.812 53.568H517.676C515.852 55.472 514.588 57.936 514.588 60.816C514.588 63.696 515.852 66.16 517.676 68.064H514.812ZM527.663 55.184V57.488H518.447V55.184H521.647V53.904H524.431V55.184H527.663ZM532.959 58.864V61.488H531.391V67.664H528.687V54H531.391V58.864H532.959ZM524.383 63.488V64.64C525.647 64.64 527.055 64.48 527.903 64.096V66.48C527.055 66.864 525.679 67.024 524.319 67.024H518.527V64.64H521.695V63.472C520.047 63.168 518.943 62.24 518.943 60.752C518.943 58.896 520.687 57.904 523.071 57.904C525.455 57.904 527.199 58.896 527.199 60.752C527.199 62.256 526.063 63.184 524.383 63.488ZM521.471 60.752C521.471 61.232 522.111 61.472 523.071 61.472C524.031 61.472 524.671 61.232 524.671 60.752C524.671 60.272 524.031 60.032 523.071 60.032C522.111 60.032 521.471 60.272 521.471 60.752ZM536.062 68.064H533.198C535.022 66.16 536.286 63.696 536.286 60.816C536.286 57.936 535.022 55.472 533.198 53.568H536.062C537.886 55.52 539.07 57.856 539.07 60.816C539.07 63.776 537.886 66.112 536.062 68.064ZM544.485 59.856C545.061 59.36 545.797 59.12 546.629 59.12C548.053 59.12 549.109 60.176 550.389 60.176C551.205 60.176 551.733 59.888 552.277 59.296V61.808C551.701 62.384 550.965 62.672 550.133 62.672C548.725 62.672 547.653 61.616 546.373 61.616C545.557 61.616 545.029 61.856 544.485 62.368V59.856ZM562.536 67.744C559.704 67.744 557.976 66.144 557.768 63.632H560.632C560.744 64.672 561.336 65.28 562.536 65.28C563.72 65.28 564.44 64.4 564.44 63.2C564.44 61.984 563.736 61.136 562.488 61.136C561.576 61.136 561 61.536 560.648 62.016H558.008L558.392 54.4H566.632V56.88H561.032L560.888 59.328C561.448 58.992 562.152 58.784 562.984 58.784C565.544 58.784 567.272 60.432 567.272 63.2C567.272 65.952 565.224 67.744 562.536 67.744ZM573.255 58.912C570.807 58.912 569.127 58.032 569.127 56.384C569.127 54.736 570.807 53.856 573.255 53.856C575.703 53.856 577.383 54.736 577.383 56.384C577.383 58.032 575.703 58.912 573.255 58.912ZM579.175 61.392V57.68H577.927V55.28H579.175V54H581.879V61.392H579.175ZM573.255 55.696C572.295 55.696 571.703 55.936 571.703 56.384C571.703 56.832 572.295 57.072 573.255 57.072C574.215 57.072 574.807 56.832 574.807 56.384C574.807 55.936 574.215 55.696 573.255 55.696ZM572.295 65.968H582.039V67.664H569.671V64.048H579.239V63.568H569.639V61.872H571.911V61.232H568.567V59.296H574.855C576.119 59.296 577.543 59.136 578.391 58.816V60.736C577.543 61.104 576.167 61.232 574.807 61.232H574.567V61.872H581.879V65.488H572.295V65.968ZM596.874 54.4V56.128L592.026 67.44H588.986L593.482 56.928H587.914V54.4H596.874ZM611.194 54V60.688H608.49V54H611.194ZM602.458 54.016C605.146 54.016 606.858 55.36 606.858 57.328C606.858 59.312 605.146 60.64 602.458 60.64C599.77 60.64 598.058 59.312 598.058 57.328C598.058 55.36 599.77 54.016 602.458 54.016ZM602.458 56.144C601.418 56.144 600.73 56.608 600.73 57.328C600.73 58.048 601.418 58.512 602.458 58.512C603.498 58.512 604.186 58.048 604.186 57.328C604.186 56.608 603.498 56.144 602.458 56.144ZM611.194 61.168V65.248H601.818V65.792H611.338V67.664H599.146V63.584H608.522V63.04H599.114V61.168H611.194ZM615.88 68.064C614.056 66.112 612.872 63.776 612.872 60.816C612.872 57.856 614.056 55.52 615.88 53.568H618.744C616.92 55.472 615.656 57.936 615.656 60.816C615.656 63.696 616.92 66.16 618.744 68.064H615.88ZM626.427 58.416C624.827 60.256 622.459 61.408 619.915 61.392V58.848C622.587 58.848 625.179 56.8 625.611 53.792L628.363 54.192C628.251 54.96 628.027 55.68 627.723 56.368L633.371 59.136L632.107 61.408L626.427 58.416ZM633.419 62.416V64.912H627.899V67.984H625.115V64.912H619.595V62.416H633.419ZM637.13 68.064H634.266C636.09 66.16 637.354 63.696 637.354 60.816C637.354 57.936 636.09 55.472 634.266 53.568H637.13C638.954 55.52 640.138 57.856 640.138 60.816C640.138 63.776 638.954 66.112 637.13 68.064ZM650.433 54.4V67.44H647.537V56.928H645.233V54.4H650.433ZM661.535 54.4V56.128L656.687 67.44H653.647L658.143 56.928H652.575V54.4H661.535ZM664.207 56.144C665.119 56.144 665.791 56.832 665.791 57.744C665.791 58.656 665.119 59.344 664.207 59.344C663.279 59.344 662.607 58.656 662.607 57.744C662.607 56.832 663.279 56.144 664.207 56.144ZM664.207 62.496C665.119 62.496 665.791 63.184 665.791 64.096C665.791 65.008 665.119 65.696 664.207 65.696C663.279 65.696 662.607 65.008 662.607 64.096C662.607 63.184 663.279 62.496 664.207 62.496ZM672.015 54.048C674.863 54.048 677.007 56.336 677.007 60.912C677.007 65.472 674.863 67.76 672.015 67.76C669.167 67.76 667.023 65.472 667.023 60.912C667.023 56.336 669.167 54.048 672.015 54.048ZM672.015 56.592C670.735 56.592 669.775 57.936 669.775 60.912C669.775 63.872 670.735 65.216 672.015 65.216C673.295 65.216 674.255 63.872 674.255 60.912C674.255 57.936 673.295 56.592 672.015 56.592ZM683.12 54.048C685.968 54.048 688.112 56.336 688.112 60.912C688.112 65.472 685.968 67.76 683.12 67.76C680.272 67.76 678.128 65.472 678.128 60.912C678.128 56.336 680.272 54.048 683.12 54.048ZM683.12 56.592C681.84 56.592 680.88 57.936 680.88 60.912C680.88 63.872 681.84 65.216 683.12 65.216C684.4 65.216 685.36 63.872 685.36 60.912C685.36 57.936 684.4 56.592 683.12 56.592ZM703.81 58.992V61.616H702.29V67.664H699.65V54H702.29V58.992H703.81ZM693.762 54.32V57.6C693.762 63.392 692.546 66.48 689.57 66.544V64.048C690.706 63.728 691.17 61.824 691.17 57.84V56.752H689.57V54.32H693.762ZM694.242 56.752V54.32H698.37V57.728C698.37 63.472 696.946 66.912 693.698 67.024V64.528C695.09 64.24 695.778 62.064 695.778 57.968V56.752H694.242ZM715.12 54H717.824V67.664H715.12V54ZM711.04 56.8C711.008 58.032 710.896 59.168 710.704 60.208L714.672 65.36L712.528 66.96L709.776 63.216C708.672 65.648 706.928 67.008 704.848 67.024V64.304C706.848 64.08 708.224 61.184 708.32 56.8H705.232V54.32H713.968V56.8H711.04Z" fill="#AFAFAF"/>
<path d="M825.296 67.744C822.464 67.744 820.736 66.144 820.528 63.632H823.392C823.504 64.672 824.096 65.28 825.296 65.28C826.48 65.28 827.2 64.4 827.2 63.2C827.2 61.984 826.496 61.136 825.248 61.136C824.336 61.136 823.76 61.536 823.408 62.016H820.768L821.152 54.4H829.392V56.88H823.792L823.648 59.328C824.208 58.992 824.912 58.784 825.744 58.784C828.304 58.784 830.032 60.432 830.032 63.2C830.032 65.952 827.984 67.744 825.296 67.744ZM836.015 58.912C833.567 58.912 831.887 58.032 831.887 56.384C831.887 54.736 833.567 53.856 836.015 53.856C838.463 53.856 840.143 54.736 840.143 56.384C840.143 58.032 838.463 58.912 836.015 58.912ZM841.935 61.392V57.68H840.687V55.28H841.935V54H844.639V61.392H841.935ZM836.015 55.696C835.055 55.696 834.463 55.936 834.463 56.384C834.463 56.832 835.055 57.072 836.015 57.072C836.975 57.072 837.567 56.832 837.567 56.384C837.567 55.936 836.975 55.696 836.015 55.696ZM835.055 65.968H844.799V67.664H832.431V64.048H841.999V63.568H832.399V61.872H834.671V61.232H831.327V59.296H837.615C838.879 59.296 840.303 59.136 841.151 58.816V60.736C840.303 61.104 838.927 61.232 837.567 61.232H837.327V61.872H844.639V65.488H835.055V65.968ZM860.498 63.888C860.498 66.256 858.306 67.76 855.538 67.76C852.77 67.76 850.578 66.256 850.578 63.888C850.578 62.08 852.066 60.928 853.218 60.688C852.21 60.384 851.026 59.264 851.026 57.776C851.026 55.728 852.882 54.048 855.538 54.048C858.21 54.048 860.018 55.76 860.018 57.776C860.018 59.264 858.85 60.384 857.858 60.688C859.026 60.928 860.498 62.08 860.498 63.888ZM857.298 57.888C857.298 57.056 856.578 56.416 855.538 56.416C854.53 56.416 853.778 56.992 853.778 57.824C853.778 58.736 854.562 59.376 855.538 59.376C856.546 59.376 857.298 58.768 857.298 57.888ZM857.698 63.712C857.698 62.736 856.786 62.016 855.538 62.016C854.29 62.016 853.378 62.736 853.378 63.712C853.378 64.656 854.258 65.36 855.538 65.36C856.818 65.36 857.698 64.656 857.698 63.712ZM874.813 54V60.688H872.109V54H874.813ZM866.077 54.016C868.765 54.016 870.477 55.36 870.477 57.328C870.477 59.312 868.765 60.64 866.077 60.64C863.389 60.64 861.677 59.312 861.677 57.328C861.677 55.36 863.389 54.016 866.077 54.016ZM866.077 56.144C865.037 56.144 864.349 56.608 864.349 57.328C864.349 58.048 865.037 58.512 866.077 58.512C867.117 58.512 867.805 58.048 867.805 57.328C867.805 56.608 867.117 56.144 866.077 56.144ZM874.813 61.168V65.248H865.437V65.792H874.957V67.664H862.765V63.584H872.141V63.04H862.733V61.168H874.813ZM879.5 68.064C877.676 66.112 876.492 63.776 876.492 60.816C876.492 57.856 877.676 55.52 879.5 53.568H882.364C880.54 55.472 879.276 57.936 879.276 60.816C879.276 63.696 880.54 66.16 882.364 68.064H879.5ZM891.471 60.368H897.039V62.528H883.215V60.368H888.783V59.552H884.047V54H896.207V59.552H891.471V60.368ZM886.719 56.08V57.472H893.535V56.08H886.719ZM883.951 65.376V63.232H896.239V67.824H893.503V65.376H883.951ZM900.749 68.064H897.885C899.709 66.16 900.973 63.696 900.973 60.816C900.973 57.936 899.709 55.472 897.885 53.568H900.749C902.573 55.52 903.757 57.856 903.757 60.816C903.757 63.776 902.573 66.112 900.749 68.064ZM909.172 59.856C909.748 59.36 910.484 59.12 911.316 59.12C912.74 59.12 913.796 60.176 915.076 60.176C915.892 60.176 916.42 59.888 916.964 59.296V61.808C916.388 62.384 915.652 62.672 914.82 62.672C913.412 62.672 912.34 61.616 911.06 61.616C910.244 61.616 909.716 61.856 909.172 62.368V59.856ZM927.223 67.744C924.391 67.744 922.663 66.144 922.455 63.632H925.319C925.431 64.672 926.023 65.28 927.223 65.28C928.407 65.28 929.127 64.4 929.127 63.2C929.127 61.984 928.423 61.136 927.175 61.136C926.263 61.136 925.687 61.536 925.335 62.016H922.695L923.079 54.4H931.319V56.88H925.719L925.575 59.328C926.135 58.992 926.839 58.784 927.671 58.784C930.231 58.784 931.959 60.432 931.959 63.2C931.959 65.952 929.911 67.744 927.223 67.744ZM937.943 58.912C935.495 58.912 933.815 58.032 933.815 56.384C933.815 54.736 935.495 53.856 937.943 53.856C940.391 53.856 942.071 54.736 942.071 56.384C942.071 58.032 940.391 58.912 937.943 58.912ZM943.863 61.392V57.68H942.615V55.28H943.863V54H946.567V61.392H943.863ZM937.943 55.696C936.983 55.696 936.391 55.936 936.391 56.384C936.391 56.832 936.983 57.072 937.943 57.072C938.903 57.072 939.495 56.832 939.495 56.384C939.495 55.936 938.903 55.696 937.943 55.696ZM936.983 65.968H946.727V67.664H934.359V64.048H943.927V63.568H934.327V61.872H936.599V61.232H933.255V59.296H939.543C940.807 59.296 942.231 59.136 943.079 58.816V60.736C942.231 61.104 940.855 61.232 939.495 61.232H939.255V61.872H946.567V65.488H936.983V65.968ZM957.706 54.4V67.44H954.81V56.928H952.506V54.4H957.706ZM964.755 67.744C961.923 67.744 960.195 66.144 959.987 63.632H962.851C962.963 64.672 963.555 65.28 964.755 65.28C965.939 65.28 966.659 64.4 966.659 63.2C966.659 61.984 965.955 61.136 964.707 61.136C963.795 61.136 963.219 61.536 962.867 62.016H960.227L960.611 54.4H968.851V56.88H963.251L963.107 59.328C963.667 58.992 964.371 58.784 965.203 58.784C967.763 58.784 969.491 60.432 969.491 63.2C969.491 65.952 967.443 67.744 964.755 67.744ZM984.003 54V60.688H981.299V54H984.003ZM975.267 54.016C977.955 54.016 979.667 55.36 979.667 57.328C979.667 59.312 977.955 60.64 975.267 60.64C972.579 60.64 970.867 59.312 970.867 57.328C970.867 55.36 972.579 54.016 975.267 54.016ZM975.267 56.144C974.227 56.144 973.539 56.608 973.539 57.328C973.539 58.048 974.227 58.512 975.267 58.512C976.307 58.512 976.995 58.048 976.995 57.328C976.995 56.608 976.307 56.144 975.267 56.144ZM984.003 61.168V65.248H974.627V65.792H984.147V67.664H971.955V63.584H981.331V63.04H971.923V61.168H984.003ZM988.689 68.064C986.865 66.112 985.681 63.776 985.681 60.816C985.681 57.856 986.865 55.52 988.689 53.568H991.553C989.729 55.472 988.465 57.936 988.465 60.816C988.465 63.696 989.729 66.16 991.553 68.064H988.689ZM1000.66 60.368H1006.23V62.528H992.404V60.368H997.972V59.552H993.236V54H1005.4V59.552H1000.66V60.368ZM995.908 56.08V57.472H1002.72V56.08H995.908ZM993.14 65.376V63.232H1005.43V67.824H1002.69V65.376H993.14ZM1009.94 68.064H1007.07C1008.9 66.16 1010.16 63.696 1010.16 60.816C1010.16 57.936 1008.9 55.472 1007.07 53.568H1009.94C1011.76 55.52 1012.95 57.856 1012.95 60.816C1012.95 63.776 1011.76 66.112 1009.94 68.064Z" fill="#AFAFAF"/>
<path d="M101.536 534.4V536.128L96.688 547.44H93.648L98.144 536.928H92.576V534.4H101.536ZM107.328 538.912C104.88 538.912 103.2 538.032 103.2 536.384C103.2 534.736 104.88 533.856 107.328 533.856C109.776 533.856 111.456 534.736 111.456 536.384C111.456 538.032 109.776 538.912 107.328 538.912ZM113.248 541.392V537.68H112V535.28H113.248V534H115.952V541.392H113.248ZM107.328 535.696C106.368 535.696 105.776 535.936 105.776 536.384C105.776 536.832 106.368 537.072 107.328 537.072C108.288 537.072 108.88 536.832 108.88 536.384C108.88 535.936 108.288 535.696 107.328 535.696ZM106.368 545.968H116.112V547.664H103.744V544.048H113.312V543.568H103.712V541.872H105.984V541.232H102.64V539.296H108.928C110.192 539.296 111.616 539.136 112.464 538.816V540.736C111.616 541.104 110.24 541.232 108.88 541.232H108.64V541.872H115.952V545.488H106.368V545.968ZM126.563 534.048C129.491 534.048 131.219 535.776 131.219 538.144C131.219 539.504 130.563 540.672 128.275 543.04L126.403 544.976H131.475V547.44H122.147V545.776L126.419 541.376C127.987 539.76 128.355 538.912 128.355 538.176C128.355 537.216 127.827 536.576 126.563 536.576C125.379 536.576 124.739 537.536 124.739 538.528H121.875C121.875 535.968 123.811 534.048 126.563 534.048ZM137.975 547.44V544.816H132.119V542.416L137.159 534.4H140.727V542.416H142.439V544.816H140.727V547.44H137.975ZM134.903 542.416H137.975V537.392L134.903 542.416ZM156.591 534V540.688H153.887V534H156.591ZM147.855 534.016C150.543 534.016 152.255 535.36 152.255 537.328C152.255 539.312 150.543 540.64 147.855 540.64C145.167 540.64 143.455 539.312 143.455 537.328C143.455 535.36 145.167 534.016 147.855 534.016ZM147.855 536.144C146.815 536.144 146.127 536.608 146.127 537.328C146.127 538.048 146.815 538.512 147.855 538.512C148.895 538.512 149.583 538.048 149.583 537.328C149.583 536.608 148.895 536.144 147.855 536.144ZM156.591 541.168V545.248H147.215V545.792H156.735V547.664H144.543V543.584H153.919V543.04H144.511V541.168H156.591ZM161.277 548.064C159.453 546.112 158.269 543.776 158.269 540.816C158.269 537.856 159.453 535.52 161.277 533.568H164.141C162.317 535.472 161.053 537.936 161.053 540.816C161.053 543.696 162.317 546.16 164.141 548.064H161.277ZM173.248 540.368H178.816V542.528H164.992V540.368H170.56V539.552H165.824V534H177.984V539.552H173.248V540.368ZM168.496 536.08V537.472H175.312V536.08H168.496ZM165.728 545.376V543.232H178.016V547.824H175.28V545.376H165.728ZM182.527 548.064H179.663C181.487 546.16 182.751 543.696 182.751 540.816C182.751 537.936 181.487 535.472 179.663 533.568H182.527C184.351 535.52 185.535 537.856 185.535 540.816C185.535 543.776 184.351 546.112 182.527 548.064ZM190.95 539.856C191.526 539.36 192.262 539.12 193.094 539.12C194.518 539.12 195.574 540.176 196.854 540.176C197.67 540.176 198.198 539.888 198.742 539.296V541.808C198.166 542.384 197.43 542.672 196.598 542.672C195.19 542.672 194.118 541.616 192.838 541.616C192.022 541.616 191.494 541.856 190.95 542.368V539.856ZM214.105 543.888C214.105 546.256 211.913 547.76 209.145 547.76C206.377 547.76 204.185 546.256 204.185 543.888C204.185 542.08 205.673 540.928 206.825 540.688C205.817 540.384 204.633 539.264 204.633 537.776C204.633 535.728 206.489 534.048 209.145 534.048C211.817 534.048 213.625 535.76 213.625 537.776C213.625 539.264 212.457 540.384 211.465 540.688C212.633 540.928 214.105 542.08 214.105 543.888ZM210.905 537.888C210.905 537.056 210.185 536.416 209.145 536.416C208.137 536.416 207.385 536.992 207.385 537.824C207.385 538.736 208.169 539.376 209.145 539.376C210.153 539.376 210.905 538.768 210.905 537.888ZM211.305 543.712C211.305 542.736 210.393 542.016 209.145 542.016C207.897 542.016 206.985 542.736 206.985 543.712C206.985 544.656 207.865 545.36 209.145 545.36C210.425 545.36 211.305 544.656 211.305 543.712ZM219.892 538.912C217.444 538.912 215.764 538.032 215.764 536.384C215.764 534.736 217.444 533.856 219.892 533.856C222.34 533.856 224.02 534.736 224.02 536.384C224.02 538.032 222.34 538.912 219.892 538.912ZM225.812 541.392V537.68H224.564V535.28H225.812V534H228.516V541.392H225.812ZM219.892 535.696C218.932 535.696 218.34 535.936 218.34 536.384C218.34 536.832 218.932 537.072 219.892 537.072C220.852 537.072 221.444 536.832 221.444 536.384C221.444 535.936 220.852 535.696 219.892 535.696ZM218.932 545.968H228.676V547.664H216.308V544.048H225.876V543.568H216.276V541.872H218.548V541.232H215.204V539.296H221.492C222.756 539.296 224.18 539.136 225.028 538.816V540.736C224.18 541.104 222.804 541.232 221.444 541.232H221.204V541.872H228.516V545.488H218.932V545.968ZM239.127 534.048C242.055 534.048 243.783 535.776 243.783 538.144C243.783 539.504 243.127 540.672 240.839 543.04L238.967 544.976H244.039V547.44H234.711V545.776L238.983 541.376C240.551 539.76 240.919 538.912 240.919 538.176C240.919 537.216 240.391 536.576 239.127 536.576C237.943 536.576 237.303 537.536 237.303 538.528H234.439C234.439 535.968 236.375 534.048 239.127 534.048ZM254.887 543.888C254.887 546.256 252.695 547.76 249.927 547.76C247.159 547.76 244.967 546.256 244.967 543.888C244.967 542.08 246.455 540.928 247.607 540.688C246.599 540.384 245.415 539.264 245.415 537.776C245.415 535.728 247.271 534.048 249.927 534.048C252.599 534.048 254.407 535.76 254.407 537.776C254.407 539.264 253.239 540.384 252.247 540.688C253.415 540.928 254.887 542.08 254.887 543.888ZM251.687 537.888C251.687 537.056 250.967 536.416 249.927 536.416C248.919 536.416 248.167 536.992 248.167 537.824C248.167 538.736 248.951 539.376 249.927 539.376C250.935 539.376 251.687 538.768 251.687 537.888ZM252.087 543.712C252.087 542.736 251.175 542.016 249.927 542.016C248.679 542.016 247.767 542.736 247.767 543.712C247.767 544.656 248.647 545.36 249.927 545.36C251.207 545.36 252.087 544.656 252.087 543.712ZM269.202 534V540.688H266.498V534H269.202ZM260.466 534.016C263.154 534.016 264.866 535.36 264.866 537.328C264.866 539.312 263.154 540.64 260.466 540.64C257.778 540.64 256.066 539.312 256.066 537.328C256.066 535.36 257.778 534.016 260.466 534.016ZM260.466 536.144C259.426 536.144 258.738 536.608 258.738 537.328C258.738 538.048 259.426 538.512 260.466 538.512C261.506 538.512 262.194 538.048 262.194 537.328C262.194 536.608 261.506 536.144 260.466 536.144ZM269.202 541.168V545.248H259.826V545.792H269.346V547.664H257.154V543.584H266.53V543.04H257.122V541.168H269.202ZM273.888 548.064C272.064 546.112 270.88 543.776 270.88 540.816C270.88 537.856 272.064 535.52 273.888 533.568H276.752C274.928 535.472 273.664 537.936 273.664 540.816C273.664 543.696 274.928 546.16 276.752 548.064H273.888ZM285.859 540.368H291.427V542.528H277.603V540.368H283.171V539.552H278.435V534H290.595V539.552H285.859V540.368ZM281.107 536.08V537.472H287.923V536.08H281.107ZM278.339 545.376V543.232H290.627V547.824H287.891V545.376H278.339ZM295.138 548.064H292.274C294.098 546.16 295.362 543.696 295.362 540.816C295.362 537.936 294.098 535.472 292.274 533.568H295.138C296.962 535.52 298.146 537.856 298.146 540.816C298.146 543.776 296.962 546.112 295.138 548.064Z" fill="#AFAFAF"/>
<path d="M460.296 307.744C457.464 307.744 455.736 306.144 455.528 303.632H458.392C458.504 304.672 459.096 305.28 460.296 305.28C461.48 305.28 462.2 304.4 462.2 303.2C462.2 301.984 461.496 301.136 460.248 301.136C459.336 301.136 458.76 301.536 458.408 302.016H455.768L456.152 294.4H464.392V296.88H458.792L458.648 299.328C459.208 298.992 459.912 298.784 460.744 298.784C463.304 298.784 465.032 300.432 465.032 303.2C465.032 305.952 462.984 307.744 460.296 307.744ZM471.015 298.912C468.567 298.912 466.887 298.032 466.887 296.384C466.887 294.736 468.567 293.856 471.015 293.856C473.463 293.856 475.143 294.736 475.143 296.384C475.143 298.032 473.463 298.912 471.015 298.912ZM476.935 301.392V297.68H475.687V295.28H476.935V294H479.639V301.392H476.935ZM471.015 295.696C470.055 295.696 469.463 295.936 469.463 296.384C469.463 296.832 470.055 297.072 471.015 297.072C471.975 297.072 472.567 296.832 472.567 296.384C472.567 295.936 471.975 295.696 471.015 295.696ZM470.055 305.968H479.799V307.664H467.431V304.048H476.999V303.568H467.399V301.872H469.671V301.232H466.327V299.296H472.615C473.879 299.296 475.303 299.136 476.151 298.816V300.736C475.303 301.104 473.927 301.232 472.567 301.232H472.327V301.872H479.639V305.488H470.055V305.968ZM490.25 294.048C493.178 294.048 494.906 295.776 494.906 298.144C494.906 299.504 494.25 300.672 491.962 303.04L490.09 304.976H495.162V307.44H485.834V305.776L490.106 301.376C491.674 299.76 492.042 298.912 492.042 298.176C492.042 297.216 491.514 296.576 490.25 296.576C489.066 296.576 488.426 297.536 488.426 298.528H485.562C485.562 295.968 487.498 294.048 490.25 294.048ZM497.962 307.44L500.922 303.024C500.842 303.056 500.698 303.088 500.554 303.088C498.01 303.088 495.914 301.312 495.914 298.672C495.914 295.888 498.138 294.096 500.858 294.096C503.578 294.096 505.802 295.872 505.802 298.656C505.802 299.92 505.386 300.896 504.618 302.112L501.258 307.44H497.962ZM500.858 300.72C502.154 300.72 502.97 299.808 502.97 298.64C502.97 297.472 502.154 296.56 500.858 296.56C499.562 296.56 498.746 297.472 498.746 298.64C498.746 299.808 499.562 300.72 500.858 300.72ZM520.153 294V300.688H517.449V294H520.153ZM511.417 294.016C514.105 294.016 515.817 295.36 515.817 297.328C515.817 299.312 514.105 300.64 511.417 300.64C508.729 300.64 507.017 299.312 507.017 297.328C507.017 295.36 508.729 294.016 511.417 294.016ZM511.417 296.144C510.377 296.144 509.689 296.608 509.689 297.328C509.689 298.048 510.377 298.512 511.417 298.512C512.457 298.512 513.145 298.048 513.145 297.328C513.145 296.608 512.457 296.144 511.417 296.144ZM520.153 301.168V305.248H510.777V305.792H520.297V307.664H508.105V303.584H517.481V303.04H508.073V301.168H520.153ZM524.84 308.064C523.016 306.112 521.832 303.776 521.832 300.816C521.832 297.856 523.016 295.52 524.84 293.568H527.704C525.88 295.472 524.616 297.936 524.616 300.816C524.616 303.696 525.88 306.16 527.704 308.064H524.84ZM536.811 300.368H542.379V302.528H528.555V300.368H534.123V299.552H529.387V294H541.547V299.552H536.811V300.368ZM532.059 296.08V297.472H538.875V296.08H532.059ZM529.291 305.376V303.232H541.579V307.824H538.843V305.376H529.291ZM546.089 308.064H543.225C545.049 306.16 546.313 303.696 546.313 300.816C546.313 297.936 545.049 295.472 543.225 293.568H546.089C547.913 295.52 549.097 297.856 549.097 300.816C549.097 303.776 547.913 306.112 546.089 308.064ZM554.513 299.856C555.089 299.36 555.825 299.12 556.657 299.12C558.081 299.12 559.137 300.176 560.417 300.176C561.233 300.176 561.761 299.888 562.305 299.296V301.808C561.729 302.384 560.993 302.672 560.161 302.672C558.753 302.672 557.681 301.616 556.401 301.616C555.585 301.616 555.057 301.856 554.513 302.368V299.856ZM576.804 294.4V296.128L571.956 307.44H568.916L573.412 296.928H567.844V294.4H576.804ZM582.595 298.912C580.147 298.912 578.467 298.032 578.467 296.384C578.467 294.736 580.147 293.856 582.595 293.856C585.043 293.856 586.723 294.736 586.723 296.384C586.723 298.032 585.043 298.912 582.595 298.912ZM588.515 301.392V297.68H587.267V295.28H588.515V294H591.219V301.392H588.515ZM582.595 295.696C581.635 295.696 581.043 295.936 581.043 296.384C581.043 296.832 581.635 297.072 582.595 297.072C583.555 297.072 584.147 296.832 584.147 296.384C584.147 295.936 583.555 295.696 582.595 295.696ZM581.635 305.968H591.379V307.664H579.011V304.048H588.579V303.568H578.979V301.872H581.251V301.232H577.907V299.296H584.195C585.459 299.296 586.883 299.136 587.731 298.816V300.736C586.883 301.104 585.507 301.232 584.147 301.232H583.907V301.872H591.219V305.488H581.635V305.968ZM602.358 294.4V307.44H599.462V296.928H597.158V294.4H602.358ZM613.46 294.4V296.128L608.612 307.44H605.572L610.068 296.928H604.5V294.4H613.46ZM627.78 294V300.688H625.076V294H627.78ZM619.044 294.016C621.732 294.016 623.444 295.36 623.444 297.328C623.444 299.312 621.732 300.64 619.044 300.64C616.356 300.64 614.644 299.312 614.644 297.328C614.644 295.36 616.356 294.016 619.044 294.016ZM619.044 296.144C618.004 296.144 617.316 296.608 617.316 297.328C617.316 298.048 618.004 298.512 619.044 298.512C620.084 298.512 620.772 298.048 620.772 297.328C620.772 296.608 620.084 296.144 619.044 296.144ZM627.78 301.168V305.248H618.404V305.792H627.924V307.664H615.732V303.584H625.108V303.04H615.7V301.168H627.78ZM632.467 308.064C630.643 306.112 629.459 303.776 629.459 300.816C629.459 297.856 630.643 295.52 632.467 293.568H635.331C633.507 295.472 632.243 297.936 632.243 300.816C632.243 303.696 633.507 306.16 635.331 308.064H632.467ZM644.438 300.368H650.006V302.528H636.182V300.368H641.75V299.552H637.014V294H649.174V299.552H644.438V300.368ZM639.686 296.08V297.472H646.502V296.08H639.686ZM636.918 305.376V303.232H649.206V307.824H646.47V305.376H636.918ZM653.716 308.064H650.852C652.676 306.16 653.94 303.696 653.94 300.816C653.94 297.936 652.676 295.472 650.852 293.568H653.716C655.54 295.52 656.724 297.856 656.724 300.816C656.724 303.776 655.54 306.112 653.716 308.064Z" fill="#AFAFAF"/>
<path d="M101.536 294.4V296.128L96.688 307.44H93.648L98.144 296.928H92.576V294.4H101.536ZM107.328 298.912C104.88 298.912 103.2 298.032 103.2 296.384C103.2 294.736 104.88 293.856 107.328 293.856C109.776 293.856 111.456 294.736 111.456 296.384C111.456 298.032 109.776 298.912 107.328 298.912ZM113.248 301.392V297.68H112V295.28H113.248V294H115.952V301.392H113.248ZM107.328 295.696C106.368 295.696 105.776 295.936 105.776 296.384C105.776 296.832 106.368 297.072 107.328 297.072C108.288 297.072 108.88 296.832 108.88 296.384C108.88 295.936 108.288 295.696 107.328 295.696ZM106.368 305.968H116.112V307.664H103.744V304.048H113.312V303.568H103.712V301.872H105.984V301.232H102.64V299.296H108.928C110.192 299.296 111.616 299.136 112.464 298.816V300.736C111.616 301.104 110.24 301.232 108.88 301.232H108.64V301.872H115.952V305.488H106.368V305.968ZM127.091 294.4V307.44H124.195V296.928H121.891V294.4H127.091ZM135.084 307.44V304.816H129.228V302.416L134.268 294.4H137.836V302.416H139.548V304.816H137.836V307.44H135.084ZM132.012 302.416H135.084V297.392L132.012 302.416ZM153.7 294V300.688H150.996V294H153.7ZM144.964 294.016C147.652 294.016 149.364 295.36 149.364 297.328C149.364 299.312 147.652 300.64 144.964 300.64C142.276 300.64 140.564 299.312 140.564 297.328C140.564 295.36 142.276 294.016 144.964 294.016ZM144.964 296.144C143.924 296.144 143.236 296.608 143.236 297.328C143.236 298.048 143.924 298.512 144.964 298.512C146.004 298.512 146.692 298.048 146.692 297.328C146.692 296.608 146.004 296.144 144.964 296.144ZM153.7 301.168V305.248H144.324V305.792H153.844V307.664H141.652V303.584H151.028V303.04H141.62V301.168H153.7ZM158.387 308.064C156.563 306.112 155.379 303.776 155.379 300.816C155.379 297.856 156.563 295.52 158.387 293.568H161.251C159.427 295.472 158.163 297.936 158.163 300.816C158.163 303.696 159.427 306.16 161.251 308.064H158.387ZM166.789 298.912C164.341 298.912 162.661 298.032 162.661 296.384C162.661 294.736 164.341 293.856 166.789 293.856C169.237 293.856 170.917 294.736 170.917 296.384C170.917 298.032 169.237 298.912 166.789 298.912ZM172.709 301.392V297.68H171.461V295.28H172.709V294H175.413V301.392H172.709ZM166.789 295.696C165.829 295.696 165.237 295.936 165.237 296.384C165.237 296.832 165.829 297.072 166.789 297.072C167.749 297.072 168.341 296.832 168.341 296.384C168.341 295.936 167.749 295.696 166.789 295.696ZM165.829 305.968H175.573V307.664H163.205V304.048H172.773V303.568H163.173V301.872H165.445V301.232H162.101V299.296H168.389C169.653 299.296 171.077 299.136 171.925 298.816V300.736C171.077 301.104 169.701 301.232 168.341 301.232H168.101V301.872H175.413V305.488H165.829V305.968ZM179.636 308.064H176.772C178.596 306.16 179.86 303.696 179.86 300.816C179.86 297.936 178.596 295.472 176.772 293.568H179.636C181.46 295.52 182.644 297.856 182.644 300.816C182.644 303.776 181.46 306.112 179.636 308.064Z" fill="#AFAFAF"/>
<path d="M473.46 498.928V492.714H469.456V488.788H473.46V486.5H477.854V498.928H473.46ZM463.996 494.612C462.15 497.03 459.446 498.642 456.222 498.824V494.872C459.68 494.456 462.02 491.076 462.098 486.604L466.518 486.864C466.518 488.424 466.258 489.906 465.764 491.284L471.744 495.314L469.326 498.33L463.996 494.612ZM467.922 499.24C473.59 499.24 478.062 500.488 478.062 504.102C478.062 507.716 473.59 508.964 467.922 508.964C462.254 508.964 457.782 507.716 457.782 504.102C457.782 500.488 462.254 499.24 467.922 499.24ZM467.922 505.506C470.912 505.506 473.33 505.116 473.33 504.102C473.33 503.114 470.912 502.698 467.922 502.698C464.932 502.698 462.514 503.114 462.514 504.102C462.514 505.116 464.932 505.506 467.922 505.506ZM504.476 494.404V498.668H501.928V508.704H497.534V486.5H501.928V494.404H504.476ZM490.41 501.034V491.232H481.7V487.15H494.83V501.034H490.41ZM488.278 503.556H490.514C492.568 503.556 494.882 503.296 496.26 502.672V506.78C494.882 507.404 492.646 507.664 490.436 507.664H481.024V503.556H483.858V495.522H488.278V503.556ZM522.414 493.962V490.062H507.074V486.5H526.834V493.962H522.414ZM517.526 495.002H528.238V498.512H505.774V495.002H513.106V491.7H517.526V495.002ZM517.006 499.656C522.986 499.656 527.146 500.956 527.146 504.31C527.146 507.664 522.986 508.964 517.006 508.964C511.026 508.964 506.866 507.664 506.866 504.31C506.866 500.956 511.026 499.656 517.006 499.656ZM517.006 505.636C520.23 505.636 522.466 505.22 522.466 504.31C522.466 503.426 520.23 502.984 517.006 502.984C513.782 502.984 511.546 503.426 511.546 504.31C511.546 505.22 513.782 505.636 517.006 505.636ZM541.755 498.694C535.567 498.694 531.537 496.328 531.537 492.558C531.537 488.788 535.567 486.422 541.755 486.422C547.943 486.422 551.973 488.788 551.973 492.558C551.973 496.328 547.943 498.694 541.755 498.694ZM541.755 490.296C538.583 490.296 536.165 491.076 536.165 492.558C536.165 494.014 538.583 494.82 541.755 494.82C544.927 494.82 547.345 494.014 547.345 492.558C547.345 491.076 544.927 490.296 541.755 490.296ZM552.987 500.02V504.024H548.281V509.224H543.913V504.024H539.597V509.224H535.229V504.024H530.523V500.02H552.987ZM570.535 488.424V492.168H555.351V488.424H560.655V486.344H565.179V488.424H570.535ZM572.407 486.5H576.801V508.704H572.407V486.5ZM565.127 503.79H565.387C567.441 503.79 569.755 503.53 571.133 502.906V506.78C569.755 507.404 567.519 507.664 565.309 507.664H555.273V503.79H560.733V501.918C558.003 501.398 556.183 499.89 556.183 497.472C556.183 494.456 559.043 492.844 562.969 492.844C566.895 492.844 569.755 494.456 569.755 497.472C569.755 499.916 567.909 501.424 565.127 501.918V503.79ZM560.291 497.472C560.291 498.252 561.383 498.642 562.969 498.642C564.555 498.642 565.647 498.252 565.647 497.472C565.647 496.692 564.555 496.302 562.969 496.302C561.383 496.302 560.291 496.692 560.291 497.472Z" fill="#4C4036"/>
<path d="M457.352 547.44L460.312 543.024C460.232 543.056 460.088 543.088 459.944 543.088C457.4 543.088 455.304 541.312 455.304 538.672C455.304 535.888 457.528 534.096 460.248 534.096C462.968 534.096 465.192 535.872 465.192 538.656C465.192 539.92 464.776 540.896 464.008 542.112L460.648 547.44H457.352ZM460.248 540.72C461.544 540.72 462.36 539.808 462.36 538.64C462.36 537.472 461.544 536.56 460.248 536.56C458.952 536.56 458.136 537.472 458.136 538.64C458.136 539.808 458.952 540.72 460.248 540.72ZM471.015 538.912C468.567 538.912 466.887 538.032 466.887 536.384C466.887 534.736 468.567 533.856 471.015 533.856C473.463 533.856 475.143 534.736 475.143 536.384C475.143 538.032 473.463 538.912 471.015 538.912ZM476.935 541.392V537.68H475.687V535.28H476.935V534H479.639V541.392H476.935ZM471.015 535.696C470.055 535.696 469.463 535.936 469.463 536.384C469.463 536.832 470.055 537.072 471.015 537.072C471.975 537.072 472.567 536.832 472.567 536.384C472.567 535.936 471.975 535.696 471.015 535.696ZM470.055 545.968H479.799V547.664H467.431V544.048H476.999V543.568H467.399V541.872H469.671V541.232H466.327V539.296H472.615C473.879 539.296 475.303 539.136 476.151 538.816V540.736C475.303 541.104 473.927 541.232 472.567 541.232H472.327V541.872H479.639V545.488H470.055V545.968ZM490.778 534.4V547.44H487.882V536.928H485.578V534.4H490.778ZM498.212 534.4V547.44H495.316V536.928H493.012V534.4H498.212ZM513.966 534V540.688H511.262V534H513.966ZM505.23 534.016C507.918 534.016 509.63 535.36 509.63 537.328C509.63 539.312 507.918 540.64 505.23 540.64C502.542 540.64 500.83 539.312 500.83 537.328C500.83 535.36 502.542 534.016 505.23 534.016ZM505.23 536.144C504.19 536.144 503.502 536.608 503.502 537.328C503.502 538.048 504.19 538.512 505.23 538.512C506.27 538.512 506.958 538.048 506.958 537.328C506.958 536.608 506.27 536.144 505.23 536.144ZM513.966 541.168V545.248H504.59V545.792H514.11V547.664H501.918V543.584H511.294V543.04H501.886V541.168H513.966ZM518.652 548.064C516.828 546.112 515.644 543.776 515.644 540.816C515.644 537.856 516.828 535.52 518.652 533.568H521.516C519.692 535.472 518.428 537.936 518.428 540.816C518.428 543.696 519.692 546.16 521.516 548.064H518.652ZM530.623 540.368H536.191V542.528H522.367V540.368H527.935V539.552H523.199V534H535.359V539.552H530.623V540.368ZM525.871 536.08V537.472H532.687V536.08H525.871ZM523.103 545.376V543.232H535.391V547.824H532.655V545.376H523.103ZM539.902 548.064H537.038C538.862 546.16 540.126 543.696 540.126 540.816C540.126 537.936 538.862 535.472 537.038 533.568H539.902C541.726 535.52 542.91 537.856 542.91 540.816C542.91 543.776 541.726 546.112 539.902 548.064Z" fill="#AFAFAF"/>
<path d="M458.1 122.5H451.6V125.66H454.48V138.8H458.1V122.5Z" fill="white"/>
<path d="M819.77 122.06C816.33 122.06 813.91 124.46 813.91 127.66H817.49C817.49 126.42 818.29 125.22 819.77 125.22C821.35 125.22 822.01 126.02 822.01 127.22C822.01 128.14 821.55 129.2 819.59 131.22L814.25 136.72V138.8H825.91V135.72H819.57L821.91 133.3C824.77 130.34 825.59 128.88 825.59 127.18C825.59 124.22 823.43 122.06 819.77 122.06Z" fill="white"/>
<path d="M819.791 362.06C816.451 362.06 814.111 364.3 814.111 367.4H817.691C817.691 366.24 818.351 365.1 819.771 365.1C821.131 365.1 821.931 365.84 821.931 367.04C821.931 368.28 821.051 369.08 819.571 369.08H817.951V372.04H819.571C821.271 372.04 822.411 372.76 822.411 374.12C822.411 375.32 821.411 376.14 819.911 376.14C818.391 376.14 817.571 375.36 817.431 374.06H813.851C814.111 377.2 816.331 379.2 819.911 379.2C823.291 379.2 825.951 377.24 825.951 374.1C825.951 372 824.271 370.7 822.771 370.46C824.131 370.22 825.511 368.84 825.511 366.96C825.511 364.04 823.171 362.06 819.791 362.06Z" fill="white"/>
<path d="M455.915 378.8H459.355V375.52H461.495V372.52H459.355V362.5H454.895L448.595 372.52V375.52H455.915V378.8ZM452.075 372.52L455.915 366.24V372.52H452.075Z" fill="white"/>
<path d="M91.9305 379.18C95.2905 379.18 97.8505 376.94 97.8505 373.5C97.8505 370.04 95.6905 367.98 92.4905 367.98C91.4505 367.98 90.5705 368.24 89.8705 368.66L90.0505 365.6H97.0505V362.5H86.7505L86.2705 372.02H89.5705C90.0105 371.42 90.7305 370.92 91.8705 370.92C93.4305 370.92 94.3105 371.98 94.3105 373.5C94.3105 375 93.4105 376.1 91.9305 376.1C90.4305 376.1 89.6905 375.34 89.5505 374.04H85.9705C86.2305 377.18 88.3905 379.18 91.9305 379.18Z" fill="white"/>
<path d="M92.1305 619.18C95.5505 619.18 98.3105 616.8 98.3105 613.46C98.3105 610.16 95.6905 607.94 92.5105 607.94C92.3305 607.94 92.1505 607.98 92.0505 608.02L95.7505 602.5H91.6305L87.4305 609.16C86.4705 610.68 85.9505 611.9 85.9505 613.48C85.9505 616.96 88.7305 619.18 92.1305 619.18ZM92.1305 616.1C90.5105 616.1 89.4905 614.96 89.4905 613.5C89.4905 612.04 90.5105 610.9 92.1305 610.9C93.7505 610.9 94.7705 612.04 94.7705 613.5C94.7705 614.96 93.7505 616.1 92.1305 616.1Z" fill="white"/>
<path d="M461.16 602.5H449.96V605.66H456.92L451.3 618.8H455.1L461.16 604.66V602.5Z" fill="white"/>
<g clip-path="url(#clip0_69_1959)">
<path d="M786.876 569.363L815.328 596.573L737.616 677.786C731.185 684.506 720.499 684.743 713.777 678.315L709.681 674.397C702.959 667.969 702.722 657.285 709.152 650.565L786.865 569.352L786.876 569.363Z" fill="#AFAFB0"/>
<path d="M840.304 642.335C895.641 642.335 940.5 597.488 940.5 542.168C940.5 486.847 895.641 442 840.304 442C784.967 442 740.108 486.847 740.108 542.168C740.108 597.488 784.967 642.335 840.304 642.335Z" fill="#84672B"/>
<path d="M785.49 599.452C753.884 569.228 752.77 518.95 783.003 487.353C813.236 455.756 863.528 454.642 895.134 484.867C926.74 515.091 927.854 565.369 897.621 596.966C867.388 628.563 817.096 629.677 785.49 599.452Z" fill="#F2ECDF"/>
<path opacity="0.8" d="M785.49 599.452C753.884 569.228 752.77 518.95 783.003 487.353C813.236 455.756 863.528 454.642 895.134 484.867C926.74 515.091 927.854 565.369 897.621 596.966C867.388 628.563 817.096 629.677 785.49 599.452Z" fill="white"/>
<path d="M783.342 575.46C781.921 575.363 780.516 574.733 779.499 573.571C777.431 571.229 777.641 567.661 779.983 565.595L810.604 538.438C812.929 536.371 816.482 536.581 818.566 538.89L832.245 554.131L878.693 512.266C881.019 510.167 884.588 510.36 886.671 512.685C888.755 515.01 888.577 518.579 886.251 520.661L835.588 566.321C834.474 567.322 833.004 567.839 831.502 567.774C829.984 567.726 828.595 567.015 827.594 565.901L813.882 550.612L787.477 574.039C786.298 575.088 784.796 575.557 783.342 575.443V575.46Z" fill="#EE7800"/>
<path d="M890.257 504.242L860.589 511.701C859.022 512.088 858.473 514.042 859.587 515.204L880.873 537.163C882.004 538.325 883.958 537.825 884.41 536.275L892.792 506.857C893.228 505.307 891.823 503.854 890.257 504.242Z" fill="#EE7800"/>
</g>
<g clip-path="url(#clip1_69_1959)">
<path d="M720.762 130.021L694.901 115.083C694.12 114.632 693.141 115.193 693.141 116.095L693.141 145.96C693.141 146.862 694.12 147.423 694.901 146.972L720.762 132.045C721.543 131.594 721.543 130.472 720.762 130.021Z" fill="#84672B"/>
<path d="M679.215 130.021L653.354 115.094C652.573 114.643 651.594 115.204 651.594 116.106L651.594 145.971C651.594 146.873 652.573 147.434 653.354 146.983L679.215 132.056C679.996 131.605 679.996 130.483 679.215 130.032L679.215 130.021Z" fill="#84672B"/>
<path d="M637.668 130.021L611.807 115.094C611.026 114.643 610.047 115.204 610.047 116.106L610.047 145.971C610.047 146.873 611.026 147.434 611.807 146.983L637.668 132.056C638.449 131.605 638.449 130.483 637.668 130.032L637.668 130.021Z" fill="#E2CC8F"/>
<path d="M596.121 130.021L570.26 115.094C569.479 114.643 568.5 115.204 568.5 116.106L568.5 145.971C568.5 146.873 569.479 147.434 570.26 146.983L596.121 132.056C596.902 131.605 596.902 130.483 596.121 130.032L596.121 130.021Z" fill="#E2CC8F"/>
</g>
<g clip-path="url(#clip2_69_1959)">
<path d="M230.083 373.116L255.944 388.054C256.725 388.505 257.704 387.944 257.704 387.042L257.704 357.177C257.704 356.275 256.725 355.714 255.944 356.165L230.083 371.092C229.302 371.543 229.302 372.665 230.083 373.116Z" fill="#84672B"/>
<path d="M271.29 373.116L297.151 388.043C297.932 388.494 298.911 387.933 298.911 387.031L298.911 357.166C298.911 356.264 297.932 355.703 297.151 356.154L271.29 371.081C270.509 371.532 270.509 372.654 271.29 373.105L271.29 373.116Z" fill="#E2CC8F"/>
</g>
<defs>
<clipPath id="clip0_69_1959">
<rect width="246" height="251" fill="white" transform="translate(694.5 442)"/>
</clipPath>
<clipPath id="clip1_69_1959">
<rect width="38.137" height="152.845" fill="white" transform="translate(721.345 109) rotate(90)"/>
</clipPath>
<clipPath id="clip2_69_1959">
<rect width="38" height="69" fill="white" transform="translate(230 394) rotate(-90)"/>
</clipPath>
</defs>
</svg>
