<svg width="368" height="597" viewBox="0 0 368 597" fill="none" xmlns="http://www.w3.org/2000/svg">
<g clip-path="url(#clip0_69_1998)">
<circle cx="20.5" cy="26.5" r="18.8" fill="#D0B15E" stroke="#D0B15E" stroke-width="2.4"/>
<path d="M22.39 18.45H16.54V21.294H19.132V33.12H22.39V18.45Z" fill="white"/>
<path d="M67.84 18.32H74.76V21.48H57.48V18.32H64.4V15.56H58.42V5.4H73.82V15.56H67.84V18.32ZM61.78 8.56V12.42H70.46V8.56H61.78ZM89.6583 5H93.0383V13.84H89.6583V5ZM82.7383 11.32C81.3983 12.78 79.3383 13.86 76.8983 13.92V10.98C79.0983 10.86 80.5583 9.42 80.9583 7.98H77.1383V5.2H88.1783V7.98H84.3983C84.3583 8.28 84.2783 8.58 84.1983 8.9L88.7583 11.24L87.2383 13.74L82.7383 11.32ZM89.7183 15.56V14.44H93.0383V22.08H77.7583V14.44H81.0783V15.56H89.7183ZM81.0783 19.4H89.7183V18.18H81.0783V19.4Z" fill="#4C4036"/>
<path d="M61.96 50.26V47.964H56.836V45.864L61.246 38.85H64.368V45.864H65.866V47.964H64.368V50.26H61.96ZM59.272 45.864H61.96V41.468L59.272 45.864ZM70.7867 42.798C68.6447 42.798 67.1747 42.028 67.1747 40.586C67.1747 39.144 68.6447 38.374 70.7867 38.374C72.9287 38.374 74.3987 39.144 74.3987 40.586C74.3987 42.028 72.9287 42.798 70.7867 42.798ZM75.9667 44.968V41.72H74.8747V39.62H75.9667V38.5H78.3327V44.968H75.9667ZM70.7867 39.984C69.9467 39.984 69.4287 40.194 69.4287 40.586C69.4287 40.978 69.9467 41.188 70.7867 41.188C71.6267 41.188 72.1447 40.978 72.1447 40.586C72.1447 40.194 71.6267 39.984 70.7867 39.984ZM69.9467 48.972H78.4727V50.456H67.6507V47.292H76.0227V46.872H67.6227V45.388H69.6107V44.828H66.6847V43.134H72.1867C73.2927 43.134 74.5387 42.994 75.2807 42.714V44.394C74.5387 44.716 73.3347 44.828 72.1447 44.828H71.9347V45.388H78.3327V48.552H69.9467V48.972ZM92.2093 47.152C92.2093 49.224 90.2913 50.54 87.8693 50.54C85.4473 50.54 83.5293 49.224 83.5293 47.152C83.5293 45.57 84.8313 44.562 85.8393 44.352C84.9573 44.086 83.9213 43.106 83.9213 41.804C83.9213 40.012 85.5453 38.542 87.8693 38.542C90.2073 38.542 91.7893 40.04 91.7893 41.804C91.7893 43.106 90.7673 44.086 89.8993 44.352C90.9213 44.562 92.2093 45.57 92.2093 47.152ZM89.4093 41.902C89.4093 41.174 88.7793 40.614 87.8693 40.614C86.9873 40.614 86.3293 41.118 86.3293 41.846C86.3293 42.644 87.0153 43.204 87.8693 43.204C88.7513 43.204 89.4093 42.672 89.4093 41.902ZM89.7593 46.998C89.7593 46.144 88.9613 45.514 87.8693 45.514C86.7773 45.514 85.9793 46.144 85.9793 46.998C85.9793 47.824 86.7493 48.44 87.8693 48.44C88.9893 48.44 89.7593 47.824 89.7593 46.998ZM104.735 38.5V44.352H102.369V38.5H104.735ZM97.0909 38.514C99.4429 38.514 100.941 39.69 100.941 41.412C100.941 43.148 99.4429 44.31 97.0909 44.31C94.7389 44.31 93.2409 43.148 93.2409 41.412C93.2409 39.69 94.7389 38.514 97.0909 38.514ZM97.0909 40.376C96.1809 40.376 95.5789 40.782 95.5789 41.412C95.5789 42.042 96.1809 42.448 97.0909 42.448C98.0009 42.448 98.6029 42.042 98.6029 41.412C98.6029 40.782 98.0009 40.376 97.0909 40.376ZM104.735 44.772V48.342H96.5309V48.818H104.861V50.456H94.1929V46.886H102.397V46.41H94.1649V44.772H104.735ZM108.836 50.806C107.24 49.098 106.204 47.054 106.204 44.464C106.204 41.874 107.24 39.83 108.836 38.122H111.342C109.746 39.788 108.64 41.944 108.64 44.464C108.64 46.984 109.746 49.14 111.342 50.806H108.836ZM120.08 39.536V41.552H112.016V39.536H114.816V38.416H117.252V39.536H120.08ZM124.714 42.756V45.052H123.342V50.456H120.976V38.5H123.342V42.756H124.714ZM117.21 46.802V47.81C118.316 47.81 119.548 47.67 120.29 47.334V49.42C119.548 49.756 118.344 49.896 117.154 49.896H112.086V47.81H114.858V46.788C113.416 46.522 112.45 45.71 112.45 44.408C112.45 42.784 113.976 41.916 116.062 41.916C118.148 41.916 119.674 42.784 119.674 44.408C119.674 45.724 118.68 46.536 117.21 46.802ZM114.662 44.408C114.662 44.828 115.222 45.038 116.062 45.038C116.902 45.038 117.462 44.828 117.462 44.408C117.462 43.988 116.902 43.778 116.062 43.778C115.222 43.778 114.662 43.988 114.662 44.408ZM127.429 50.806H124.923C126.519 49.14 127.625 46.984 127.625 44.464C127.625 41.944 126.519 39.788 124.923 38.122H127.429C129.025 39.83 130.061 41.874 130.061 44.464C130.061 47.054 129.025 49.098 127.429 50.806ZM134.799 43.624C135.303 43.19 135.947 42.98 136.675 42.98C137.921 42.98 138.845 43.904 139.965 43.904C140.679 43.904 141.141 43.652 141.617 43.134V45.332C141.113 45.836 140.469 46.088 139.741 46.088C138.509 46.088 137.571 45.164 136.451 45.164C135.737 45.164 135.275 45.374 134.799 45.822V43.624ZM150.594 50.526C148.116 50.526 146.604 49.126 146.422 46.928H148.928C149.026 47.838 149.544 48.37 150.594 48.37C151.63 48.37 152.26 47.6 152.26 46.55C152.26 45.486 151.644 44.744 150.552 44.744C149.754 44.744 149.25 45.094 148.942 45.514H146.632L146.968 38.85H154.178V41.02H149.278L149.152 43.162C149.642 42.868 150.258 42.686 150.986 42.686C153.226 42.686 154.738 44.128 154.738 46.55C154.738 48.958 152.946 50.526 150.594 50.526ZM159.973 42.798C157.831 42.798 156.361 42.028 156.361 40.586C156.361 39.144 157.831 38.374 159.973 38.374C162.115 38.374 163.585 39.144 163.585 40.586C163.585 42.028 162.115 42.798 159.973 42.798ZM165.153 44.968V41.72H164.061V39.62H165.153V38.5H167.519V44.968H165.153ZM159.973 39.984C159.133 39.984 158.615 40.194 158.615 40.586C158.615 40.978 159.133 41.188 159.973 41.188C160.813 41.188 161.331 40.978 161.331 40.586C161.331 40.194 160.813 39.984 159.973 39.984ZM159.133 48.972H167.659V50.456H156.837V47.292H165.209V46.872H156.809V45.388H158.797V44.828H155.871V43.134H161.373C162.479 43.134 163.725 42.994 164.467 42.714V44.394C163.725 44.716 162.521 44.828 161.331 44.828H161.121V45.388H167.519V48.552H159.133V48.972ZM180.64 38.85V40.362L176.398 50.26H173.738L177.672 41.062H172.8V38.85H180.64ZM193.17 38.5V44.352H190.804V38.5H193.17ZM185.526 38.514C187.878 38.514 189.376 39.69 189.376 41.412C189.376 43.148 187.878 44.31 185.526 44.31C183.174 44.31 181.676 43.148 181.676 41.412C181.676 39.69 183.174 38.514 185.526 38.514ZM185.526 40.376C184.616 40.376 184.014 40.782 184.014 41.412C184.014 42.042 184.616 42.448 185.526 42.448C186.436 42.448 187.038 42.042 187.038 41.412C187.038 40.782 186.436 40.376 185.526 40.376ZM193.17 44.772V48.342H184.966V48.818H193.296V50.456H182.628V46.886H190.832V46.41H182.6V44.772H193.17ZM197.27 50.806C195.674 49.098 194.638 47.054 194.638 44.464C194.638 41.874 195.674 39.83 197.27 38.122H199.776C198.18 39.788 197.074 41.944 197.074 44.464C197.074 46.984 198.18 49.14 199.776 50.806H197.27ZM206.499 42.364C205.099 43.974 203.027 44.982 200.801 44.968V42.742C203.139 42.742 205.407 40.95 205.785 38.318L208.193 38.668C208.095 39.34 207.899 39.97 207.633 40.572L212.575 42.994L211.469 44.982L206.499 42.364ZM212.617 45.864V48.048H207.787V50.736H205.351V48.048H200.521V45.864H212.617ZM215.864 50.806H213.358C214.954 49.14 216.06 46.984 216.06 44.464C216.06 41.944 214.954 39.788 213.358 38.122H215.864C217.46 39.83 218.496 41.874 218.496 44.464C218.496 47.054 217.46 49.098 215.864 50.806ZM227.504 38.85V50.26H224.97V41.062H222.954V38.85H227.504ZM237.218 38.85V40.362L232.976 50.26H230.316L234.25 41.062H229.378V38.85H237.218ZM239.556 40.376C240.354 40.376 240.942 40.978 240.942 41.776C240.942 42.574 240.354 43.176 239.556 43.176C238.744 43.176 238.156 42.574 238.156 41.776C238.156 40.978 238.744 40.376 239.556 40.376ZM239.556 45.934C240.354 45.934 240.942 46.536 240.942 47.334C240.942 48.132 240.354 48.734 239.556 48.734C238.744 48.734 238.156 48.132 238.156 47.334C238.156 46.536 238.744 45.934 239.556 45.934ZM246.388 38.542C248.88 38.542 250.756 40.544 250.756 44.548C250.756 48.538 248.88 50.54 246.388 50.54C243.896 50.54 242.02 48.538 242.02 44.548C242.02 40.544 243.896 38.542 246.388 38.542ZM246.388 40.768C245.268 40.768 244.428 41.944 244.428 44.548C244.428 47.138 245.268 48.314 246.388 48.314C247.508 48.314 248.348 47.138 248.348 44.548C248.348 41.944 247.508 40.768 246.388 40.768ZM256.105 38.542C258.597 38.542 260.473 40.544 260.473 44.548C260.473 48.538 258.597 50.54 256.105 50.54C253.613 50.54 251.737 48.538 251.737 44.548C251.737 40.544 253.613 38.542 256.105 38.542ZM256.105 40.768C254.985 40.768 254.145 41.944 254.145 44.548C254.145 47.138 254.985 48.314 256.105 48.314C257.225 48.314 258.065 47.138 258.065 44.548C258.065 41.944 257.225 40.768 256.105 40.768ZM274.209 42.868V45.164H272.879V50.456H270.569V38.5H272.879V42.868H274.209ZM265.417 38.78V41.65C265.417 46.718 264.353 49.42 261.749 49.476V47.292C262.743 47.012 263.149 45.346 263.149 41.86V40.908H261.749V38.78H265.417ZM265.837 40.908V38.78H269.449V41.762C269.449 46.788 268.203 49.798 265.361 49.896V47.712C266.579 47.46 267.181 45.556 267.181 41.972V40.908H265.837ZM284.105 38.5H286.471V50.456H284.105V38.5ZM280.535 40.95C280.507 42.028 280.409 43.022 280.241 43.932L283.713 48.44L281.837 49.84L279.429 46.564C278.463 48.692 276.937 49.882 275.117 49.896V47.516C276.867 47.32 278.071 44.786 278.155 40.95H275.453V38.78H283.097V40.95H280.535Z" fill="#AFAFAF"/>
<circle cx="20.5" cy="111.5" r="18.8" fill="#D0B15E" stroke="#D0B15E" stroke-width="2.4"/>
<path d="M20.296 103.054C17.2 103.054 15.022 105.214 15.022 108.094H18.244C18.244 106.978 18.964 105.898 20.296 105.898C21.718 105.898 22.312 106.618 22.312 107.698C22.312 108.526 21.898 109.48 20.134 111.298L15.328 116.248V118.12H25.822V115.348H20.116L22.222 113.17C24.796 110.506 25.534 109.192 25.534 107.662C25.534 104.998 23.59 103.054 20.296 103.054Z" fill="white"/>
<path d="M70.7 90H74.08V107.08H70.7V98.68H67.1V95.52H70.7V90ZM65.26 90.46C65.26 92.72 65.1 94.78 64.78 96.62L69.74 104.46L66.84 106.26L63.62 100.86C62.24 104.32 60.08 106.26 57.48 106.28V102.76C60.1 102.46 61.82 97.48 61.82 90.34L65.26 90.46ZM89.4983 93.92V92.94H77.4983V90.2H92.7983V96.46H80.8383V97.44H92.9983V100.18H77.5383V93.92H89.4983ZM93.7983 101.24V104.24H90.1783V107.48H86.8183V104.24H83.4983V107.48H80.1383V104.24H76.5183V101.24H93.7983ZM114.102 90H117.482V99.24H114.102V90ZM107.222 96.02C105.762 97.8 103.642 99 101.182 99.12V96.1C103.882 95.78 105.762 93.4 105.822 90.08L109.222 90.28C109.222 91.4 109.022 92.48 108.642 93.5L113.382 96.44L111.662 98.88L107.222 96.02ZM102.202 107.08V99.84H117.482V107.08H102.202ZM105.582 102.62V104.3H114.102V102.62H105.582ZM138.04 96.24V99.52H136.04V107.08H132.66V90H136.04V96.24H138.04ZM128.02 90.46C128.02 93.04 127.78 95.36 127.36 97.36L132.3 104.32L129.54 106.26L126.14 101.28C124.74 104.48 122.6 106.26 120 106.28V102.8C122.74 102.48 124.56 97.48 124.58 90.34L128.02 90.46ZM160.964 90V99.18H157.584V90H160.964ZM155.604 90.2V98.2H145.004V90.2H155.604ZM152.264 95.46V92.94H148.344V95.46H152.264ZM161.544 104.56L160.684 107.28L153.124 105.3C151.204 106.58 148.364 107.08 145.524 107.08V104.32C148.024 104.32 150.424 103.84 151.524 102.7H145.704V99.98H151.604V98.82H155.044V99.98H160.964V102.7H155.224L155.044 103.12L161.544 104.56ZM182.168 102.66V98.54H180.348V95.56H182.168V94.22H180.348V91.24H182.168V90H185.488V102.66H182.168ZM179.548 90.2V99.92H169.368V90.2H179.548ZM176.228 97.06V93.06H172.688V97.06H176.228ZM173.648 104.06H185.728V107.08H170.208V101.1H173.648V104.06ZM201.146 90H204.526V99H201.146V95.38H198.866V92.98H195.646C195.606 93.32 195.526 93.66 195.426 94L199.966 96.46L198.406 98.94L194.006 96.44C192.686 97.96 190.646 99.06 188.226 99.12V96.18C190.406 96.06 191.846 94.5 192.206 92.98H188.466V90.2H199.346V92.54H201.146V90ZM201.206 100.7V99.6H204.526V107.08H189.246V99.6H192.566V100.7H201.206ZM192.566 104.44H201.206V103.28H192.566V104.44Z" fill="#4C4036"/>
<path d="M61.134 135.526C58.656 135.526 57.144 134.126 56.962 131.928H59.468C59.566 132.838 60.084 133.37 61.134 133.37C62.17 133.37 62.8 132.6 62.8 131.55C62.8 130.486 62.184 129.744 61.092 129.744C60.294 129.744 59.79 130.094 59.482 130.514H57.172L57.508 123.85H64.718V126.02H59.818L59.692 128.162C60.182 127.868 60.798 127.686 61.526 127.686C63.766 127.686 65.278 129.128 65.278 131.55C65.278 133.958 63.486 135.526 61.134 135.526ZM70.5132 127.798C68.3712 127.798 66.9012 127.028 66.9012 125.586C66.9012 124.144 68.3712 123.374 70.5132 123.374C72.6552 123.374 74.1252 124.144 74.1252 125.586C74.1252 127.028 72.6552 127.798 70.5132 127.798ZM75.6932 129.968V126.72H74.6012V124.62H75.6932V123.5H78.0592V129.968H75.6932ZM70.5132 124.984C69.6732 124.984 69.1552 125.194 69.1552 125.586C69.1552 125.978 69.6732 126.188 70.5132 126.188C71.3532 126.188 71.8712 125.978 71.8712 125.586C71.8712 125.194 71.3532 124.984 70.5132 124.984ZM69.6732 133.972H78.1992V135.456H67.3772V132.292H75.7492V131.872H67.3492V130.388H69.3372V129.828H66.4112V128.134H71.9132C73.0192 128.134 74.2652 127.994 75.0072 127.714V129.394C74.2652 129.716 73.0612 129.828 71.8712 129.828H71.6612V130.388H78.0592V133.552H69.6732V133.972ZM91.9359 132.152C91.9359 134.224 90.0179 135.54 87.5959 135.54C85.1739 135.54 83.2559 134.224 83.2559 132.152C83.2559 130.57 84.5579 129.562 85.5659 129.352C84.6839 129.086 83.6479 128.106 83.6479 126.804C83.6479 125.012 85.2719 123.542 87.5959 123.542C89.9339 123.542 91.5159 125.04 91.5159 126.804C91.5159 128.106 90.4939 129.086 89.6259 129.352C90.6479 129.562 91.9359 130.57 91.9359 132.152ZM89.1359 126.902C89.1359 126.174 88.5059 125.614 87.5959 125.614C86.7139 125.614 86.0559 126.118 86.0559 126.846C86.0559 127.644 86.7419 128.204 87.5959 128.204C88.4779 128.204 89.1359 127.672 89.1359 126.902ZM89.4859 131.998C89.4859 131.144 88.6879 130.514 87.5959 130.514C86.5039 130.514 85.7059 131.144 85.7059 131.998C85.7059 132.824 86.4759 133.44 87.5959 133.44C88.7159 133.44 89.4859 132.824 89.4859 131.998ZM104.461 123.5V129.352H102.095V123.5H104.461ZM96.8175 123.514C99.1695 123.514 100.667 124.69 100.667 126.412C100.667 128.148 99.1695 129.31 96.8175 129.31C94.4655 129.31 92.9675 128.148 92.9675 126.412C92.9675 124.69 94.4655 123.514 96.8175 123.514ZM96.8175 125.376C95.9075 125.376 95.3055 125.782 95.3055 126.412C95.3055 127.042 95.9075 127.448 96.8175 127.448C97.7275 127.448 98.3295 127.042 98.3295 126.412C98.3295 125.782 97.7275 125.376 96.8175 125.376ZM104.461 129.772V133.342H96.2575V133.818H104.587V135.456H93.9195V131.886H102.123V131.41H93.8915V129.772H104.461ZM108.562 135.806C106.966 134.098 105.93 132.054 105.93 129.464C105.93 126.874 106.966 124.83 108.562 123.122H111.068C109.472 124.788 108.366 126.944 108.366 129.464C108.366 131.984 109.472 134.14 111.068 135.806H108.562ZM119.037 129.072H123.909V130.962H111.813V129.072H116.685V128.358H112.541V123.5H123.181V128.358H119.037V129.072ZM114.879 125.32V126.538H120.843V125.32H114.879ZM112.457 133.454V131.578H123.209V135.596H120.815V133.454H112.457ZM127.156 135.806H124.65C126.246 134.14 127.352 131.984 127.352 129.464C127.352 126.944 126.246 124.788 124.65 123.122H127.156C128.752 124.83 129.788 126.874 129.788 129.464C129.788 132.054 128.752 134.098 127.156 135.806ZM134.526 128.624C135.03 128.19 135.674 127.98 136.402 127.98C137.648 127.98 138.572 128.904 139.692 128.904C140.406 128.904 140.868 128.652 141.344 128.134V130.332C140.84 130.836 140.196 131.088 139.468 131.088C138.236 131.088 137.298 130.164 136.178 130.164C135.464 130.164 135.002 130.374 134.526 130.822V128.624ZM150.321 135.526C147.843 135.526 146.331 134.126 146.149 131.928H148.655C148.753 132.838 149.271 133.37 150.321 133.37C151.357 133.37 151.987 132.6 151.987 131.55C151.987 130.486 151.371 129.744 150.279 129.744C149.481 129.744 148.977 130.094 148.669 130.514H146.359L146.695 123.85H153.905V126.02H149.005L148.879 128.162C149.369 127.868 149.985 127.686 150.713 127.686C152.953 127.686 154.465 129.128 154.465 131.55C154.465 133.958 152.673 135.526 150.321 135.526ZM159.7 127.798C157.558 127.798 156.088 127.028 156.088 125.586C156.088 124.144 157.558 123.374 159.7 123.374C161.842 123.374 163.312 124.144 163.312 125.586C163.312 127.028 161.842 127.798 159.7 127.798ZM164.88 129.968V126.72H163.788V124.62H164.88V123.5H167.246V129.968H164.88ZM159.7 124.984C158.86 124.984 158.342 125.194 158.342 125.586C158.342 125.978 158.86 126.188 159.7 126.188C160.54 126.188 161.058 125.978 161.058 125.586C161.058 125.194 160.54 124.984 159.7 124.984ZM158.86 133.972H167.386V135.456H156.564V132.292H164.936V131.872H156.536V130.388H158.524V129.828H155.598V128.134H161.1C162.206 128.134 163.452 127.994 164.194 127.714V129.394C163.452 129.716 162.248 129.828 161.058 129.828H160.848V130.388H167.246V133.552H158.86V133.972ZM176.992 123.85V135.26H174.458V126.062H172.442V123.85H176.992ZM183.161 135.526C180.683 135.526 179.171 134.126 178.989 131.928H181.495C181.593 132.838 182.111 133.37 183.161 133.37C184.197 133.37 184.827 132.6 184.827 131.55C184.827 130.486 184.211 129.744 183.119 129.744C182.321 129.744 181.817 130.094 181.509 130.514H179.199L179.535 123.85H186.745V126.02H181.845L181.719 128.162C182.209 127.868 182.825 127.686 183.553 127.686C185.793 127.686 187.305 129.128 187.305 131.55C187.305 133.958 185.513 135.526 183.161 135.526ZM200.002 123.5V129.352H197.636V123.5H200.002ZM192.358 123.514C194.71 123.514 196.208 124.69 196.208 126.412C196.208 128.148 194.71 129.31 192.358 129.31C190.006 129.31 188.508 128.148 188.508 126.412C188.508 124.69 190.006 123.514 192.358 123.514ZM192.358 125.376C191.448 125.376 190.846 125.782 190.846 126.412C190.846 127.042 191.448 127.448 192.358 127.448C193.268 127.448 193.87 127.042 193.87 126.412C193.87 125.782 193.268 125.376 192.358 125.376ZM200.002 129.772V133.342H191.798V133.818H200.128V135.456H189.46V131.886H197.664V131.41H189.432V129.772H200.002ZM204.103 135.806C202.507 134.098 201.471 132.054 201.471 129.464C201.471 126.874 202.507 124.83 204.103 123.122H206.609C205.013 124.788 203.907 126.944 203.907 129.464C203.907 131.984 205.013 134.14 206.609 135.806H204.103ZM214.577 129.072H219.449V130.962H207.353V129.072H212.225V128.358H208.081V123.5H218.721V128.358H214.577V129.072ZM210.419 125.32V126.538H216.383V125.32H210.419ZM207.997 133.454V131.578H218.749V135.596H216.355V133.454H207.997ZM222.696 135.806H220.19C221.786 134.14 222.892 131.984 222.892 129.464C222.892 126.944 221.786 124.788 220.19 123.122H222.696C224.292 124.83 225.328 126.874 225.328 129.464C225.328 132.054 224.292 134.098 222.696 135.806Z" fill="#AFAFAF"/>
<circle cx="20.5" cy="196.5" r="18.8" fill="#D0B15E" stroke="#D0B15E" stroke-width="2.4"/>
<path d="M20.368 188.054C17.362 188.054 15.256 190.07 15.256 192.86H18.478C18.478 191.816 19.072 190.79 20.35 190.79C21.574 190.79 22.294 191.456 22.294 192.536C22.294 193.652 21.502 194.372 20.17 194.372H18.712V197.036H20.17C21.7 197.036 22.726 197.684 22.726 198.908C22.726 199.988 21.826 200.726 20.476 200.726C19.108 200.726 18.37 200.024 18.244 198.854H15.022C15.256 201.68 17.254 203.48 20.476 203.48C23.518 203.48 25.912 201.716 25.912 198.89C25.912 197 24.4 195.83 23.05 195.614C24.274 195.398 25.516 194.156 25.516 192.464C25.516 189.836 23.41 188.054 20.368 188.054Z" fill="white"/>
<path d="M63.58 183.2C62.28 184.86 60.26 185.96 57.78 186V182.98C59.76 182.86 61.18 181.42 61.64 179.54H58.14V176.5H61.7V174.78H65.14V176.5H68.7V179.54H65.12C65.08 179.9 65 180.24 64.9 180.58L69.54 183.52L67.72 185.98L63.58 183.2ZM70.66 175H74.04V192.08H70.66V175ZM65.04 188.18H65.26C66.84 188.18 68.62 187.98 69.68 187.5V190.6C68.62 191.08 66.9 191.28 65.2 191.28H57.48V188.18H61.68V185.64H65.04V188.18ZM92.4983 181.72L84.6583 179.96C82.7783 181 80.0983 181.6 77.2983 181.64V179.02C79.6583 178.98 82.1783 178.48 83.2583 177.58H77.4983V175H92.8183V177.58H86.9983C86.9583 177.68 86.9183 177.78 86.8583 177.88L93.2583 179.2L92.4983 181.72ZM86.8383 182.36H93.7983V184.96H76.5183V182.36H83.4783V180.9H86.8383V182.36ZM85.1583 185.56C89.7783 185.56 92.9983 186.48 92.9983 188.94C92.9983 191.4 89.7783 192.32 85.1583 192.32C80.5383 192.32 77.3183 191.4 77.3183 188.94C77.3183 186.48 80.5383 185.56 85.1583 185.56ZM85.1583 189.8C87.6583 189.8 89.3983 189.56 89.3983 188.94C89.3983 188.34 87.6583 188.08 85.1583 188.08C82.6583 188.08 80.9183 188.34 80.9183 188.94C80.9183 189.56 82.6583 189.8 85.1583 189.8ZM114.182 187.66V180.32H111.102V177.22H114.182V175H117.562V187.66H114.182ZM106.842 181.98C105.422 184 103.362 185.38 100.922 185.52V182.38C103.582 182.06 105.382 178.9 105.442 175.08L108.842 175.28C108.842 176.66 108.622 178.02 108.182 179.26L112.962 183.04L110.882 185.34L106.842 181.98ZM105.722 189.06H117.802V192.08H102.282V186.1H105.722V189.06ZM136.04 177.4H138.04V180.48H136.04V183.56H132.66V175H136.04V177.4ZM130.8 175.2V183.2H120.38V175.2H123.66V176.6H127.52V175.2H130.8ZM123.66 180.58H127.52V179.16H123.66V180.58ZM124.3 189.16V189.82H136.22V192.08H120.98V187.08H132.72V186.42H120.94V184.16H136.04V189.16H124.3Z" fill="#4C4036"/>
<path d="M61.134 220.526C58.656 220.526 57.144 219.126 56.962 216.928H59.468C59.566 217.838 60.084 218.37 61.134 218.37C62.17 218.37 62.8 217.6 62.8 216.55C62.8 215.486 62.184 214.744 61.092 214.744C60.294 214.744 59.79 215.094 59.482 215.514H57.172L57.508 208.85H64.718V211.02H59.818L59.692 213.162C60.182 212.868 60.798 212.686 61.526 212.686C63.766 212.686 65.278 214.128 65.278 216.55C65.278 218.958 63.486 220.526 61.134 220.526ZM70.5132 212.798C68.3712 212.798 66.9012 212.028 66.9012 210.586C66.9012 209.144 68.3712 208.374 70.5132 208.374C72.6552 208.374 74.1252 209.144 74.1252 210.586C74.1252 212.028 72.6552 212.798 70.5132 212.798ZM75.6932 214.968V211.72H74.6012V209.62H75.6932V208.5H78.0592V214.968H75.6932ZM70.5132 209.984C69.6732 209.984 69.1552 210.194 69.1552 210.586C69.1552 210.978 69.6732 211.188 70.5132 211.188C71.3532 211.188 71.8712 210.978 71.8712 210.586C71.8712 210.194 71.3532 209.984 70.5132 209.984ZM69.6732 218.972H78.1992V220.456H67.3772V217.292H75.7492V216.872H67.3492V215.388H69.3372V214.828H66.4112V213.134H71.9132C73.0192 213.134 74.2652 212.994 75.0072 212.714V214.394C74.2652 214.716 73.0612 214.828 71.8712 214.828H71.6612V215.388H78.0592V218.552H69.6732V218.972ZM87.8059 208.85V220.26H85.2719V211.062H83.2559V208.85H87.8059ZM91.3984 220.26L93.9884 216.396C93.9184 216.424 93.7924 216.452 93.6664 216.452C91.4404 216.452 89.6064 214.898 89.6064 212.588C89.6064 210.152 91.5524 208.584 93.9324 208.584C96.3124 208.584 98.2584 210.138 98.2584 212.574C98.2584 213.68 97.8944 214.534 97.2224 215.598L94.2824 220.26H91.3984ZM93.9324 214.38C95.0664 214.38 95.7804 213.582 95.7804 212.56C95.7804 211.538 95.0664 210.74 93.9324 210.74C92.7984 210.74 92.0844 211.538 92.0844 212.56C92.0844 213.582 92.7984 214.38 93.9324 214.38ZM110.816 208.5V214.352H108.45V208.5H110.816ZM103.172 208.514C105.524 208.514 107.022 209.69 107.022 211.412C107.022 213.148 105.524 214.31 103.172 214.31C100.82 214.31 99.3216 213.148 99.3216 211.412C99.3216 209.69 100.82 208.514 103.172 208.514ZM103.172 210.376C102.262 210.376 101.66 210.782 101.66 211.412C101.66 212.042 102.262 212.448 103.172 212.448C104.082 212.448 104.684 212.042 104.684 211.412C104.684 210.782 104.082 210.376 103.172 210.376ZM110.816 214.772V218.342H102.612V218.818H110.942V220.456H100.274V216.886H108.478V216.41H100.246V214.772H110.816ZM114.916 220.806C113.32 219.098 112.284 217.054 112.284 214.464C112.284 211.874 113.32 209.83 114.916 208.122H117.422C115.826 209.788 114.72 211.944 114.72 214.464C114.72 216.984 115.826 219.14 117.422 220.806H114.916ZM122.269 212.798C120.127 212.798 118.657 212.028 118.657 210.586C118.657 209.144 120.127 208.374 122.269 208.374C124.411 208.374 125.881 209.144 125.881 210.586C125.881 212.028 124.411 212.798 122.269 212.798ZM127.449 214.968V211.72H126.357V209.62H127.449V208.5H129.815V214.968H127.449ZM122.269 209.984C121.429 209.984 120.911 210.194 120.911 210.586C120.911 210.978 121.429 211.188 122.269 211.188C123.109 211.188 123.627 210.978 123.627 210.586C123.627 210.194 123.109 209.984 122.269 209.984ZM121.429 218.972H129.955V220.456H119.133V217.292H127.505V216.872H119.105V215.388H121.093V214.828H118.167V213.134H123.669C124.775 213.134 126.021 212.994 126.763 212.714V214.394C126.021 214.716 124.817 214.828 123.627 214.828H123.417V215.388H129.815V218.552H121.429V218.972ZM133.51 220.806H131.004C132.6 219.14 133.706 216.984 133.706 214.464C133.706 211.944 132.6 209.788 131.004 208.122H133.51C135.106 209.83 136.142 211.874 136.142 214.464C136.142 217.054 135.106 219.098 133.51 220.806Z" fill="#AFAFAF"/>
<circle cx="20.5" cy="281.5" r="18.8" fill="#D0B15E" stroke="#D0B15E" stroke-width="2.4"/>
<path d="M20.52 288.12H23.616V285.168H25.542V282.468H23.616V273.45H19.602L13.932 282.468V285.168H20.52V288.12ZM17.064 282.468L20.52 276.816V282.468H17.064Z" fill="white"/>
<path d="M74 260V268.36H70.62V260H74ZM63.68 265.62C62.22 267.22 60.12 268.3 57.7 268.42V265.48C60.4 265.16 62.3 263.06 62.36 260.08L65.74 260.28C65.74 261.32 65.54 262.32 65.16 263.24L69.86 265.72L68.3 268.16L63.68 265.62ZM62.08 274.74H74.18V277.08H58.74V271.98H70.66V271.3H58.7V268.96H74V274.06H62.08V274.74ZM87.4583 263.64H89.7383V260H93.1183V272.66H89.7383V266.58H87.4583V263.64ZM82.6183 267.36C81.2983 269.14 79.2583 270.42 76.8183 270.48V267.42C79.1183 267.24 80.5583 265.26 80.8583 263.08H77.0583V260.2H87.9383V263.08H84.2583C84.2183 263.62 84.1183 264.16 83.9583 264.68L88.6783 267.94L86.7783 270.34L82.6183 267.36ZM81.2783 274.06H93.3583V277.08H77.8383V271.1H81.2783V274.06ZM108.477 271.66V263.5H96.4366V260.4H111.937V271.66H108.477ZM106.757 273.38H112.837V276.48H95.5566V273.38H98.1766V267.44H101.577V273.38H103.357V267.44H106.757V273.38ZM123.235 267.2C118.735 267.2 115.395 266.06 115.395 263.46C115.395 260.86 118.735 259.72 123.235 259.72C127.735 259.72 131.075 260.86 131.075 263.46C131.075 266.06 127.735 267.2 123.235 267.2ZM123.235 262.3C120.675 262.3 118.995 262.72 118.995 263.46C118.995 264.22 120.675 264.62 123.235 264.62C125.795 264.62 127.475 264.22 127.475 263.46C127.475 262.72 125.795 262.3 123.235 262.3ZM131.875 270.48H128.115V271.76H130.875V277.28H127.455V274.42H115.515V271.76H118.355V270.48H114.595V267.8H131.875V270.48ZM124.795 271.76V270.48H121.675V271.76H124.795Z" fill="#4C4036"/>
<path d="M61.134 305.526C58.656 305.526 57.144 304.126 56.962 301.928H59.468C59.566 302.838 60.084 303.37 61.134 303.37C62.17 303.37 62.8 302.6 62.8 301.55C62.8 300.486 62.184 299.744 61.092 299.744C60.294 299.744 59.79 300.094 59.482 300.514H57.172L57.508 293.85H64.718V296.02H59.818L59.692 298.162C60.182 297.868 60.798 297.686 61.526 297.686C63.766 297.686 65.278 299.128 65.278 301.55C65.278 303.958 63.486 305.526 61.134 305.526ZM70.5132 297.798C68.3712 297.798 66.9012 297.028 66.9012 295.586C66.9012 294.144 68.3712 293.374 70.5132 293.374C72.6552 293.374 74.1252 294.144 74.1252 295.586C74.1252 297.028 72.6552 297.798 70.5132 297.798ZM75.6932 299.968V296.72H74.6012V294.62H75.6932V293.5H78.0592V299.968H75.6932ZM70.5132 294.984C69.6732 294.984 69.1552 295.194 69.1552 295.586C69.1552 295.978 69.6732 296.188 70.5132 296.188C71.3532 296.188 71.8712 295.978 71.8712 295.586C71.8712 295.194 71.3532 294.984 70.5132 294.984ZM69.6732 303.972H78.1992V305.456H67.3772V302.292H75.7492V301.872H67.3492V300.388H69.3372V299.828H66.4112V298.134H71.9132C73.0192 298.134 74.2652 297.994 75.0072 297.714V299.394C74.2652 299.716 73.0612 299.828 71.8712 299.828H71.6612V300.388H78.0592V303.552H69.6732V303.972ZM87.3439 293.542C89.9059 293.542 91.4179 295.054 91.4179 297.126C91.4179 298.316 90.8439 299.338 88.8419 301.41L87.2039 303.104H91.6419V305.26H83.4799V303.804L87.2179 299.954C88.5899 298.54 88.9119 297.798 88.9119 297.154C88.9119 296.314 88.4499 295.754 87.3439 295.754C86.3079 295.754 85.7479 296.594 85.7479 297.462H83.2419C83.2419 295.222 84.9359 293.542 87.3439 293.542ZM94.0917 305.26L96.6817 301.396C96.6117 301.424 96.4857 301.452 96.3597 301.452C94.1337 301.452 92.2997 299.898 92.2997 297.588C92.2997 295.152 94.2457 293.584 96.6257 293.584C99.0057 293.584 100.952 295.138 100.952 297.574C100.952 298.68 100.588 299.534 99.9157 300.598L96.9757 305.26H94.0917ZM96.6257 299.38C97.7597 299.38 98.4737 298.582 98.4737 297.56C98.4737 296.538 97.7597 295.74 96.6257 295.74C95.4917 295.74 94.7777 296.538 94.7777 297.56C94.7777 298.582 95.4917 299.38 96.6257 299.38ZM113.509 293.5V299.352H111.143V293.5H113.509ZM105.865 293.514C108.217 293.514 109.715 294.69 109.715 296.412C109.715 298.148 108.217 299.31 105.865 299.31C103.513 299.31 102.015 298.148 102.015 296.412C102.015 294.69 103.513 293.514 105.865 293.514ZM105.865 295.376C104.955 295.376 104.353 295.782 104.353 296.412C104.353 297.042 104.955 297.448 105.865 297.448C106.775 297.448 107.377 297.042 107.377 296.412C107.377 295.782 106.775 295.376 105.865 295.376ZM113.509 299.772V303.342H105.305V303.818H113.635V305.456H102.967V301.886H111.171V301.41H102.939V299.772H113.509ZM117.61 305.806C116.014 304.098 114.978 302.054 114.978 299.464C114.978 296.874 116.014 294.83 117.61 293.122H120.116C118.52 294.788 117.414 296.944 117.414 299.464C117.414 301.984 118.52 304.14 120.116 305.806H117.61ZM128.084 299.072H132.956V300.962H120.86V299.072H125.732V298.358H121.588V293.5H132.228V298.358H128.084V299.072ZM123.926 295.32V296.538H129.89V295.32H123.926ZM121.504 303.454V301.578H132.256V305.596H129.862V303.454H121.504ZM136.203 305.806H133.697C135.293 304.14 136.399 301.984 136.399 299.464C136.399 296.944 135.293 294.788 133.697 293.122H136.203C137.799 294.83 138.835 296.874 138.835 299.464C138.835 302.054 137.799 304.098 136.203 305.806ZM143.573 298.624C144.077 298.19 144.721 297.98 145.449 297.98C146.695 297.98 147.619 298.904 148.739 298.904C149.453 298.904 149.915 298.652 150.391 298.134V300.332C149.887 300.836 149.243 301.088 148.515 301.088C147.283 301.088 146.345 300.164 145.225 300.164C144.511 300.164 144.049 300.374 143.573 300.822V298.624ZM163.078 293.85V295.362L158.836 305.26H156.176L160.11 296.062H155.238V293.85H163.078ZM168.146 297.798C166.004 297.798 164.534 297.028 164.534 295.586C164.534 294.144 166.004 293.374 168.146 293.374C170.288 293.374 171.758 294.144 171.758 295.586C171.758 297.028 170.288 297.798 168.146 297.798ZM173.326 299.968V296.72H172.234V294.62H173.326V293.5H175.692V299.968H173.326ZM168.146 294.984C167.306 294.984 166.788 295.194 166.788 295.586C166.788 295.978 167.306 296.188 168.146 296.188C168.986 296.188 169.504 295.978 169.504 295.586C169.504 295.194 168.986 294.984 168.146 294.984ZM167.306 303.972H175.832V305.456H165.01V302.292H173.382V301.872H164.982V300.388H166.97V299.828H164.044V298.134H169.546C170.652 298.134 171.898 297.994 172.64 297.714V299.394C171.898 299.716 170.694 299.828 169.504 299.828H169.294V300.388H175.692V303.552H167.306V303.972ZM185.438 293.85V305.26H182.904V296.062H180.888V293.85H185.438ZM195.153 293.85V295.362L190.911 305.26H188.251L192.185 296.062H187.313V293.85H195.153ZM207.682 293.5V299.352H205.316V293.5H207.682ZM200.038 293.514C202.39 293.514 203.888 294.69 203.888 296.412C203.888 298.148 202.39 299.31 200.038 299.31C197.686 299.31 196.188 298.148 196.188 296.412C196.188 294.69 197.686 293.514 200.038 293.514ZM200.038 295.376C199.128 295.376 198.526 295.782 198.526 296.412C198.526 297.042 199.128 297.448 200.038 297.448C200.948 297.448 201.55 297.042 201.55 296.412C201.55 295.782 200.948 295.376 200.038 295.376ZM207.682 299.772V303.342H199.478V303.818H207.808V305.456H197.14V301.886H205.344V301.41H197.112V299.772H207.682ZM211.783 305.806C210.187 304.098 209.151 302.054 209.151 299.464C209.151 296.874 210.187 294.83 211.783 293.122H214.289C212.693 294.788 211.587 296.944 211.587 299.464C211.587 301.984 212.693 304.14 214.289 305.806H211.783ZM222.258 299.072H227.13V300.962H215.034V299.072H219.906V298.358H215.762V293.5H226.402V298.358H222.258V299.072ZM218.1 295.32V296.538H224.064V295.32H218.1ZM215.678 303.454V301.578H226.43V305.596H224.036V303.454H215.678ZM230.377 305.806H227.871C229.467 304.14 230.573 301.984 230.573 299.464C230.573 296.944 229.467 294.788 227.871 293.122H230.377C231.973 294.83 233.009 296.874 233.009 299.464C233.009 302.054 231.973 304.098 230.377 305.806Z" fill="#AFAFAF"/>
<circle cx="20.5" cy="366.5" r="18.8" fill="#D0B15E" stroke="#D0B15E" stroke-width="2.4"/>
<path d="M20.458 373.462C23.482 373.462 25.786 371.446 25.786 368.35C25.786 365.236 23.842 363.382 20.962 363.382C20.026 363.382 19.234 363.616 18.604 363.994L18.766 361.24H25.066V358.45H15.796L15.364 367.018H18.334C18.73 366.478 19.378 366.028 20.404 366.028C21.808 366.028 22.6 366.982 22.6 368.35C22.6 369.7 21.79 370.69 20.458 370.69C19.108 370.69 18.442 370.006 18.316 368.836H15.094C15.328 371.662 17.272 373.462 20.458 373.462Z" fill="white"/>
<path d="M71.32 345H74.48V362.08H71.32V354.48H69.9V361.78H66.78V345.08H69.9V351.28H71.32V345ZM61.08 358.3H62C63.34 358.3 64.94 358.1 65.98 357.72V360.68C64.96 361.1 63.14 361.28 61.7 361.28H57.78V345.36H61.08V358.3ZM92.7983 345.2V354.22H77.5183V345.2H80.8183V346.74H89.4983V345.2H92.7983ZM80.8183 351.24H89.4983V349.68H80.8183V351.24ZM93.7983 355.56V358.66H86.8983V362.48H83.4183V358.66H76.5183V355.56H93.7983ZM111.957 349.32V351.86H96.4366V349.32H99.0566V347.54H96.6166V345H111.777V347.54H109.337V349.32H111.957ZM102.417 347.54V349.32H105.977V347.54H102.417ZM112.837 355.2H105.877V356.1H111.837V362.08H96.5566V356.1H102.517V355.2H95.5566V352.64H112.837V355.2ZM108.497 359.6V358.58H99.8966V359.6H108.497ZM127.875 354.76V352.94H126.335V350.24H127.875V349.08H126.335V346.38H127.875V345H131.195V354.76H127.875ZM125.855 353.96C124.975 354.24 123.335 354.4 121.715 354.4H114.715V351.74H116.115V347.88H114.835V345.2H125.595V347.88H124.275V351.64C124.895 351.58 125.435 351.48 125.855 351.36V353.96ZM119.315 347.88V351.74H121.075V347.88H119.315ZM123.555 355.04C127.915 355.04 131.355 355.96 131.355 358.66C131.355 361.36 127.915 362.28 123.555 362.28C119.195 362.28 115.755 361.36 115.755 358.66C115.755 355.96 119.195 355.04 123.555 355.04ZM123.555 359.66C125.855 359.66 127.715 359.4 127.715 358.66C127.715 357.94 125.855 357.68 123.555 357.68C121.255 357.68 119.395 357.94 119.395 358.66C119.395 359.4 121.255 359.66 123.555 359.66ZM145.373 346.48V349.36H133.693V346.48H137.773V344.88H141.253V346.48H145.373ZM146.813 345H150.193V362.08H146.813V345ZM141.213 358.3H141.413C142.993 358.3 144.773 358.1 145.833 357.62V360.6C144.773 361.08 143.053 361.28 141.353 361.28H133.633V358.3H137.833V356.86C135.733 356.46 134.333 355.3 134.333 353.44C134.333 351.12 136.533 349.88 139.553 349.88C142.573 349.88 144.773 351.12 144.773 353.44C144.773 355.32 143.353 356.48 141.213 356.86V358.3ZM137.493 353.44C137.493 354.04 138.333 354.34 139.553 354.34C140.773 354.34 141.613 354.04 141.613 353.44C141.613 352.84 140.773 352.54 139.553 352.54C138.333 352.54 137.493 352.84 137.493 353.44Z" fill="#4C4036"/>
<path d="M64.844 378.85V380.362L60.602 390.26H57.942L61.876 381.062H57.004V378.85H64.844ZM69.9117 382.798C67.7697 382.798 66.2997 382.028 66.2997 380.586C66.2997 379.144 67.7697 378.374 69.9117 378.374C72.0537 378.374 73.5237 379.144 73.5237 380.586C73.5237 382.028 72.0537 382.798 69.9117 382.798ZM75.0917 384.968V381.72H73.9997V379.62H75.0917V378.5H77.4577V384.968H75.0917ZM69.9117 379.984C69.0717 379.984 68.5537 380.194 68.5537 380.586C68.5537 380.978 69.0717 381.188 69.9117 381.188C70.7517 381.188 71.2697 380.978 71.2697 380.586C71.2697 380.194 70.7517 379.984 69.9117 379.984ZM69.0717 388.972H77.5977V390.456H66.7757V387.292H75.1477V386.872H66.7477V385.388H68.7357V384.828H65.8097V383.134H71.3117C72.4177 383.134 73.6637 382.994 74.4057 382.714V384.394C73.6637 384.716 72.4597 384.828 71.2697 384.828H71.0597V385.388H77.4577V388.552H69.0717V388.972ZM87.2043 378.85V390.26H84.6703V381.062H82.6543V378.85H87.2043ZM94.1988 390.26V387.964H89.0748V385.864L93.4848 378.85H96.6068V385.864H98.1048V387.964H96.6068V390.26H94.1988ZM91.5108 385.864H94.1988V381.468L91.5108 385.864ZM110.488 378.5V384.352H108.121V378.5H110.488ZM102.843 378.514C105.195 378.514 106.693 379.69 106.693 381.412C106.693 383.148 105.195 384.31 102.843 384.31C100.491 384.31 98.9935 383.148 98.9935 381.412C98.9935 379.69 100.491 378.514 102.843 378.514ZM102.843 380.376C101.933 380.376 101.331 380.782 101.331 381.412C101.331 382.042 101.933 382.448 102.843 382.448C103.753 382.448 104.355 382.042 104.355 381.412C104.355 380.782 103.753 380.376 102.843 380.376ZM110.488 384.772V388.342H102.283V388.818H110.614V390.456H99.9455V386.886H108.149V386.41H99.9175V384.772H110.488ZM114.588 390.806C112.992 389.098 111.956 387.054 111.956 384.464C111.956 381.874 112.992 379.83 114.588 378.122H117.094C115.498 379.788 114.392 381.944 114.392 384.464C114.392 386.984 115.498 389.14 117.094 390.806H114.588ZM121.941 382.798C119.799 382.798 118.329 382.028 118.329 380.586C118.329 379.144 119.799 378.374 121.941 378.374C124.083 378.374 125.553 379.144 125.553 380.586C125.553 382.028 124.083 382.798 121.941 382.798ZM127.121 384.968V381.72H126.029V379.62H127.121V378.5H129.487V384.968H127.121ZM121.941 379.984C121.101 379.984 120.583 380.194 120.583 380.586C120.583 380.978 121.101 381.188 121.941 381.188C122.781 381.188 123.299 380.978 123.299 380.586C123.299 380.194 122.781 379.984 121.941 379.984ZM121.101 388.972H129.627V390.456H118.805V387.292H127.177V386.872H118.777V385.388H120.765V384.828H117.839V383.134H123.341C124.447 383.134 125.693 382.994 126.435 382.714V384.394C125.693 384.716 124.489 384.828 123.299 384.828H123.089V385.388H129.487V388.552H121.101V388.972ZM133.182 390.806H130.676C132.272 389.14 133.378 386.984 133.378 384.464C133.378 381.944 132.272 379.788 130.676 378.122H133.182C134.778 379.83 135.814 381.874 135.814 384.464C135.814 387.054 134.778 389.098 133.182 390.806Z" fill="#AFAFAF"/>
<circle cx="20.5" cy="451.5" r="18.8" fill="#D0B15E" stroke="#D0B15E" stroke-width="2.4"/>
<path d="M20.638 458.462C23.716 458.462 26.2 456.32 26.2 453.314C26.2 450.344 23.842 448.346 20.98 448.346C20.818 448.346 20.656 448.382 20.566 448.418L23.896 443.45H20.188L16.408 449.444C15.544 450.812 15.076 451.91 15.076 453.332C15.076 456.464 17.578 458.462 20.638 458.462ZM20.638 455.69C19.18 455.69 18.262 454.664 18.262 453.35C18.262 452.036 19.18 451.01 20.638 451.01C22.096 451.01 23.014 452.036 23.014 453.35C23.014 454.664 22.096 455.69 20.638 455.69Z" fill="white"/>
<path d="M70.62 430H74V438.84H70.62V430ZM63.7 436.32C62.36 437.78 60.3 438.86 57.86 438.92V435.98C60.06 435.86 61.52 434.42 61.92 432.98H58.1V430.2H69.14V432.98H65.36C65.32 433.28 65.24 433.58 65.16 433.9L69.72 436.24L68.2 438.74L63.7 436.32ZM70.68 440.56V439.44H74V447.08H58.72V439.44H62.04V440.56H70.68ZM62.04 444.4H70.68V443.18H62.04V444.4ZM92.5183 436.72L84.6983 435.04C82.8183 436.06 80.1383 436.6 77.2983 436.64V434.02C79.6783 433.98 82.2383 433.46 83.2983 432.58H77.4983V430H92.8183V432.58H87.0783C87.0383 432.72 86.9783 432.84 86.9183 432.98L93.2383 434.2L92.5183 436.72ZM93.7983 439.84H86.8383V440.64C90.5183 440.84 92.9583 441.8 92.9583 443.94C92.9583 446.4 89.7583 447.28 85.1583 447.28C80.5583 447.28 77.3583 446.4 77.3583 443.94C77.3583 441.8 79.7983 440.84 83.4783 440.64V439.84H76.5183V437.24H93.7983V439.84ZM89.3583 443.94C89.3583 443.34 87.6383 443.12 85.1583 443.12C82.6783 443.12 80.9583 443.34 80.9583 443.94C80.9583 444.56 82.6783 444.76 85.1583 444.76C87.6383 444.76 89.3583 444.56 89.3583 443.94ZM108.477 441.66V433.5H96.4366V430.4H111.937V441.66H108.477ZM106.757 443.38H112.837V446.48H95.5566V443.38H98.1766V437.44H101.577V443.38H103.357V437.44H106.757V443.38ZM123.235 437.2C118.735 437.2 115.395 436.06 115.395 433.46C115.395 430.86 118.735 429.72 123.235 429.72C127.735 429.72 131.075 430.86 131.075 433.46C131.075 436.06 127.735 437.2 123.235 437.2ZM123.235 432.3C120.675 432.3 118.995 432.72 118.995 433.46C118.995 434.22 120.675 434.62 123.235 434.62C125.795 434.62 127.475 434.22 127.475 433.46C127.475 432.72 125.795 432.3 123.235 432.3ZM131.875 440.48H128.115V441.76H130.875V447.28H127.455V444.42H115.515V441.76H118.355V440.48H114.595V437.8H131.875V440.48ZM124.795 441.76V440.48H121.675V441.76H124.795Z" fill="#4C4036"/>
<path d="M64.844 463.85V465.362L60.602 475.26H57.942L61.876 466.062H57.004V463.85H64.844ZM69.9117 467.798C67.7697 467.798 66.2997 467.028 66.2997 465.586C66.2997 464.144 67.7697 463.374 69.9117 463.374C72.0537 463.374 73.5237 464.144 73.5237 465.586C73.5237 467.028 72.0537 467.798 69.9117 467.798ZM75.0917 469.968V466.72H73.9997V464.62H75.0917V463.5H77.4577V469.968H75.0917ZM69.9117 464.984C69.0717 464.984 68.5537 465.194 68.5537 465.586C68.5537 465.978 69.0717 466.188 69.9117 466.188C70.7517 466.188 71.2697 465.978 71.2697 465.586C71.2697 465.194 70.7517 464.984 69.9117 464.984ZM69.0717 473.972H77.5977V475.456H66.7757V472.292H75.1477V471.872H66.7477V470.388H68.7357V469.828H65.8097V468.134H71.3117C72.4177 468.134 73.6637 467.994 74.4057 467.714V469.394C73.6637 469.716 72.4597 469.828 71.2697 469.828H71.0597V470.388H77.4577V473.552H69.0717V473.972ZM86.7423 463.542C89.3043 463.542 90.8163 465.054 90.8163 467.126C90.8163 468.316 90.2423 469.338 88.2403 471.41L86.6023 473.104H91.0403V475.26H82.8783V473.804L86.6163 469.954C87.9883 468.54 88.3103 467.798 88.3103 467.154C88.3103 466.314 87.8483 465.754 86.7423 465.754C85.7063 465.754 85.1463 466.594 85.1463 467.462H82.6403C82.6403 465.222 84.3343 463.542 86.7423 463.542ZM96.7281 475.26V472.964H91.6041V470.864L96.0141 463.85H99.1361V470.864H100.634V472.964H99.1361V475.26H96.7281ZM94.0401 470.864H96.7281V466.468L94.0401 470.864ZM113.017 463.5V469.352H110.651V463.5H113.017ZM105.373 463.514C107.725 463.514 109.223 464.69 109.223 466.412C109.223 468.148 107.725 469.31 105.373 469.31C103.021 469.31 101.523 468.148 101.523 466.412C101.523 464.69 103.021 463.514 105.373 463.514ZM105.373 465.376C104.463 465.376 103.861 465.782 103.861 466.412C103.861 467.042 104.463 467.448 105.373 467.448C106.283 467.448 106.885 467.042 106.885 466.412C106.885 465.782 106.283 465.376 105.373 465.376ZM113.017 469.772V473.342H104.813V473.818H113.143V475.456H102.475V471.886H110.679V471.41H102.447V469.772H113.017ZM117.118 475.806C115.522 474.098 114.486 472.054 114.486 469.464C114.486 466.874 115.522 464.83 117.118 463.122H119.624C118.028 464.788 116.922 466.944 116.922 469.464C116.922 471.984 118.028 474.14 119.624 475.806H117.118ZM127.592 469.072H132.464V470.962H120.368V469.072H125.24V468.358H121.096V463.5H131.736V468.358H127.592V469.072ZM123.434 465.32V466.538H129.398V465.32H123.434ZM121.012 473.454V471.578H131.764V475.596H129.37V473.454H121.012ZM135.711 475.806H133.205C134.801 474.14 135.907 471.984 135.907 469.464C135.907 466.944 134.801 464.788 133.205 463.122H135.711C137.307 464.83 138.343 466.874 138.343 469.464C138.343 472.054 137.307 474.098 135.711 475.806ZM143.081 468.624C143.585 468.19 144.229 467.98 144.957 467.98C146.203 467.98 147.127 468.904 148.247 468.904C148.961 468.904 149.423 468.652 149.899 468.134V470.332C149.395 470.836 148.751 471.088 148.023 471.088C146.791 471.088 145.853 470.164 144.733 470.164C144.019 470.164 143.557 470.374 143.081 470.822V468.624ZM163.342 472.152C163.342 474.224 161.424 475.54 159.002 475.54C156.58 475.54 154.662 474.224 154.662 472.152C154.662 470.57 155.964 469.562 156.972 469.352C156.09 469.086 155.054 468.106 155.054 466.804C155.054 465.012 156.678 463.542 159.002 463.542C161.34 463.542 162.922 465.04 162.922 466.804C162.922 468.106 161.9 469.086 161.032 469.352C162.054 469.562 163.342 470.57 163.342 472.152ZM160.542 466.902C160.542 466.174 159.912 465.614 159.002 465.614C158.12 465.614 157.462 466.118 157.462 466.846C157.462 467.644 158.148 468.204 159.002 468.204C159.884 468.204 160.542 467.672 160.542 466.902ZM160.892 471.998C160.892 471.144 160.094 470.514 159.002 470.514C157.91 470.514 157.112 471.144 157.112 471.998C157.112 472.824 157.882 473.44 159.002 473.44C160.122 473.44 160.892 472.824 160.892 471.998ZM168.406 467.798C166.264 467.798 164.794 467.028 164.794 465.586C164.794 464.144 166.264 463.374 168.406 463.374C170.548 463.374 172.018 464.144 172.018 465.586C172.018 467.028 170.548 467.798 168.406 467.798ZM173.586 469.968V466.72H172.494V464.62H173.586V463.5H175.952V469.968H173.586ZM168.406 464.984C167.566 464.984 167.048 465.194 167.048 465.586C167.048 465.978 167.566 466.188 168.406 466.188C169.246 466.188 169.764 465.978 169.764 465.586C169.764 465.194 169.246 464.984 168.406 464.984ZM167.566 473.972H176.092V475.456H165.27V472.292H173.642V471.872H165.242V470.388H167.23V469.828H164.304V468.134H169.806C170.912 468.134 172.158 467.994 172.9 467.714V469.394C172.158 469.716 170.954 469.828 169.764 469.828H169.554V470.388H175.952V473.552H167.566V473.972ZM185.236 463.542C187.798 463.542 189.31 465.054 189.31 467.126C189.31 468.316 188.736 469.338 186.734 471.41L185.096 473.104H189.534V475.26H181.372V473.804L185.11 469.954C186.482 468.54 186.804 467.798 186.804 467.154C186.804 466.314 186.342 465.754 185.236 465.754C184.2 465.754 183.64 466.594 183.64 467.462H181.134C181.134 465.222 182.828 463.542 185.236 463.542ZM199.026 472.152C199.026 474.224 197.108 475.54 194.686 475.54C192.264 475.54 190.346 474.224 190.346 472.152C190.346 470.57 191.648 469.562 192.656 469.352C191.774 469.086 190.738 468.106 190.738 466.804C190.738 465.012 192.362 463.542 194.686 463.542C197.024 463.542 198.606 465.04 198.606 466.804C198.606 468.106 197.584 469.086 196.716 469.352C197.738 469.562 199.026 470.57 199.026 472.152ZM196.226 466.902C196.226 466.174 195.596 465.614 194.686 465.614C193.804 465.614 193.146 466.118 193.146 466.846C193.146 467.644 193.832 468.204 194.686 468.204C195.568 468.204 196.226 467.672 196.226 466.902ZM196.576 471.998C196.576 471.144 195.778 470.514 194.686 470.514C193.594 470.514 192.796 471.144 192.796 471.998C192.796 472.824 193.566 473.44 194.686 473.44C195.806 473.44 196.576 472.824 196.576 471.998ZM211.552 463.5V469.352H209.186V463.5H211.552ZM203.908 463.514C206.26 463.514 207.758 464.69 207.758 466.412C207.758 468.148 206.26 469.31 203.908 469.31C201.556 469.31 200.058 468.148 200.058 466.412C200.058 464.69 201.556 463.514 203.908 463.514ZM203.908 465.376C202.998 465.376 202.396 465.782 202.396 466.412C202.396 467.042 202.998 467.448 203.908 467.448C204.818 467.448 205.42 467.042 205.42 466.412C205.42 465.782 204.818 465.376 203.908 465.376ZM211.552 469.772V473.342H203.348V473.818H211.678V475.456H201.01V471.886H209.214V471.41H200.982V469.772H211.552ZM215.652 475.806C214.056 474.098 213.02 472.054 213.02 469.464C213.02 466.874 214.056 464.83 215.652 463.122H218.158C216.562 464.788 215.456 466.944 215.456 469.464C215.456 471.984 216.562 474.14 218.158 475.806H215.652ZM226.127 469.072H230.999V470.962H218.903V469.072H223.775V468.358H219.631V463.5H230.271V468.358H226.127V469.072ZM221.969 465.32V466.538H227.933V465.32H221.969ZM219.547 473.454V471.578H230.299V475.596H227.905V473.454H219.547ZM234.246 475.806H231.74C233.336 474.14 234.442 471.984 234.442 469.464C234.442 466.944 233.336 464.788 231.74 463.122H234.246C235.842 464.83 236.878 466.874 236.878 469.464C236.878 472.054 235.842 474.098 234.246 475.806Z" fill="#AFAFAF"/>
<circle cx="20.5" cy="536.5" r="18.8" fill="#D0B15E" stroke="#D0B15E" stroke-width="2.4"/>
<path d="M26.228 528.45H16.148V531.294H22.412L17.354 543.12H20.774L26.228 530.394V528.45Z" fill="white"/>
<path d="M70.7 524.56V519.78H67.62V516.76H70.7V515H74.08V524.56H70.7ZM63.42 521.24C62 523.1 59.92 524.34 57.44 524.48V521.44C60.1 521.12 61.9 518.52 61.96 515.08L65.36 515.28C65.36 516.48 65.16 517.62 64.78 518.68L69.38 521.78L67.52 524.1L63.42 521.24ZM66.44 524.8C70.8 524.8 74.24 525.76 74.24 528.54C74.24 531.32 70.8 532.28 66.44 532.28C62.08 532.28 58.64 531.32 58.64 528.54C58.64 525.76 62.08 524.8 66.44 524.8ZM66.44 529.62C68.74 529.62 70.6 529.32 70.6 528.54C70.6 527.78 68.74 527.46 66.44 527.46C64.14 527.46 62.28 527.78 62.28 528.54C62.28 529.32 64.14 529.62 66.44 529.62ZM94.5583 521.08V524.36H92.5983V532.08H89.2183V515H92.5983V521.08H94.5583ZM83.7383 526.18V518.64H77.0383V515.5H87.1383V526.18H83.7383ZM82.0983 528.12H83.8183C85.3983 528.12 87.1783 527.92 88.2383 527.44V530.6C87.1783 531.08 85.4583 531.28 83.7583 531.28H76.5183V528.12H78.6983V521.94H82.0983V528.12ZM108.357 520.74V517.74H96.5566V515H111.757V520.74H108.357ZM104.597 521.54H112.837V524.24H95.5566V521.54H101.197V519H104.597V521.54ZM104.197 525.12C108.797 525.12 111.997 526.12 111.997 528.7C111.997 531.28 108.797 532.28 104.197 532.28C99.5966 532.28 96.3966 531.28 96.3966 528.7C96.3966 526.12 99.5966 525.12 104.197 525.12ZM104.197 529.72C106.677 529.72 108.397 529.4 108.397 528.7C108.397 528.02 106.677 527.68 104.197 527.68C101.717 527.68 99.9966 528.02 99.9966 528.7C99.9966 529.4 101.717 529.72 104.197 529.72ZM123.235 524.38C118.475 524.38 115.375 522.56 115.375 519.66C115.375 516.76 118.475 514.94 123.235 514.94C127.995 514.94 131.095 516.76 131.095 519.66C131.095 522.56 127.995 524.38 123.235 524.38ZM123.235 517.92C120.795 517.92 118.935 518.52 118.935 519.66C118.935 520.78 120.795 521.4 123.235 521.4C125.675 521.4 127.535 520.78 127.535 519.66C127.535 518.52 125.675 517.92 123.235 517.92ZM131.875 525.4V528.48H128.255V532.48H124.895V528.48H121.575V532.48H118.215V528.48H114.595V525.4H131.875ZM145.373 516.48V519.36H133.693V516.48H137.773V514.88H141.253V516.48H145.373ZM146.813 515H150.193V532.08H146.813V515ZM141.213 528.3H141.413C142.993 528.3 144.773 528.1 145.833 527.62V530.6C144.773 531.08 143.053 531.28 141.353 531.28H133.633V528.3H137.833V526.86C135.733 526.46 134.333 525.3 134.333 523.44C134.333 521.12 136.533 519.88 139.553 519.88C142.573 519.88 144.773 521.12 144.773 523.44C144.773 525.32 143.353 526.48 141.213 526.86V528.3ZM137.493 523.44C137.493 524.04 138.333 524.34 139.553 524.34C140.773 524.34 141.613 524.04 141.613 523.44C141.613 522.84 140.773 522.54 139.553 522.54C138.333 522.54 137.493 522.84 137.493 523.44Z" fill="#4C4036"/>
<path d="M58.558 560.26L61.148 556.396C61.078 556.424 60.952 556.452 60.826 556.452C58.6 556.452 56.766 554.898 56.766 552.588C56.766 550.152 58.712 548.584 61.092 548.584C63.472 548.584 65.418 550.138 65.418 552.574C65.418 553.68 65.054 554.534 64.382 555.598L61.442 560.26H58.558ZM61.092 554.38C62.226 554.38 62.94 553.582 62.94 552.56C62.94 551.538 62.226 550.74 61.092 550.74C59.958 550.74 59.244 551.538 59.244 552.56C59.244 553.582 59.958 554.38 61.092 554.38ZM70.5132 552.798C68.3712 552.798 66.9012 552.028 66.9012 550.586C66.9012 549.144 68.3712 548.374 70.5132 548.374C72.6552 548.374 74.1252 549.144 74.1252 550.586C74.1252 552.028 72.6552 552.798 70.5132 552.798ZM75.6932 554.968V551.72H74.6012V549.62H75.6932V548.5H78.0592V554.968H75.6932ZM70.5132 549.984C69.6732 549.984 69.1552 550.194 69.1552 550.586C69.1552 550.978 69.6732 551.188 70.5132 551.188C71.3532 551.188 71.8712 550.978 71.8712 550.586C71.8712 550.194 71.3532 549.984 70.5132 549.984ZM69.6732 558.972H78.1992V560.456H67.3772V557.292H75.7492V556.872H67.3492V555.388H69.3372V554.828H66.4112V553.134H71.9132C73.0192 553.134 74.2652 552.994 75.0072 552.714V554.394C74.2652 554.716 73.0612 554.828 71.8712 554.828H71.6612V555.388H78.0592V558.552H69.6732V558.972ZM87.8059 548.85V560.26H85.2719V551.062H83.2559V548.85H87.8059ZM94.3104 548.85V560.26H91.7764V551.062H89.7604V548.85H94.3104ZM108.095 548.5V554.352H105.729V548.5H108.095ZM100.451 548.514C102.803 548.514 104.301 549.69 104.301 551.412C104.301 553.148 102.803 554.31 100.451 554.31C98.0989 554.31 96.6009 553.148 96.6009 551.412C96.6009 549.69 98.0989 548.514 100.451 548.514ZM100.451 550.376C99.5409 550.376 98.9389 550.782 98.9389 551.412C98.9389 552.042 99.5409 552.448 100.451 552.448C101.361 552.448 101.963 552.042 101.963 551.412C101.963 550.782 101.361 550.376 100.451 550.376ZM108.095 554.772V558.342H99.8909V558.818H108.221V560.456H97.5529V556.886H105.757V556.41H97.5249V554.772H108.095ZM112.196 560.806C110.6 559.098 109.564 557.054 109.564 554.464C109.564 551.874 110.6 549.83 112.196 548.122H114.702C113.106 549.788 112 551.944 112 554.464C112 556.984 113.106 559.14 114.702 560.806H112.196ZM122.67 554.072H127.542V555.962H115.446V554.072H120.318V553.358H116.174V548.5H126.814V553.358H122.67V554.072ZM118.512 550.32V551.538H124.476V550.32H118.512ZM116.09 558.454V556.578H126.842V560.596H124.448V558.454H116.09ZM130.789 560.806H128.283C129.879 559.14 130.985 556.984 130.985 554.464C130.985 551.944 129.879 549.788 128.283 548.122H130.789C132.385 549.83 133.421 551.874 133.421 554.464C133.421 557.054 132.385 559.098 130.789 560.806Z" fill="#AFAFAF"/>
<g clip-path="url(#clip1_69_1998)">
<path d="M286.303 533.742L297.639 544.583L266.677 576.939C264.116 579.616 259.858 579.711 257.18 577.149L255.548 575.589C252.87 573.027 252.775 568.771 255.337 566.094L286.299 533.738L286.303 533.742Z" fill="#AFAFB0"/>
<path d="M307.589 562.815C329.636 562.815 347.508 544.948 347.508 522.907C347.508 500.867 329.636 483 307.589 483C285.543 483 267.671 500.867 267.671 522.907C267.671 544.948 285.543 562.815 307.589 562.815Z" fill="#84672B"/>
<path d="M285.751 545.73C273.159 533.688 272.715 513.657 284.76 501.069C296.805 488.481 316.842 488.037 329.434 500.078C342.026 512.12 342.47 532.151 330.425 544.739C318.38 557.328 298.343 557.772 285.751 545.73Z" fill="#F2ECDF"/>
<path opacity="0.8" d="M285.751 545.73C273.159 533.688 272.715 513.657 284.76 501.069C296.805 488.481 316.842 488.037 329.434 500.078C342.026 512.12 342.47 532.151 330.425 544.739C318.38 557.328 298.343 557.772 285.751 545.73Z" fill="white"/>
<path d="M284.895 536.171C284.329 536.133 283.769 535.882 283.364 535.419C282.54 534.486 282.624 533.065 283.557 532.241L295.756 521.422C296.683 520.598 298.099 520.682 298.929 521.602L304.378 527.674L322.884 510.995C323.81 510.158 325.232 510.236 326.062 511.162C326.892 512.088 326.821 513.51 325.895 514.339L305.71 532.531C305.266 532.929 304.681 533.135 304.082 533.11C303.478 533.09 302.924 532.807 302.525 532.363L297.063 526.272L286.542 535.605C286.073 536.024 285.474 536.21 284.895 536.165V536.171Z" fill="#EE7800"/>
<path d="M327.491 507.797L315.671 510.769C315.047 510.923 314.828 511.702 315.272 512.165L323.752 520.913C324.203 521.376 324.981 521.177 325.161 520.559L328.501 508.839C328.675 508.222 328.115 507.643 327.491 507.797Z" fill="#EE7800"/>
</g>
</g>
<defs>
<clipPath id="clip0_69_1998">
<rect width="367" height="597" fill="white" transform="translate(0.5)"/>
</clipPath>
<clipPath id="clip1_69_1998">
<rect width="98.008" height="100" fill="white" transform="translate(249.5 483)"/>
</clipPath>
</defs>
</svg>
