<svg width="94" height="338" viewBox="0 0 94 338" fill="none" xmlns="http://www.w3.org/2000/svg">
<g clip-path="url(#clip0_68_1920)">
<path d="M46.86 97.78V325.8" stroke="#00A968" stroke-width="5" stroke-miterlimit="10" stroke-linecap="round"/>
<path d="M42.11 171.72C44.1 168.62 35.1 149.35 24.39 146.1C20.69 144.98 15.26 144.93 12.67 148.62C9.32995 151.83 9.04995 157.29 11.55 160.7C18.82 170.62 40.36 174.46 42.11 171.73V171.72Z" fill="#00A968"/>
<path d="M51.61 212.05C49.62 208.95 58.62 189.68 69.33 186.43C73.03 185.31 78.46 185.26 81.05 188.95C84.39 192.16 84.67 197.62 82.17 201.03C74.9 210.95 53.36 214.79 51.61 212.06V212.05Z" fill="#00A968"/>
<path d="M42.11 242.21C44.1 239.11 35.1 219.84 24.39 216.59C20.69 215.47 15.26 215.42 12.67 219.11C9.32995 222.32 9.04995 227.78 11.55 231.19C18.82 241.11 40.36 244.95 42.11 242.22V242.21Z" fill="#00A968"/>
<path d="M0 47.24H93.72V88.81C93.72 114.67 72.72 135.67 46.86 135.67C21 135.66 0 114.67 0 88.81V47.24Z" fill="#EE7800"/>
<path d="M33.95 7.52002H24.45V47.24H33.95V7.52002Z" fill="#AFAFB0"/>
<path d="M67.5501 7.52002H58.05V47.24H67.5501V7.52002Z" fill="#AFAFB0"/>
<path d="M62.7999 13.2C66.445 13.2 69.4 10.2451 69.4 6.6C69.4 2.95492 66.445 0 62.7999 0C59.1549 0 56.2 2.95492 56.2 6.6C56.2 10.2451 59.1549 13.2 62.7999 13.2Z" fill="#EE7800"/>
<path d="M29.19 13.21C32.835 13.21 35.79 10.2551 35.79 6.61001C35.79 2.96493 32.835 0.0100098 29.19 0.0100098C25.5449 0.0100098 22.59 2.96493 22.59 6.61001C22.59 10.2551 25.5449 13.21 29.19 13.21Z" fill="#EE7800"/>
<path d="M46.86 335.45C52.1895 335.45 56.51 331.129 56.51 325.8C56.51 320.47 52.1895 316.15 46.86 316.15C41.5304 316.15 37.21 320.47 37.21 325.8C37.21 331.129 41.5304 335.45 46.86 335.45Z" fill="white" stroke="#00A968" stroke-width="4" stroke-miterlimit="10"/>
</g>
<defs>
<clipPath id="clip0_68_1920">
<rect width="93.72" height="337.45" fill="white"/>
</clipPath>
</defs>
</svg>
