<svg width="150" height="150" viewBox="0 0 150 150" fill="none" xmlns="http://www.w3.org/2000/svg">
<circle cx="75" cy="75" r="75" fill="#84672B"/>
<circle cx="75" cy="75" r="63" fill="#FCFBF9"/>
<path d="M93.9981 40.5065C94.7217 39.7645 95.9574 40.4779 95.6766 41.4756L85.2078 78.6703C85.0311 79.2983 84.3102 79.5916 83.7452 79.2654L67.2368 69.7343C66.6719 69.4081 66.5654 68.6371 67.0209 68.1701L93.9981 40.5065Z" fill="#EE7700"/>
<path d="M56.984 108.493C56.2604 109.235 55.0247 108.522 55.3055 107.524L65.7742 70.3292C65.951 69.7013 66.6719 69.4079 67.2368 69.7341L83.7453 79.2652C84.3102 79.5914 84.4166 80.3624 83.9612 80.8294L56.984 108.493Z" fill="#0084C2"/>
<path d="M74.5314 130.775C74.7885 129.773 76.2115 129.773 76.4686 130.775L78.6437 139.251C78.8061 139.884 78.3282 140.5 77.6751 140.5H73.3249C72.6718 140.5 72.1939 139.884 72.3563 139.251L74.5314 130.775Z" fill="#84672B"/>
<path d="M75.9686 19.2252C75.7115 20.2271 74.2885 20.2271 74.0314 19.2252L71.8563 10.7485C71.6939 10.1159 72.1718 9.5 72.8249 9.5L77.1751 9.5C77.8282 9.5 78.3061 10.1159 78.1437 10.7485L75.9686 19.2252Z" fill="#84672B"/>
<path d="M19.2252 74.0314C20.2271 74.2885 20.2271 75.7115 19.2252 75.9686L10.7485 78.1437C10.1159 78.3061 9.5 77.8282 9.5 77.1751L9.5 72.8249C9.5 72.1718 10.1159 71.6939 10.7485 71.8563L19.2252 74.0314Z" fill="#84672B"/>
<path d="M130.775 74.0314C129.773 74.2885 129.773 75.7115 130.775 75.9686L139.251 78.1437C139.884 78.3061 140.5 77.8282 140.5 77.1751L140.5 72.8249C140.5 72.1718 139.884 71.6939 139.251 71.8563L130.775 74.0314Z" fill="#84672B"/>
</svg>
