<svg width="298" height="165" viewBox="0 0 298 165" fill="none" xmlns="http://www.w3.org/2000/svg">
<g clip-path="url(#clip0_158_3982)">
<path d="M90.6089 30.2195C81.7641 30.2195 75.3433 23.9093 75.3433 15.2161C75.3433 6.52283 81.7641 0.212646 90.6089 0.212646C97.6183 0.212646 103.311 3.99409 105.111 9.8498L105.507 11.1433H97.0298L96.7443 10.6364C95.7246 8.83598 93.3707 7.67649 90.7429 7.67649C86.4312 7.67649 83.3024 10.8461 83.3024 15.2161C83.3024 19.586 86.4312 22.8547 90.7429 22.8547C93.7436 22.8547 95.9286 21.3981 96.9307 19.6851H89.2571V12.6466H105.746V15.2161C105.746 23.7695 99.238 30.2195 90.6147 30.2195H90.6089Z" fill="#231815"/>
<path d="M104.156 10.147H97.6125C96.4996 8.18343 93.9825 6.68017 90.743 6.68017C85.9011 6.68017 82.3003 10.246 82.3003 15.2219C82.3003 20.1978 85.9011 23.8569 90.743 23.8569C94.8973 23.8569 97.7756 21.3049 98.3991 18.6887H90.2535V13.6488H104.75V15.2219C104.75 23.3034 98.6962 29.2232 90.6148 29.2232C82.5333 29.2232 76.3513 23.3034 76.3513 15.2219C76.3513 7.14047 82.3993 1.21484 90.6089 1.21484C97.5775 1.21484 102.618 5.14196 104.156 10.147Z" fill="white"/>
<path d="M118.355 30.2196C111.072 30.2196 105.991 26.1177 105.711 20.0056L105.665 18.9626H113.705L113.816 19.8366C114.084 21.9225 115.984 23.216 118.78 23.216C120.645 23.216 122.003 22.4003 122.003 21.27C122.003 20.0406 121.146 19.3006 116.275 18.3916C112.092 17.6109 106.527 15.7813 106.527 8.9351C106.527 3.81937 111.375 0.247681 118.326 0.247681C124.776 0.247681 129.699 4.30298 130.02 9.89066L130.084 10.9453H122.02L121.886 10.1004C121.519 7.71735 119.532 7.21626 117.93 7.21626C116.327 7.21626 114.609 7.66491 114.609 8.9351C114.609 10.0655 116.001 10.6656 121.076 11.7202C127.159 12.9846 130.119 16.0202 130.119 21.0078C130.119 26.4323 125.283 30.2196 118.355 30.2196Z" fill="#231815"/>
<path d="M129.024 9.94896H122.871C122.509 7.62415 120.779 6.21995 117.93 6.21995C115.081 6.21995 113.612 7.33282 113.612 8.93513C113.612 10.9336 115.675 11.6154 120.878 12.6991C127.031 13.9751 129.123 17.0166 129.123 21.0078C129.123 26.1119 124.316 29.2233 118.361 29.2233C111.783 29.2233 106.976 25.6574 106.714 19.9648H112.832C113.158 22.5169 115.384 24.2182 118.786 24.2182C121.204 24.2182 123.005 23.0063 123.005 21.2758C123.005 19.1491 121.204 18.2984 116.461 17.4128C110.67 16.3349 107.529 13.946 107.529 8.94096C107.529 3.93593 112.307 1.24988 118.326 1.24988C124.345 1.24988 128.732 4.87983 129.024 9.95478V9.94896Z" fill="white"/>
<path d="M152.038 30.0214V27.2538L152.009 27.2654C150.226 28.1569 147.197 28.7104 144.103 28.7104H131.785V11.2016H142.483V7.69981H131.721V0.737049H149.982V18.1119H139.284V21.7419H144.342C146.795 21.7419 149.533 21.2408 151.153 20.495L152.044 20.0813V0.0844727H159.572V30.0214H152.044H152.038Z" fill="#231815"/>
<path d="M148.98 17.1155H138.282V22.744H144.336C146.987 22.744 149.865 22.1905 151.567 21.4039V26.3798C149.865 27.2305 146.888 27.7199 144.109 27.7199H132.787V12.2096H143.485V6.71511H132.723V1.73921H148.985V17.1155H148.98ZM158.564 29.0251H153.035V1.08081H158.564V29.0251Z" fill="white"/>
<path d="M185.337 30.0214V29.532H178.305V18.0128H175.817V10.8112H178.305V0.212657H185.337V0.0844727H192.504V30.0214H185.337ZM162.177 28.7163V0.737049H176.545V7.44344H169.378V11.2365H175.397V17.9429H169.378V21.9982H170.41C172.735 21.9982 175.158 21.6603 176.58 21.1417L177.92 20.6523V27.3936L177.303 27.65C175.409 28.4308 172.14 28.7046 169.92 28.7046H162.183L162.177 28.7163Z" fill="#231815"/>
<path d="M170.41 23.0062C172.601 23.0062 175.217 22.7091 176.918 22.0914V26.7352C175.252 27.4228 172.239 27.7141 169.914 27.7141H163.173V1.73921H175.543V6.45291H168.376V12.2445H174.395V16.9582H168.376V23.012H170.404L170.41 23.0062ZM179.301 1.21482H184.405V28.5356H179.301V17.0165H176.813V11.8134H179.301V1.21482ZM191.502 1.08081V29.0251H186.334V1.08081H191.502Z" fill="white"/>
<path d="M195.726 30.0214V20.5649H195.662V14.7383H198.401C195.348 13.4856 193.5 11.0384 193.5 7.88626C193.5 3.23665 197.521 0.113606 203.499 0.113606C209.477 0.113606 213.497 3.23665 213.497 7.88626C213.497 11.0384 211.65 13.4914 208.597 14.7383H214.837V0.0844727H222.365V24.2007H222.662V30.0272H195.732L195.726 30.0214ZM203.499 6.46457C202.328 6.46457 200.964 6.83747 200.964 7.88626C200.964 8.93504 202.328 9.30794 203.499 9.30794C204.67 9.30794 206.033 8.93504 206.033 7.88626C206.033 6.83747 204.67 6.46457 203.499 6.46457Z" fill="#231815"/>
<path d="M212.495 7.88625C212.495 11.9415 208.993 14.6567 203.499 14.6567C198.004 14.6567 194.503 11.9415 194.503 7.88625C194.503 3.83095 198.004 1.11577 203.499 1.11577C208.993 1.11577 212.495 3.86591 212.495 7.88625ZM221.363 24.0841H202.188V25.197H221.655V29.0251H196.723V20.6814H215.898V19.5685H196.659V15.7405H221.363V24.0841ZM199.962 7.88625C199.962 9.36037 201.372 10.3101 203.493 10.3101C205.614 10.3101 207.024 9.36037 207.024 7.88625C207.024 6.41213 205.62 5.4624 203.493 5.4624C201.366 5.4624 199.962 6.41213 199.962 7.88625ZM221.363 14.7616H215.834V1.08081H221.363V14.7558V14.7616Z" fill="white"/>
<path d="M120.552 72.4273C126.537 72.4273 131.389 67.5752 131.389 61.5899C131.389 55.6045 126.537 50.7524 120.552 50.7524C114.566 50.7524 109.714 55.6045 109.714 61.5899C109.714 67.5752 114.566 72.4273 120.552 72.4273Z" fill="#F8F1DE"/>
<mask id="mask0_158_3982" style="mask-type:luminance" maskUnits="userSpaceOnUse" x="109" y="50" width="23" height="23">
<path d="M120.552 72.4273C126.537 72.4273 131.389 67.5752 131.389 61.5899C131.389 55.6045 126.537 50.7524 120.552 50.7524C114.566 50.7524 109.714 55.6045 109.714 61.5899C109.714 67.5752 114.566 72.4273 120.552 72.4273Z" fill="white"/>
</mask>
<g mask="url(#mask0_158_3982)">
<path d="M129.076 54.3124L118.699 59.4223L122.404 63.7573L129.076 54.3124Z" fill="#EE7800" stroke="#231815" stroke-width="0.739975" stroke-linecap="round" stroke-linejoin="round"/>
<path d="M112.027 68.8672L122.404 63.7573L118.699 59.4224L112.027 68.8672Z" fill="#0084C2" stroke="#231815" stroke-width="0.739975" stroke-linecap="round" stroke-linejoin="round"/>
</g>
<path d="M120.552 72.4273C126.537 72.4273 131.389 67.5752 131.389 61.5899C131.389 55.6045 126.537 50.7524 120.552 50.7524C114.566 50.7524 109.714 55.6045 109.714 61.5899C109.714 67.5752 114.566 72.4273 120.552 72.4273Z" stroke="#231815" stroke-width="1.10705" stroke-miterlimit="10"/>
<path d="M120.552 64.8061C122.328 64.8061 123.768 63.3661 123.768 61.5898C123.768 59.8135 122.328 58.3735 120.552 58.3735C118.775 58.3735 117.335 59.8135 117.335 61.5898C117.335 63.3661 118.775 64.8061 120.552 64.8061Z" fill="#231815"/>
<path d="M120.552 50.7524V54.9534" stroke="#231815" stroke-width="1.10705" stroke-miterlimit="10"/>
<path d="M109.714 61.5898H113.915" stroke="#231815" stroke-width="1.10705" stroke-miterlimit="10"/>
<path d="M127.188 61.5898H131.389" stroke="#231815" stroke-width="1.10705" stroke-miterlimit="10"/>
<path d="M120.552 68.2263V72.4215" stroke="#231815" stroke-width="1.10705" stroke-miterlimit="10"/>
<path d="M3.87451 77.6828V42.9623H30.3097V51.6439H13.5117V55.8041H28.923V64.4857H13.5117V69.0012H30.6709V77.6828H3.87451Z" fill="#231815"/>
<path d="M5.08667 44.1743H29.1038V50.4379H12.3V57.0161H27.7171V63.2797H12.3V70.2133H29.4592V76.4769H5.08667V44.1801V44.1743Z" fill="#00A968"/>
<path d="M49.2753 78.4753C38.5603 78.4753 30.7876 70.8309 30.7876 60.3022C30.7876 49.7736 38.5661 42.1292 49.2753 42.1292C58.1259 42.1292 65.0828 47.4139 66.5919 55.2797L66.8658 56.7189H57.1587L56.9314 55.7983C56.2556 53.0307 53.2432 51.172 49.4268 51.172C44.2062 51.172 40.4131 55.0117 40.4131 60.3081C40.4131 65.6044 44.2062 69.4441 49.4268 69.4441C53.4705 69.4441 56.7858 66.8105 57.2344 64.4449L57.4209 63.4602H67.1221L66.9124 64.8528C65.9044 71.4601 59.3786 78.4812 49.2695 78.4812L49.2753 78.4753Z" fill="#231815"/>
<path d="M31.9937 60.3022C31.9937 50.5136 39.3235 43.3411 49.2753 43.3411C58.155 43.3411 64.0981 48.6899 65.4032 55.507H58.1142C57.3626 52.413 54.0705 49.9601 49.4326 49.9601C43.5652 49.9601 39.207 54.2775 39.207 60.3022C39.207 66.3269 43.5652 70.6444 49.4326 70.6444C54.0705 70.6444 57.8753 67.5913 58.4288 64.6605H65.7237C64.7332 71.1571 58.2366 77.2634 49.2753 77.2634C39.3293 77.2634 31.9937 70.0909 31.9937 60.3022Z" fill="#00A968"/>
<path d="M85.4934 78.4753C74.8599 78.4753 66.8484 70.6619 66.8484 60.3022C66.8484 49.9426 74.8658 42.1292 85.4934 42.1292C96.1211 42.1292 104.138 49.9426 104.138 60.3022C104.138 70.6619 96.1211 78.4753 85.4934 78.4753ZM85.4934 51.0496C80.2728 51.0496 76.4797 54.9418 76.4797 60.3022C76.4797 65.6627 80.2728 69.5548 85.4934 69.5548C90.714 69.5548 94.5071 65.6627 94.5071 60.3022C94.5071 54.9418 90.714 51.0496 85.4934 51.0496Z" fill="#231815"/>
<path d="M68.0542 60.3022C68.0542 50.5136 75.4656 43.3411 85.4931 43.3411C95.5207 43.3411 102.932 50.5136 102.932 60.3022C102.932 70.0909 95.5207 77.2634 85.4931 77.2634C75.4656 77.2634 68.0542 70.0909 68.0542 60.3022ZM95.7188 60.3022C95.7188 54.2018 91.3605 49.8377 85.4931 49.8377C79.6258 49.8377 75.2675 54.196 75.2675 60.3022C75.2675 66.4085 79.6258 70.7668 85.4931 70.7668C91.3605 70.7668 95.7188 66.3677 95.7188 60.3022Z" fill="#00A968"/>
<path d="M137.705 77.6828V42.9623H147.336V68.8847H163.464V77.6828H137.705Z" fill="#231815"/>
<path d="M146.125 44.1743V70.0909H162.253V76.471H138.911V44.1743H146.125Z" fill="#EE7800"/>
<path d="M180.845 78.4753C170.212 78.4753 162.2 70.6619 162.2 60.3022C162.2 49.9426 170.218 42.1292 180.845 42.1292C191.473 42.1292 199.49 49.9426 199.49 60.3022C199.49 70.6619 191.473 78.4753 180.845 78.4753ZM180.845 51.0496C175.625 51.0496 171.832 54.9418 171.832 60.3022C171.832 65.6627 175.625 69.5548 180.845 69.5548C186.066 69.5548 189.859 65.6627 189.859 60.3022C189.859 54.9418 186.066 51.0496 180.845 51.0496Z" fill="#231815"/>
<path d="M163.406 60.3022C163.406 50.5136 170.818 43.3411 180.845 43.3411C190.873 43.3411 198.284 50.5136 198.284 60.3022C198.284 70.0909 190.873 77.2634 180.845 77.2634C170.818 77.2634 163.406 70.0909 163.406 60.3022ZM191.065 60.3022C191.065 54.2018 186.707 49.8377 180.839 49.8377C174.972 49.8377 170.614 54.196 170.614 60.3022C170.614 66.4085 174.972 70.7668 180.839 70.7668C186.707 70.7668 191.065 66.3677 191.065 60.3022Z" fill="#EE7800"/>
<path d="M218.013 78.4753C207.298 78.4753 199.525 70.8309 199.525 60.3022C199.525 49.7736 207.304 42.1292 218.013 42.1292C226.863 42.1292 233.82 47.4139 235.329 55.2797L235.603 56.7189H225.896L225.669 55.7983C224.993 53.0307 221.981 51.172 218.164 51.172C212.944 51.172 209.151 55.0117 209.151 60.3081C209.151 65.6044 212.944 69.4441 218.164 69.4441C222.208 69.4441 225.523 66.8105 225.972 64.4449L226.158 63.4602H235.86L235.65 64.8528C234.642 71.4601 228.116 78.4812 218.007 78.4812L218.013 78.4753Z" fill="#231815"/>
<path d="M200.737 60.3022C200.737 50.5136 208.067 43.3411 218.019 43.3411C226.899 43.3411 232.842 48.6899 234.147 55.507H226.858C226.106 52.413 222.814 49.9601 218.176 49.9601C212.309 49.9601 207.951 54.2775 207.951 60.3022C207.951 66.3269 212.309 70.6444 218.176 70.6444C222.814 70.6444 226.619 67.5913 227.172 64.6605H234.467C233.477 71.1571 226.98 77.2634 218.019 77.2634C208.073 77.2634 200.737 70.0909 200.737 60.3022Z" fill="#EE7800"/>
<path d="M257.826 77.6828L255.565 71.4193H244.739L242.479 77.6828H232.41L245.87 42.9623H255.018L268.477 77.6828H257.814H257.826ZM252.477 62.7377L250.152 56.2702L247.828 62.7377H252.471H252.477Z" fill="#231815"/>
<path d="M256.416 70.2132H243.895L241.634 76.4768H234.182L246.703 44.1801H254.196L266.717 76.4768H258.671L256.41 70.2132H256.416ZM254.196 63.9496L250.152 52.6927L246.109 63.9496H254.196Z" fill="#EE7800"/>
<path d="M268.36 77.6828V42.9623H277.998V68.8847H294.125V77.6828H268.36Z" fill="#231815"/>
<path d="M276.786 44.1743V70.0909H292.914V76.471H269.572V44.1743H276.786Z" fill="#EE7800"/>
<path d="M13.3312 123.119C6.04793 123.119 0.967157 119.017 0.687482 112.905L0.640869 111.862H8.68154L8.79225 112.736C9.06027 114.821 10.9597 116.115 13.7565 116.115C15.621 116.115 16.9786 115.299 16.9786 114.169C16.9786 112.939 16.1221 112.2 11.2511 111.291C7.06758 110.51 1.5032 108.68 1.5032 101.834C1.5032 96.7183 6.35091 93.1466 13.302 93.1466C19.752 93.1466 24.6755 97.2019 24.996 102.79L25.06 103.844H16.9961L16.8621 102.999C16.495 100.616 14.5081 100.115 12.9058 100.115C11.3035 100.115 9.58466 100.564 9.58466 101.834C9.58466 102.964 10.9772 103.565 16.0522 104.619C22.1351 105.884 25.095 108.919 25.095 113.907C25.095 119.331 20.2589 123.119 13.3312 123.119Z" fill="#231815"/>
<path d="M23.9938 102.848H17.8409C17.4797 100.523 15.7492 99.1189 12.9 99.1189C10.0508 99.1189 8.5825 100.232 8.5825 101.834C8.5825 103.833 10.6451 104.514 15.8482 105.598C22.0011 106.874 24.0928 109.916 24.0928 113.907C24.0928 119.011 19.2859 122.122 13.3312 122.122C6.75296 122.122 1.94603 118.556 1.68384 112.864H7.80174C8.12803 115.416 10.3538 117.117 13.7565 117.117C16.1745 117.117 17.9749 115.905 17.9749 114.175C17.9749 112.048 16.1745 111.197 11.4317 110.312C5.64008 109.234 2.49956 106.845 2.49956 101.84C2.49956 96.8349 7.27735 94.1488 13.2962 94.1488C19.3151 94.1488 23.7025 97.7788 23.9938 102.854V102.848Z" fill="white"/>
<path d="M40.4829 123.119C31.7081 123.119 25.0891 116.669 25.0891 108.115C25.0891 99.5617 31.7081 93.1117 40.4829 93.1117C49.2577 93.1117 55.8767 99.5617 55.8767 108.115C55.8767 116.669 49.2577 123.119 40.4829 123.119ZM40.4829 100.476C36.1713 100.476 33.0424 103.687 33.0424 108.115C33.0424 112.543 36.1713 115.754 40.4829 115.754C44.7946 115.754 47.9235 112.543 47.9235 108.115C47.9235 103.687 44.7946 100.476 40.4829 100.476Z" fill="#231815"/>
<path d="M26.0854 108.115C26.0854 100.034 32.2034 94.1138 40.4829 94.1138C48.7625 94.1138 54.8804 100.034 54.8804 108.115C54.8804 116.196 48.7625 122.116 40.4829 122.116C32.2034 122.116 26.0854 116.196 26.0854 108.115ZM48.9256 108.115C48.9256 103.075 45.3248 99.48 40.4829 99.48C35.641 99.48 32.0402 103.081 32.0402 108.115C32.0402 113.149 35.641 116.75 40.4829 116.75C45.3248 116.75 48.9256 113.12 48.9256 108.115Z" fill="white"/>
<path d="M71.1716 123.119C62.3269 123.119 55.906 116.808 55.906 108.115C55.906 99.4219 62.3269 93.1117 71.1716 93.1117C78.4782 93.1117 84.2232 97.4758 85.4701 103.967L85.6973 105.155H77.6857L77.4993 104.392C76.9458 102.108 74.452 100.576 71.3056 100.576C66.994 100.576 63.8651 103.745 63.8651 108.115C63.8651 112.485 66.994 115.655 71.3056 115.655C74.6443 115.655 77.3828 113.481 77.7498 111.53L77.9013 110.714H85.9129L85.7381 111.862C84.9049 117.315 79.5211 123.113 71.1716 123.113V123.119Z" fill="#231815"/>
<path d="M56.908 108.115C56.908 100.034 62.9618 94.1138 71.1714 94.1138C78.5012 94.1138 83.4072 98.5303 84.4851 104.159H78.4663C77.8428 101.607 75.1277 99.5791 71.2996 99.5791C66.4577 99.5791 62.8569 103.145 62.8569 108.121C62.8569 113.097 66.4577 116.663 71.2996 116.663C75.1277 116.663 78.2682 114.146 78.7285 111.722H84.7473C83.9316 117.088 78.5653 122.128 71.1714 122.128C62.9559 122.128 56.908 116.208 56.908 108.127V108.115Z" fill="white"/>
<path d="M94.8158 93.8051H86.8625V122.466H94.8158V93.8051Z" fill="#231815"/>
<path d="M93.8136 94.8014V121.47H87.8589V94.8014H93.8136Z" fill="white"/>
<path d="M115.687 122.466L113.822 117.298H104.884L103.02 122.466H94.7109L105.822 93.8051H113.373L124.485 122.466H115.681H115.687ZM111.27 110.131L109.353 104.794L107.436 110.131H111.27Z" fill="#231815"/>
<path d="M114.521 116.296H104.179L102.314 121.464H96.1616L106.498 94.7955H112.68L123.016 121.464H116.374L114.51 116.296H114.521ZM112.692 111.127L109.353 101.834L106.014 111.127H112.692Z" fill="white"/>
<path d="M124.386 122.466V93.8051H132.339V115.2H145.659V122.466H124.386Z" fill="#231815"/>
<path d="M131.343 94.8014V116.202H144.656V121.47H125.382V94.8014H131.337H131.343Z" fill="white"/>
<path d="M163.126 93.8051H155.173V122.466H163.126V93.8051Z" fill="#231815"/>
<path d="M162.13 94.8014V121.47H156.176V94.8014H162.13Z" fill="white"/>
<path d="M187.435 122.466V110.428L182.814 118.084H178.083L173.463 110.428V122.466H165.51V93.8051H171.814L180.449 107.818L189.084 93.8051H195.388V122.466H187.435Z" fill="#231815"/>
<path d="M166.512 94.8014H171.255L180.449 109.723L189.643 94.8014H194.386V121.47H188.431V106.845L182.249 117.088H178.648L172.466 106.845V121.47H166.512V94.8014Z" fill="white"/>
<path d="M197.771 122.466V93.8051H209.011C216.294 93.8051 221.002 98.0235 221.002 104.555C221.002 111.087 216.405 115.369 209.011 115.369H205.725V122.472H197.771V122.466ZM208.749 108.103C211.604 108.103 213.049 106.909 213.049 104.555C213.049 102.201 211.604 101.071 208.749 101.071H205.725V108.103H208.749Z" fill="#231815"/>
<path d="M198.768 94.8014H209.011C215.945 94.8014 220.006 98.6644 220.006 104.549C220.006 110.434 215.95 114.367 209.011 114.367H204.723V121.47H198.768V94.8014ZM208.749 109.1C212.052 109.1 214.051 107.527 214.051 104.549C214.051 101.572 212.052 100.069 208.749 100.069H204.723V109.1H208.749Z" fill="white"/>
<path d="M237.625 122.466L235.761 117.298H226.823L224.958 122.466H216.649L227.761 93.8051H235.312L246.423 122.466H237.619H237.625ZM233.209 110.131L231.292 104.794L229.375 110.131H233.209Z" fill="#231815"/>
<path d="M236.46 116.296H226.118L224.253 121.464H218.1L228.437 94.7955H234.619L244.955 121.464H238.313L236.448 116.296H236.46ZM234.63 111.127L231.292 101.834L227.953 111.127H234.63Z" fill="white"/>
<path d="M259.102 123.119C250.257 123.119 243.836 116.808 243.836 108.115C243.836 99.4219 250.257 93.1117 259.102 93.1117C266.408 93.1117 272.153 97.4758 273.4 103.967L273.627 105.155H265.616L265.429 104.392C264.876 102.108 262.382 100.576 259.236 100.576C254.924 100.576 251.795 103.745 251.795 108.115C251.795 112.485 254.924 115.655 259.236 115.655C262.574 115.655 265.313 113.481 265.68 111.53L265.832 110.714H273.843L273.668 111.862C272.835 117.315 267.451 123.113 259.102 123.113V123.119Z" fill="#231815"/>
<path d="M244.838 108.115C244.838 100.034 250.892 94.1138 259.102 94.1138C266.432 94.1138 271.338 98.5303 272.416 104.159H266.397C265.773 101.607 263.058 99.5791 259.23 99.5791C254.388 99.5791 250.787 103.145 250.787 108.121C250.787 113.097 254.388 116.663 259.23 116.663C263.058 116.663 266.199 114.146 266.659 111.722H272.678C271.862 117.088 266.496 122.128 259.102 122.128C250.886 122.128 244.838 116.208 244.838 108.127V108.115Z" fill="white"/>
<path d="M280.742 122.466V101.071H272.072V93.8051H297.365V101.071H288.695V122.466H280.742Z" fill="#231815"/>
<path d="M296.369 100.069H287.699V121.464H281.744V100.069H273.074V94.8014H296.369V100.069Z" fill="white"/>
<path d="M60.2117 163.969V135.308H71.4511C78.7344 135.308 83.4422 139.526 83.4422 146.058C83.4422 152.589 78.8451 156.872 71.4511 156.872H68.1649V163.974H60.2117V163.969ZM71.1948 149.606C74.0498 149.606 75.4948 148.412 75.4948 146.058C75.4948 143.704 74.0498 142.573 71.1948 142.573H68.1708V149.606H71.1948Z" fill="#231815"/>
<path d="M61.2139 136.304H71.457C78.3906 136.304 82.4517 140.167 82.4517 146.052C82.4517 151.937 78.3964 155.87 71.457 155.87H67.1686V162.972H61.2139V136.304ZM71.1948 150.602C74.4985 150.602 76.497 149.029 76.497 146.052C76.497 143.075 74.4985 141.571 71.1948 141.571H67.1686V150.602H71.1948Z" fill="white"/>
<path d="M100.636 163.969L95.4683 155.561H92.2812V163.969H84.3279V135.308H96.0568C103.293 135.308 107.786 139.188 107.786 145.434C107.786 149.093 106.218 152.007 103.34 153.755L109.93 163.969H100.636ZM95.7946 148.295C97.6358 148.295 99.8324 147.8 99.8324 145.434C99.8324 143.069 97.6358 142.573 95.7946 142.573H92.2812V148.295H95.7946Z" fill="#231815"/>
<path d="M101.196 162.972L96.0277 154.565H91.2848V162.972H85.3301V136.304H96.0626C102.833 136.304 106.795 139.905 106.795 145.434C106.795 149.099 105.059 151.913 101.918 153.388L108.1 162.972H101.196ZM91.279 149.297H95.7946C98.9351 149.297 100.835 147.957 100.835 145.434C100.835 142.911 98.9351 141.571 95.7946 141.571H91.279V149.292V149.297Z" fill="white"/>
<path d="M123.442 164.627C114.667 164.627 108.048 158.177 108.048 149.624C108.048 141.07 114.667 134.62 123.442 134.62C132.217 134.62 138.836 141.07 138.836 149.624C138.836 158.177 132.217 164.627 123.442 164.627ZM123.442 141.985C119.13 141.985 116.001 145.195 116.001 149.624C116.001 154.052 119.13 157.262 123.442 157.262C127.754 157.262 130.882 154.052 130.882 149.624C130.882 145.195 127.754 141.985 123.442 141.985Z" fill="#231815"/>
<path d="M109.044 149.624C109.044 141.542 115.162 135.622 123.442 135.622C131.721 135.622 137.839 141.542 137.839 149.624C137.839 157.705 131.721 163.625 123.442 163.625C115.162 163.625 109.044 157.705 109.044 149.624ZM131.885 149.624C131.885 144.584 128.284 140.989 123.442 140.989C118.6 140.989 114.999 144.589 114.999 149.624C114.999 154.658 118.6 158.259 123.442 158.259C128.284 158.259 131.885 154.629 131.885 149.624Z" fill="white"/>
<path d="M149.551 164.627C142.873 164.627 138.16 160.304 138.084 154.122L138.072 153.108H146.037V154.104C146.037 155.637 147.267 157.262 149.556 157.262C151.846 157.262 153.268 155.718 153.268 153.125V135.308H161.221V153.125C161.221 160.006 156.531 164.627 149.556 164.627H149.551Z" fill="#231815"/>
<path d="M145.035 154.104C145.035 156.068 146.608 158.259 149.551 158.259C152.493 158.259 154.264 156.196 154.264 153.12V136.304H160.219V153.12C160.219 159.5 155.966 163.625 149.551 163.625C143.136 163.625 139.144 159.406 139.08 154.104H145.035Z" fill="white"/>
<path d="M163.208 163.969V135.308H185.035V142.474H171.162V145.906H183.887V153.073H171.162V156.802H185.326V163.969H163.208Z" fill="#231815"/>
<path d="M164.204 136.304H184.032V141.472H170.159V146.903H182.884V152.071H170.159V157.798H184.323V162.966H164.198V136.298L164.204 136.304Z" fill="white"/>
<path d="M200.69 164.627C191.846 164.627 185.425 158.317 185.425 149.624C185.425 140.93 191.846 134.62 200.69 134.62C207.997 134.62 213.742 138.984 214.989 145.475L215.216 146.664H207.205L207.018 145.9C206.465 143.616 203.971 142.084 200.824 142.084C196.513 142.084 193.384 145.254 193.384 149.624C193.384 153.993 196.513 157.163 200.824 157.163C204.163 157.163 206.902 154.99 207.269 153.038L207.42 152.222H215.432L215.257 153.37C214.424 158.824 209.04 164.621 200.69 164.621V164.627Z" fill="#231815"/>
<path d="M186.421 149.624C186.421 141.542 192.475 135.622 200.685 135.622C208.014 135.622 212.92 140.039 213.998 145.667H207.979C207.356 143.115 204.641 141.088 200.813 141.088C195.971 141.088 192.37 144.654 192.37 149.629C192.37 154.605 195.971 158.171 200.813 158.171C204.641 158.171 207.781 155.654 208.242 153.23H214.261C213.445 158.597 208.079 163.637 200.685 163.637C192.475 163.637 186.421 157.717 186.421 149.635V149.624Z" fill="white"/>
<path d="M222.33 163.969V142.573H213.66V135.308H238.954V142.573H230.284V163.969H222.33Z" fill="#231815"/>
<path d="M237.951 141.571H229.281V162.966H223.327V141.571H214.657V136.304H237.951V141.571Z" fill="white"/>
</g>
<defs>
<clipPath id="clip0_158_3982">
<rect width="296.73" height="164.542" fill="white" transform="translate(0.63501 0.0844727)"/>
</clipPath>
</defs>
</svg>
